solid Default
  facet normal 0.000000e+00 0.000000e+00 -1.000000e+00
    outer loop
      vertex -1.000000e+01 7.127000e+00 0.000000e+00
      vertex -1.000000e+01 1.287300e+01 0.000000e+00
      vertex -8.000000e+00 1.287300e+01 0.000000e+00
    endloop
  endfacet
  facet normal 0.000000e+00 1.000000e+00 0.000000e+00
    outer loop
      vertex -1.000000e+01 1.287300e+01 6.350000e+00
      vertex -8.000000e+00 1.287300e+01 0.000000e+00
      vertex -1.000000e+01 1.287300e+01 0.000000e+00
    endloop
  endfacet
  facet normal 0.000000e+00 0.000000e+00 -1.000000e+00
    outer loop
      vertex -8.000000e+00 7.127000e+00 0.000000e+00
      vertex -1.000000e+01 7.127000e+00 0.000000e+00
      vertex -8.000000e+00 1.287300e+01 0.000000e+00
    endloop
  endfacet
  facet normal 0.000000e+00 0.000000e+00 -1.000000e+00
    outer loop
      vertex -6.806660e+00 1.574600e+01 0.000000e+00
      vertex -8.000000e+00 7.127000e+00 0.000000e+00
      vertex -8.000000e+00 1.287300e+01 0.000000e+00
    endloop
  endfacet
  facet normal 0.000000e+00 0.000000e+00 -1.000000e+00
    outer loop
      vertex -8.000000e+00 1.574600e+01 0.000000e+00
      vertex -6.806660e+00 1.574600e+01 0.000000e+00
      vertex -8.000000e+00 1.287300e+01 0.000000e+00
    endloop
  endfacet
  facet normal -1.000000e+00 0.000000e+00 0.000000e+00
    outer loop
      vertex -8.000000e+00 1.287300e+01 6.350000e+00
      vertex -8.000000e+00 1.574600e+01 0.000000e+00
      vertex -8.000000e+00 1.287300e+01 0.000000e+00
    endloop
  endfacet
  facet normal 0.000000e+00 1.000000e+00 0.000000e+00
    outer loop
      vertex -1.000000e+01 1.287300e+01 6.350000e+00
      vertex -8.000000e+00 1.287300e+01 6.350000e+00
      vertex -8.000000e+00 1.287300e+01 0.000000e+00
    endloop
  endfacet
  facet normal 0.000000e+00 0.000000e+00 -1.000000e+00
    outer loop
      vertex -1.200000e+01 7.127000e+00 0.000000e+00
      vertex -1.200000e+01 1.287300e+01 0.000000e+00
      vertex -1.000000e+01 1.287300e+01 0.000000e+00
    endloop
  endfacet
  facet normal 0.000000e+00 1.000000e+00 0.000000e+00
    outer loop
      vertex -1.200000e+01 1.287300e+01 6.350000e+00
      vertex -1.000000e+01 1.287300e+01 0.000000e+00
      vertex -1.200000e+01 1.287300e+01 0.000000e+00
    endloop
  endfacet
  facet normal 0.000000e+00 0.000000e+00 -1.000000e+00
    outer loop
      vertex -1.000000e+01 7.127000e+00 0.000000e+00
      vertex -1.200000e+01 7.127000e+00 0.000000e+00
      vertex -1.000000e+01 1.287300e+01 0.000000e+00
    endloop
  endfacet
  facet normal 0.000000e+00 1.000000e+00 0.000000e+00
    outer loop
      vertex -1.000000e+01 1.287300e+01 6.350000e+00
      vertex -1.000000e+01 1.287300e+01 0.000000e+00
      vertex -1.200000e+01 1.287300e+01 6.350000e+00
    endloop
  endfacet
  facet normal 0.000000e+00 0.000000e+00 -1.000000e+00
    outer loop
      vertex -1.319334e+01 4.254000e+00 0.000000e+00
      vertex -1.200000e+01 1.574600e+01 0.000000e+00
      vertex -1.200000e+01 1.287300e+01 0.000000e+00
    endloop
  endfacet
  facet normal 1.000000e+00 0.000000e+00 0.000000e+00
    outer loop
      vertex -1.200000e+01 1.574600e+01 6.350000e+00
      vertex -1.200000e+01 1.287300e+01 0.000000e+00
      vertex -1.200000e+01 1.574600e+01 0.000000e+00
    endloop
  endfacet
  facet normal 0.000000e+00 0.000000e+00 -1.000000e+00
    outer loop
      vertex -1.200000e+01 7.127000e+00 0.000000e+00
      vertex -1.319334e+01 4.254000e+00 0.000000e+00
      vertex -1.200000e+01 1.287300e+01 0.000000e+00
    endloop
  endfacet
  facet normal 1.000000e+00 0.000000e+00 0.000000e+00
    outer loop
      vertex -1.200000e+01 1.287300e+01 6.350000e+00
      vertex -1.200000e+01 1.287300e+01 0.000000e+00
      vertex -1.200000e+01 1.574600e+01 6.350000e+00
    endloop
  endfacet
  facet normal 0.000000e+00 0.000000e+00 -1.000000e+00
    outer loop
      vertex -1.319334e+01 4.254000e+00 0.000000e+00
      vertex -1.319334e+01 1.574600e+01 0.000000e+00
      vertex -1.200000e+01 1.574600e+01 0.000000e+00
    endloop
  endfacet
  facet normal 0.000000e+00 1.000000e+00 0.000000e+00
    outer loop
      vertex -1.319334e+01 1.574600e+01 6.350000e+00
      vertex -1.200000e+01 1.574600e+01 0.000000e+00
      vertex -1.319334e+01 1.574600e+01 0.000000e+00
    endloop
  endfacet
  facet normal 0.000000e+00 1.000000e+00 0.000000e+00
    outer loop
      vertex -1.200000e+01 1.574600e+01 6.350000e+00
      vertex -1.200000e+01 1.574600e+01 0.000000e+00
      vertex -1.319334e+01 1.574600e+01 6.350000e+00
    endloop
  endfacet
  facet normal 0.000000e+00 0.000000e+00 -1.000000e+00
    outer loop
      vertex -1.587300e+01 6.933660e+00 0.000000e+00
      vertex -1.587300e+01 1.306634e+01 0.000000e+00
      vertex -1.319334e+01 1.574600e+01 0.000000e+00
    endloop
  endfacet
  facet normal -7.071068e-01 7.071068e-01 0.000000e+00
    outer loop
      vertex -1.587300e+01 1.306634e+01 6.350000e+00
      vertex -1.319334e+01 1.574600e+01 0.000000e+00
      vertex -1.587300e+01 1.306634e+01 0.000000e+00
    endloop
  endfacet
  facet normal 0.000000e+00 0.000000e+00 -1.000000e+00
    outer loop
      vertex -1.319334e+01 4.254000e+00 0.000000e+00
      vertex -1.587300e+01 6.933660e+00 0.000000e+00
      vertex -1.319334e+01 1.574600e+01 0.000000e+00
    endloop
  endfacet
  facet normal -7.071068e-01 7.071068e-01 0.000000e+00
    outer loop
      vertex -1.319334e+01 1.574600e+01 6.350000e+00
      vertex -1.319334e+01 1.574600e+01 0.000000e+00
      vertex -1.587300e+01 1.306634e+01 6.350000e+00
    endloop
  endfacet
  facet normal -1.000000e+00 4.598261e-16 0.000000e+00
    outer loop
      vertex -1.587300e+01 6.933660e+00 6.350000e+00
      vertex -1.587300e+01 1.306634e+01 0.000000e+00
      vertex -1.587300e+01 6.933660e+00 0.000000e+00
    endloop
  endfacet
  facet normal -1.000000e+00 4.598261e-16 0.000000e+00
    outer loop
      vertex -1.587300e+01 1.306634e+01 6.350000e+00
      vertex -1.587300e+01 1.306634e+01 0.000000e+00
      vertex -1.587300e+01 6.933660e+00 6.350000e+00
    endloop
  endfacet
  facet normal -7.071068e-01 -7.071068e-01 -0.000000e+00
    outer loop
      vertex -1.319334e+01 4.254000e+00 6.350000e+00
      vertex -1.587300e+01 6.933660e+00 0.000000e+00
      vertex -1.319334e+01 4.254000e+00 0.000000e+00
    endloop
  endfacet
  facet normal -7.071068e-01 -7.071068e-01 -0.000000e+00
    outer loop
      vertex -1.587300e+01 6.933660e+00 6.350000e+00
      vertex -1.587300e+01 6.933660e+00 0.000000e+00
      vertex -1.319334e+01 4.254000e+00 6.350000e+00
    endloop
  endfacet
  facet normal 0.000000e+00 0.000000e+00 -1.000000e+00
    outer loop
      vertex -1.200000e+01 7.127000e+00 0.000000e+00
      vertex -1.200000e+01 4.254000e+00 0.000000e+00
      vertex -1.319334e+01 4.254000e+00 0.000000e+00
    endloop
  endfacet
  facet normal 5.907719e-16 -1.000000e+00 0.000000e+00
    outer loop
      vertex -1.200000e+01 4.254000e+00 6.350000e+00
      vertex -1.319334e+01 4.254000e+00 0.000000e+00
      vertex -1.200000e+01 4.254000e+00 0.000000e+00
    endloop
  endfacet
  facet normal 5.907719e-16 -1.000000e+00 0.000000e+00
    outer loop
      vertex -1.319334e+01 4.254000e+00 6.350000e+00
      vertex -1.319334e+01 4.254000e+00 0.000000e+00
      vertex -1.200000e+01 4.254000e+00 6.350000e+00
    endloop
  endfacet
  facet normal 1.000000e+00 0.000000e+00 0.000000e+00
    outer loop
      vertex -1.200000e+01 7.127000e+00 6.350000e+00
      vertex -1.200000e+01 4.254000e+00 0.000000e+00
      vertex -1.200000e+01 7.127000e+00 0.000000e+00
    endloop
  endfacet
  facet normal 1.000000e+00 0.000000e+00 0.000000e+00
    outer loop
      vertex -1.200000e+01 4.254000e+00 6.350000e+00
      vertex -1.200000e+01 4.254000e+00 0.000000e+00
      vertex -1.200000e+01 7.127000e+00 6.350000e+00
    endloop
  endfacet
  facet normal 0.000000e+00 -1.000000e+00 0.000000e+00
    outer loop
      vertex -1.000000e+01 7.127000e+00 6.350000e+00
      vertex -1.200000e+01 7.127000e+00 0.000000e+00
      vertex -1.000000e+01 7.127000e+00 0.000000e+00
    endloop
  endfacet
  facet normal 0.000000e+00 -1.000000e+00 0.000000e+00
    outer loop
      vertex -1.200000e+01 7.127000e+00 6.350000e+00
      vertex -1.200000e+01 7.127000e+00 0.000000e+00
      vertex -1.000000e+01 7.127000e+00 6.350000e+00
    endloop
  endfacet
  facet normal 0.000000e+00 -1.000000e+00 0.000000e+00
    outer loop
      vertex -8.000000e+00 7.127000e+00 6.350000e+00
      vertex -1.000000e+01 7.127000e+00 0.000000e+00
      vertex -8.000000e+00 7.127000e+00 0.000000e+00
    endloop
  endfacet
  facet normal 0.000000e+00 -1.000000e+00 0.000000e+00
    outer loop
      vertex -1.000000e+01 7.127000e+00 6.350000e+00
      vertex -1.000000e+01 7.127000e+00 0.000000e+00
      vertex -8.000000e+00 7.127000e+00 6.350000e+00
    endloop
  endfacet
  facet normal 0.000000e+00 0.000000e+00 -1.000000e+00
    outer loop
      vertex -6.806660e+00 1.574600e+01 0.000000e+00
      vertex -8.000000e+00 4.254000e+00 0.000000e+00
      vertex -8.000000e+00 7.127000e+00 0.000000e+00
    endloop
  endfacet
  facet normal -1.000000e+00 0.000000e+00 0.000000e+00
    outer loop
      vertex -8.000000e+00 4.254000e+00 6.350000e+00
      vertex -8.000000e+00 7.127000e+00 0.000000e+00
      vertex -8.000000e+00 4.254000e+00 0.000000e+00
    endloop
  endfacet
  facet normal -1.000000e+00 -0.000000e+00 -0.000000e+00
    outer loop
      vertex -8.000000e+00 7.127000e+00 6.350000e+00
      vertex -8.000000e+00 7.127000e+00 0.000000e+00
      vertex -8.000000e+00 4.254000e+00 6.350000e+00
    endloop
  endfacet
  facet normal 0.000000e+00 0.000000e+00 -1.000000e+00
    outer loop
      vertex -6.806660e+00 1.574600e+01 0.000000e+00
      vertex -6.806660e+00 4.254000e+00 0.000000e+00
      vertex -8.000000e+00 4.254000e+00 0.000000e+00
    endloop
  endfacet
  facet normal 0.000000e+00 -1.000000e+00 0.000000e+00
    outer loop
      vertex -6.806660e+00 4.254000e+00 6.350000e+00
      vertex -8.000000e+00 4.254000e+00 0.000000e+00
      vertex -6.806660e+00 4.254000e+00 0.000000e+00
    endloop
  endfacet
  facet normal 0.000000e+00 -1.000000e+00 0.000000e+00
    outer loop
      vertex -8.000000e+00 4.254000e+00 6.350000e+00
      vertex -8.000000e+00 4.254000e+00 0.000000e+00
      vertex -6.806660e+00 4.254000e+00 6.350000e+00
    endloop
  endfacet
  facet normal 0.000000e+00 0.000000e+00 -1.000000e+00
    outer loop
      vertex -4.127000e+00 1.306634e+01 0.000000e+00
      vertex -4.127000e+00 6.933660e+00 0.000000e+00
      vertex -6.806660e+00 4.254000e+00 0.000000e+00
    endloop
  endfacet
  facet normal 7.071068e-01 -7.071068e-01 0.000000e+00
    outer loop
      vertex -4.127000e+00 6.933660e+00 6.350000e+00
      vertex -6.806660e+00 4.254000e+00 0.000000e+00
      vertex -4.127000e+00 6.933660e+00 0.000000e+00
    endloop
  endfacet
  facet normal 0.000000e+00 0.000000e+00 -1.000000e+00
    outer loop
      vertex -6.806660e+00 1.574600e+01 0.000000e+00
      vertex -4.127000e+00 1.306634e+01 0.000000e+00
      vertex -6.806660e+00 4.254000e+00 0.000000e+00
    endloop
  endfacet
  facet normal 7.071068e-01 -7.071068e-01 0.000000e+00
    outer loop
      vertex -6.806660e+00 4.254000e+00 6.350000e+00
      vertex -6.806660e+00 4.254000e+00 0.000000e+00
      vertex -4.127000e+00 6.933660e+00 6.350000e+00
    endloop
  endfacet
  facet normal 1.000000e+00 0.000000e+00 0.000000e+00
    outer loop
      vertex -4.127000e+00 1.306634e+01 6.350000e+00
      vertex -4.127000e+00 6.933660e+00 0.000000e+00
      vertex -4.127000e+00 1.306634e+01 0.000000e+00
    endloop
  endfacet
  facet normal 1.000000e+00 0.000000e+00 0.000000e+00
    outer loop
      vertex -4.127000e+00 6.933660e+00 6.350000e+00
      vertex -4.127000e+00 6.933660e+00 0.000000e+00
      vertex -4.127000e+00 1.306634e+01 6.350000e+00
    endloop
  endfacet
  facet normal 7.071068e-01 7.071068e-01 0.000000e+00
    outer loop
      vertex -6.806660e+00 1.574600e+01 6.350000e+00
      vertex -4.127000e+00 1.306634e+01 0.000000e+00
      vertex -6.806660e+00 1.574600e+01 0.000000e+00
    endloop
  endfacet
  facet normal 7.071068e-01 7.071068e-01 0.000000e+00
    outer loop
      vertex -4.127000e+00 1.306634e+01 6.350000e+00
      vertex -4.127000e+00 1.306634e+01 0.000000e+00
      vertex -6.806660e+00 1.574600e+01 6.350000e+00
    endloop
  endfacet
  facet normal 0.000000e+00 1.000000e+00 0.000000e+00
    outer loop
      vertex -8.000000e+00 1.574600e+01 6.350000e+00
      vertex -6.806660e+00 1.574600e+01 0.000000e+00
      vertex -8.000000e+00 1.574600e+01 0.000000e+00
    endloop
  endfacet
  facet normal 0.000000e+00 1.000000e+00 0.000000e+00
    outer loop
      vertex -6.806660e+00 1.574600e+01 6.350000e+00
      vertex -6.806660e+00 1.574600e+01 0.000000e+00
      vertex -8.000000e+00 1.574600e+01 6.350000e+00
    endloop
  endfacet
  facet normal -1.000000e+00 -0.000000e+00 -0.000000e+00
    outer loop
      vertex -8.000000e+00 1.574600e+01 6.350000e+00
      vertex -8.000000e+00 1.574600e+01 0.000000e+00
      vertex -8.000000e+00 1.287300e+01 6.350000e+00
    endloop
  endfacet
  facet normal 0.000000e+00 0.000000e+00 1.000000e+00
    outer loop
      vertex -6.806660e+00 4.254000e+00 6.350000e+00
      vertex -8.000000e+00 1.574600e+01 6.350000e+00
      vertex -8.000000e+00 1.287300e+01 6.350000e+00
    endloop
  endfacet
  facet normal 0.000000e+00 0.000000e+00 1.000000e+00
    outer loop
      vertex -8.000000e+00 7.127000e+00 6.350000e+00
      vertex -6.806660e+00 4.254000e+00 6.350000e+00
      vertex -8.000000e+00 1.287300e+01 6.350000e+00
    endloop
  endfacet
  facet normal 0.000000e+00 0.000000e+00 1.000000e+00
    outer loop
      vertex -1.000000e+01 1.287300e+01 6.350000e+00
      vertex -8.000000e+00 7.127000e+00 6.350000e+00
      vertex -8.000000e+00 1.287300e+01 6.350000e+00
    endloop
  endfacet
  facet normal 0.000000e+00 0.000000e+00 1.000000e+00
    outer loop
      vertex -6.806660e+00 4.254000e+00 6.350000e+00
      vertex -6.806660e+00 1.574600e+01 6.350000e+00
      vertex -8.000000e+00 1.574600e+01 6.350000e+00
    endloop
  endfacet
  facet normal 0.000000e+00 0.000000e+00 1.000000e+00
    outer loop
      vertex -4.127000e+00 6.933660e+00 6.350000e+00
      vertex -4.127000e+00 1.306634e+01 6.350000e+00
      vertex -6.806660e+00 1.574600e+01 6.350000e+00
    endloop
  endfacet
  facet normal 0.000000e+00 0.000000e+00 1.000000e+00
    outer loop
      vertex -6.806660e+00 4.254000e+00 6.350000e+00
      vertex -4.127000e+00 6.933660e+00 6.350000e+00
      vertex -6.806660e+00 1.574600e+01 6.350000e+00
    endloop
  endfacet
  facet normal 0.000000e+00 0.000000e+00 1.000000e+00
    outer loop
      vertex -8.000000e+00 7.127000e+00 6.350000e+00
      vertex -8.000000e+00 4.254000e+00 6.350000e+00
      vertex -6.806660e+00 4.254000e+00 6.350000e+00
    endloop
  endfacet
  facet normal 0.000000e+00 0.000000e+00 1.000000e+00
    outer loop
      vertex -1.000000e+01 1.287300e+01 6.350000e+00
      vertex -1.000000e+01 7.127000e+00 6.350000e+00
      vertex -8.000000e+00 7.127000e+00 6.350000e+00
    endloop
  endfacet
  facet normal 0.000000e+00 0.000000e+00 1.000000e+00
    outer loop
      vertex -1.200000e+01 1.287300e+01 6.350000e+00
      vertex -1.200000e+01 7.127000e+00 6.350000e+00
      vertex -1.000000e+01 7.127000e+00 6.350000e+00
    endloop
  endfacet
  facet normal 0.000000e+00 0.000000e+00 1.000000e+00
    outer loop
      vertex -1.000000e+01 1.287300e+01 6.350000e+00
      vertex -1.200000e+01 1.287300e+01 6.350000e+00
      vertex -1.000000e+01 7.127000e+00 6.350000e+00
    endloop
  endfacet
  facet normal 0.000000e+00 0.000000e+00 1.000000e+00
    outer loop
      vertex -1.319334e+01 1.574600e+01 6.350000e+00
      vertex -1.200000e+01 4.254000e+00 6.350000e+00
      vertex -1.200000e+01 7.127000e+00 6.350000e+00
    endloop
  endfacet
  facet normal 0.000000e+00 0.000000e+00 1.000000e+00
    outer loop
      vertex -1.200000e+01 1.287300e+01 6.350000e+00
      vertex -1.319334e+01 1.574600e+01 6.350000e+00
      vertex -1.200000e+01 7.127000e+00 6.350000e+00
    endloop
  endfacet
  facet normal 0.000000e+00 0.000000e+00 1.000000e+00
    outer loop
      vertex -1.319334e+01 1.574600e+01 6.350000e+00
      vertex -1.319334e+01 4.254000e+00 6.350000e+00
      vertex -1.200000e+01 4.254000e+00 6.350000e+00
    endloop
  endfacet
  facet normal 0.000000e+00 0.000000e+00 1.000000e+00
    outer loop
      vertex -1.587300e+01 1.306634e+01 6.350000e+00
      vertex -1.587300e+01 6.933660e+00 6.350000e+00
      vertex -1.319334e+01 4.254000e+00 6.350000e+00
    endloop
  endfacet
  facet normal 0.000000e+00 0.000000e+00 1.000000e+00
    outer loop
      vertex -1.319334e+01 1.574600e+01 6.350000e+00
      vertex -1.587300e+01 1.306634e+01 6.350000e+00
      vertex -1.319334e+01 4.254000e+00 6.350000e+00
    endloop
  endfacet
  facet normal 0.000000e+00 0.000000e+00 1.000000e+00
    outer loop
      vertex -1.200000e+01 1.287300e+01 6.350000e+00
      vertex -1.200000e+01 1.574600e+01 6.350000e+00
      vertex -1.319334e+01 1.574600e+01 6.350000e+00
    endloop
  endfacet
  facet normal 0.000000e+00 0.000000e+00 -1.000000e+00
    outer loop
      vertex 1.000000e+01 7.127000e+00 0.000000e+00
      vertex 1.000000e+01 1.287300e+01 0.000000e+00
      vertex 1.200000e+01 1.287300e+01 0.000000e+00
    endloop
  endfacet
  facet normal 0.000000e+00 1.000000e+00 0.000000e+00
    outer loop
      vertex 1.000000e+01 1.287300e+01 6.350000e+00
      vertex 1.200000e+01 1.287300e+01 0.000000e+00
      vertex 1.000000e+01 1.287300e+01 0.000000e+00
    endloop
  endfacet
  facet normal 0.000000e+00 0.000000e+00 -1.000000e+00
    outer loop
      vertex 1.200000e+01 7.127000e+00 0.000000e+00
      vertex 1.000000e+01 7.127000e+00 0.000000e+00
      vertex 1.200000e+01 1.287300e+01 0.000000e+00
    endloop
  endfacet
  facet normal 0.000000e+00 0.000000e+00 -1.000000e+00
    outer loop
      vertex 1.319334e+01 1.574600e+01 0.000000e+00
      vertex 1.200000e+01 7.127000e+00 0.000000e+00
      vertex 1.200000e+01 1.287300e+01 0.000000e+00
    endloop
  endfacet
  facet normal 0.000000e+00 0.000000e+00 -1.000000e+00
    outer loop
      vertex 1.200000e+01 1.574600e+01 0.000000e+00
      vertex 1.319334e+01 1.574600e+01 0.000000e+00
      vertex 1.200000e+01 1.287300e+01 0.000000e+00
    endloop
  endfacet
  facet normal -1.000000e+00 0.000000e+00 0.000000e+00
    outer loop
      vertex 1.200000e+01 1.287300e+01 6.350000e+00
      vertex 1.200000e+01 1.574600e+01 0.000000e+00
      vertex 1.200000e+01 1.287300e+01 0.000000e+00
    endloop
  endfacet
  facet normal 0.000000e+00 1.000000e+00 0.000000e+00
    outer loop
      vertex 1.000000e+01 1.287300e+01 6.350000e+00
      vertex 1.200000e+01 1.287300e+01 6.350000e+00
      vertex 1.200000e+01 1.287300e+01 0.000000e+00
    endloop
  endfacet
  facet normal 0.000000e+00 0.000000e+00 -1.000000e+00
    outer loop
      vertex 8.000000e+00 7.127000e+00 0.000000e+00
      vertex 8.000000e+00 1.287300e+01 0.000000e+00
      vertex 1.000000e+01 1.287300e+01 0.000000e+00
    endloop
  endfacet
  facet normal 0.000000e+00 1.000000e+00 0.000000e+00
    outer loop
      vertex 8.000000e+00 1.287300e+01 6.350000e+00
      vertex 1.000000e+01 1.287300e+01 0.000000e+00
      vertex 8.000000e+00 1.287300e+01 0.000000e+00
    endloop
  endfacet
  facet normal 0.000000e+00 0.000000e+00 -1.000000e+00
    outer loop
      vertex 1.000000e+01 7.127000e+00 0.000000e+00
      vertex 8.000000e+00 7.127000e+00 0.000000e+00
      vertex 1.000000e+01 1.287300e+01 0.000000e+00
    endloop
  endfacet
  facet normal 0.000000e+00 1.000000e+00 0.000000e+00
    outer loop
      vertex 1.000000e+01 1.287300e+01 6.350000e+00
      vertex 1.000000e+01 1.287300e+01 0.000000e+00
      vertex 8.000000e+00 1.287300e+01 6.350000e+00
    endloop
  endfacet
  facet normal 0.000000e+00 0.000000e+00 -1.000000e+00
    outer loop
      vertex 6.806660e+00 4.254000e+00 0.000000e+00
      vertex 8.000000e+00 1.574600e+01 0.000000e+00
      vertex 8.000000e+00 1.287300e+01 0.000000e+00
    endloop
  endfacet
  facet normal 1.000000e+00 0.000000e+00 0.000000e+00
    outer loop
      vertex 8.000000e+00 1.574600e+01 6.350000e+00
      vertex 8.000000e+00 1.287300e+01 0.000000e+00
      vertex 8.000000e+00 1.574600e+01 0.000000e+00
    endloop
  endfacet
  facet normal 0.000000e+00 0.000000e+00 -1.000000e+00
    outer loop
      vertex 8.000000e+00 7.127000e+00 0.000000e+00
      vertex 6.806660e+00 4.254000e+00 0.000000e+00
      vertex 8.000000e+00 1.287300e+01 0.000000e+00
    endloop
  endfacet
  facet normal 1.000000e+00 0.000000e+00 0.000000e+00
    outer loop
      vertex 8.000000e+00 1.287300e+01 6.350000e+00
      vertex 8.000000e+00 1.287300e+01 0.000000e+00
      vertex 8.000000e+00 1.574600e+01 6.350000e+00
    endloop
  endfacet
  facet normal 0.000000e+00 0.000000e+00 -1.000000e+00
    outer loop
      vertex 6.806660e+00 4.254000e+00 0.000000e+00
      vertex 6.806660e+00 1.574600e+01 0.000000e+00
      vertex 8.000000e+00 1.574600e+01 0.000000e+00
    endloop
  endfacet
  facet normal 0.000000e+00 1.000000e+00 0.000000e+00
    outer loop
      vertex 6.806660e+00 1.574600e+01 6.350000e+00
      vertex 8.000000e+00 1.574600e+01 0.000000e+00
      vertex 6.806660e+00 1.574600e+01 0.000000e+00
    endloop
  endfacet
  facet normal 0.000000e+00 1.000000e+00 0.000000e+00
    outer loop
      vertex 8.000000e+00 1.574600e+01 6.350000e+00
      vertex 8.000000e+00 1.574600e+01 0.000000e+00
      vertex 6.806660e+00 1.574600e+01 6.350000e+00
    endloop
  endfacet
  facet normal 0.000000e+00 0.000000e+00 -1.000000e+00
    outer loop
      vertex 4.127000e+00 6.933660e+00 0.000000e+00
      vertex 4.127000e+00 1.306634e+01 0.000000e+00
      vertex 6.806660e+00 1.574600e+01 0.000000e+00
    endloop
  endfacet
  facet normal -7.071068e-01 7.071068e-01 0.000000e+00
    outer loop
      vertex 4.127000e+00 1.306634e+01 6.350000e+00
      vertex 6.806660e+00 1.574600e+01 0.000000e+00
      vertex 4.127000e+00 1.306634e+01 0.000000e+00
    endloop
  endfacet
  facet normal 0.000000e+00 0.000000e+00 -1.000000e+00
    outer loop
      vertex 6.806660e+00 4.254000e+00 0.000000e+00
      vertex 4.127000e+00 6.933660e+00 0.000000e+00
      vertex 6.806660e+00 1.574600e+01 0.000000e+00
    endloop
  endfacet
  facet normal -7.071068e-01 7.071068e-01 0.000000e+00
    outer loop
      vertex 6.806660e+00 1.574600e+01 6.350000e+00
      vertex 6.806660e+00 1.574600e+01 0.000000e+00
      vertex 4.127000e+00 1.306634e+01 6.350000e+00
    endloop
  endfacet
  facet normal -1.000000e+00 4.598261e-16 0.000000e+00
    outer loop
      vertex 4.127000e+00 6.933660e+00 6.350000e+00
      vertex 4.127000e+00 1.306634e+01 0.000000e+00
      vertex 4.127000e+00 6.933660e+00 0.000000e+00
    endloop
  endfacet
  facet normal -1.000000e+00 4.598261e-16 0.000000e+00
    outer loop
      vertex 4.127000e+00 1.306634e+01 6.350000e+00
      vertex 4.127000e+00 1.306634e+01 0.000000e+00
      vertex 4.127000e+00 6.933660e+00 6.350000e+00
    endloop
  endfacet
  facet normal -7.071068e-01 -7.071068e-01 -0.000000e+00
    outer loop
      vertex 6.806660e+00 4.254000e+00 6.350000e+00
      vertex 4.127000e+00 6.933660e+00 0.000000e+00
      vertex 6.806660e+00 4.254000e+00 0.000000e+00
    endloop
  endfacet
  facet normal -7.071068e-01 -7.071068e-01 -0.000000e+00
    outer loop
      vertex 4.127000e+00 6.933660e+00 6.350000e+00
      vertex 4.127000e+00 6.933660e+00 0.000000e+00
      vertex 6.806660e+00 4.254000e+00 6.350000e+00
    endloop
  endfacet
  facet normal 0.000000e+00 0.000000e+00 -1.000000e+00
    outer loop
      vertex 8.000000e+00 7.127000e+00 0.000000e+00
      vertex 8.000000e+00 4.254000e+00 0.000000e+00
      vertex 6.806660e+00 4.254000e+00 0.000000e+00
    endloop
  endfacet
  facet normal 5.907719e-16 -1.000000e+00 0.000000e+00
    outer loop
      vertex 8.000000e+00 4.254000e+00 6.350000e+00
      vertex 6.806660e+00 4.254000e+00 0.000000e+00
      vertex 8.000000e+00 4.254000e+00 0.000000e+00
    endloop
  endfacet
  facet normal 5.907719e-16 -1.000000e+00 0.000000e+00
    outer loop
      vertex 6.806660e+00 4.254000e+00 6.350000e+00
      vertex 6.806660e+00 4.254000e+00 0.000000e+00
      vertex 8.000000e+00 4.254000e+00 6.350000e+00
    endloop
  endfacet
  facet normal 1.000000e+00 0.000000e+00 0.000000e+00
    outer loop
      vertex 8.000000e+00 7.127000e+00 6.350000e+00
      vertex 8.000000e+00 4.254000e+00 0.000000e+00
      vertex 8.000000e+00 7.127000e+00 0.000000e+00
    endloop
  endfacet
  facet normal 1.000000e+00 0.000000e+00 0.000000e+00
    outer loop
      vertex 8.000000e+00 4.254000e+00 6.350000e+00
      vertex 8.000000e+00 4.254000e+00 0.000000e+00
      vertex 8.000000e+00 7.127000e+00 6.350000e+00
    endloop
  endfacet
  facet normal 0.000000e+00 -1.000000e+00 0.000000e+00
    outer loop
      vertex 1.000000e+01 7.127000e+00 6.350000e+00
      vertex 8.000000e+00 7.127000e+00 0.000000e+00
      vertex 1.000000e+01 7.127000e+00 0.000000e+00
    endloop
  endfacet
  facet normal 0.000000e+00 -1.000000e+00 0.000000e+00
    outer loop
      vertex 8.000000e+00 7.127000e+00 6.350000e+00
      vertex 8.000000e+00 7.127000e+00 0.000000e+00
      vertex 1.000000e+01 7.127000e+00 6.350000e+00
    endloop
  endfacet
  facet normal 0.000000e+00 -1.000000e+00 0.000000e+00
    outer loop
      vertex 1.200000e+01 7.127000e+00 6.350000e+00
      vertex 1.000000e+01 7.127000e+00 0.000000e+00
      vertex 1.200000e+01 7.127000e+00 0.000000e+00
    endloop
  endfacet
  facet normal 0.000000e+00 -1.000000e+00 0.000000e+00
    outer loop
      vertex 1.000000e+01 7.127000e+00 6.350000e+00
      vertex 1.000000e+01 7.127000e+00 0.000000e+00
      vertex 1.200000e+01 7.127000e+00 6.350000e+00
    endloop
  endfacet
  facet normal 0.000000e+00 0.000000e+00 -1.000000e+00
    outer loop
      vertex 1.319334e+01 1.574600e+01 0.000000e+00
      vertex 1.200000e+01 4.254000e+00 0.000000e+00
      vertex 1.200000e+01 7.127000e+00 0.000000e+00
    endloop
  endfacet
  facet normal -1.000000e+00 0.000000e+00 0.000000e+00
    outer loop
      vertex 1.200000e+01 4.254000e+00 6.350000e+00
      vertex 1.200000e+01 7.127000e+00 0.000000e+00
      vertex 1.200000e+01 4.254000e+00 0.000000e+00
    endloop
  endfacet
  facet normal -1.000000e+00 -0.000000e+00 -0.000000e+00
    outer loop
      vertex 1.200000e+01 7.127000e+00 6.350000e+00
      vertex 1.200000e+01 7.127000e+00 0.000000e+00
      vertex 1.200000e+01 4.254000e+00 6.350000e+00
    endloop
  endfacet
  facet normal 0.000000e+00 0.000000e+00 -1.000000e+00
    outer loop
      vertex 1.319334e+01 1.574600e+01 0.000000e+00
      vertex 1.319334e+01 4.254000e+00 0.000000e+00
      vertex 1.200000e+01 4.254000e+00 0.000000e+00
    endloop
  endfacet
  facet normal 0.000000e+00 -1.000000e+00 0.000000e+00
    outer loop
      vertex 1.319334e+01 4.254000e+00 6.350000e+00
      vertex 1.200000e+01 4.254000e+00 0.000000e+00
      vertex 1.319334e+01 4.254000e+00 0.000000e+00
    endloop
  endfacet
  facet normal 0.000000e+00 -1.000000e+00 0.000000e+00
    outer loop
      vertex 1.200000e+01 4.254000e+00 6.350000e+00
      vertex 1.200000e+01 4.254000e+00 0.000000e+00
      vertex 1.319334e+01 4.254000e+00 6.350000e+00
    endloop
  endfacet
  facet normal 0.000000e+00 0.000000e+00 -1.000000e+00
    outer loop
      vertex 1.587300e+01 1.306634e+01 0.000000e+00
      vertex 1.587300e+01 6.933660e+00 0.000000e+00
      vertex 1.319334e+01 4.254000e+00 0.000000e+00
    endloop
  endfacet
  facet normal 7.071068e-01 -7.071068e-01 0.000000e+00
    outer loop
      vertex 1.587300e+01 6.933660e+00 6.350000e+00
      vertex 1.319334e+01 4.254000e+00 0.000000e+00
      vertex 1.587300e+01 6.933660e+00 0.000000e+00
    endloop
  endfacet
  facet normal 0.000000e+00 0.000000e+00 -1.000000e+00
    outer loop
      vertex 1.319334e+01 1.574600e+01 0.000000e+00
      vertex 1.587300e+01 1.306634e+01 0.000000e+00
      vertex 1.319334e+01 4.254000e+00 0.000000e+00
    endloop
  endfacet
  facet normal 7.071068e-01 -7.071068e-01 0.000000e+00
    outer loop
      vertex 1.319334e+01 4.254000e+00 6.350000e+00
      vertex 1.319334e+01 4.254000e+00 0.000000e+00
      vertex 1.587300e+01 6.933660e+00 6.350000e+00
    endloop
  endfacet
  facet normal 1.000000e+00 0.000000e+00 0.000000e+00
    outer loop
      vertex 1.587300e+01 1.306634e+01 6.350000e+00
      vertex 1.587300e+01 6.933660e+00 0.000000e+00
      vertex 1.587300e+01 1.306634e+01 0.000000e+00
    endloop
  endfacet
  facet normal 1.000000e+00 0.000000e+00 0.000000e+00
    outer loop
      vertex 1.587300e+01 6.933660e+00 6.350000e+00
      vertex 1.587300e+01 6.933660e+00 0.000000e+00
      vertex 1.587300e+01 1.306634e+01 6.350000e+00
    endloop
  endfacet
  facet normal 7.071068e-01 7.071068e-01 0.000000e+00
    outer loop
      vertex 1.319334e+01 1.574600e+01 6.350000e+00
      vertex 1.587300e+01 1.306634e+01 0.000000e+00
      vertex 1.319334e+01 1.574600e+01 0.000000e+00
    endloop
  endfacet
  facet normal 7.071068e-01 7.071068e-01 0.000000e+00
    outer loop
      vertex 1.587300e+01 1.306634e+01 6.350000e+00
      vertex 1.587300e+01 1.306634e+01 0.000000e+00
      vertex 1.319334e+01 1.574600e+01 6.350000e+00
    endloop
  endfacet
  facet normal 0.000000e+00 1.000000e+00 0.000000e+00
    outer loop
      vertex 1.200000e+01 1.574600e+01 6.350000e+00
      vertex 1.319334e+01 1.574600e+01 0.000000e+00
      vertex 1.200000e+01 1.574600e+01 0.000000e+00
    endloop
  endfacet
  facet normal 0.000000e+00 1.000000e+00 0.000000e+00
    outer loop
      vertex 1.319334e+01 1.574600e+01 6.350000e+00
      vertex 1.319334e+01 1.574600e+01 0.000000e+00
      vertex 1.200000e+01 1.574600e+01 6.350000e+00
    endloop
  endfacet
  facet normal -1.000000e+00 -0.000000e+00 -0.000000e+00
    outer loop
      vertex 1.200000e+01 1.574600e+01 6.350000e+00
      vertex 1.200000e+01 1.574600e+01 0.000000e+00
      vertex 1.200000e+01 1.287300e+01 6.350000e+00
    endloop
  endfacet
  facet normal 0.000000e+00 0.000000e+00 1.000000e+00
    outer loop
      vertex 1.319334e+01 4.254000e+00 6.350000e+00
      vertex 1.200000e+01 1.574600e+01 6.350000e+00
      vertex 1.200000e+01 1.287300e+01 6.350000e+00
    endloop
  endfacet
  facet normal 0.000000e+00 0.000000e+00 1.000000e+00
    outer loop
      vertex 1.200000e+01 7.127000e+00 6.350000e+00
      vertex 1.319334e+01 4.254000e+00 6.350000e+00
      vertex 1.200000e+01 1.287300e+01 6.350000e+00
    endloop
  endfacet
  facet normal 0.000000e+00 0.000000e+00 1.000000e+00
    outer loop
      vertex 1.000000e+01 1.287300e+01 6.350000e+00
      vertex 1.200000e+01 7.127000e+00 6.350000e+00
      vertex 1.200000e+01 1.287300e+01 6.350000e+00
    endloop
  endfacet
  facet normal 0.000000e+00 0.000000e+00 1.000000e+00
    outer loop
      vertex 1.319334e+01 4.254000e+00 6.350000e+00
      vertex 1.319334e+01 1.574600e+01 6.350000e+00
      vertex 1.200000e+01 1.574600e+01 6.350000e+00
    endloop
  endfacet
  facet normal 0.000000e+00 0.000000e+00 1.000000e+00
    outer loop
      vertex 1.587300e+01 6.933660e+00 6.350000e+00
      vertex 1.587300e+01 1.306634e+01 6.350000e+00
      vertex 1.319334e+01 1.574600e+01 6.350000e+00
    endloop
  endfacet
  facet normal 0.000000e+00 0.000000e+00 1.000000e+00
    outer loop
      vertex 1.319334e+01 4.254000e+00 6.350000e+00
      vertex 1.587300e+01 6.933660e+00 6.350000e+00
      vertex 1.319334e+01 1.574600e+01 6.350000e+00
    endloop
  endfacet
  facet normal 0.000000e+00 0.000000e+00 1.000000e+00
    outer loop
      vertex 1.200000e+01 7.127000e+00 6.350000e+00
      vertex 1.200000e+01 4.254000e+00 6.350000e+00
      vertex 1.319334e+01 4.254000e+00 6.350000e+00
    endloop
  endfacet
  facet normal 0.000000e+00 0.000000e+00 1.000000e+00
    outer loop
      vertex 1.000000e+01 1.287300e+01 6.350000e+00
      vertex 1.000000e+01 7.127000e+00 6.350000e+00
      vertex 1.200000e+01 7.127000e+00 6.350000e+00
    endloop
  endfacet
  facet normal 0.000000e+00 0.000000e+00 1.000000e+00
    outer loop
      vertex 8.000000e+00 1.287300e+01 6.350000e+00
      vertex 8.000000e+00 7.127000e+00 6.350000e+00
      vertex 1.000000e+01 7.127000e+00 6.350000e+00
    endloop
  endfacet
  facet normal 0.000000e+00 0.000000e+00 1.000000e+00
    outer loop
      vertex 1.000000e+01 1.287300e+01 6.350000e+00
      vertex 8.000000e+00 1.287300e+01 6.350000e+00
      vertex 1.000000e+01 7.127000e+00 6.350000e+00
    endloop
  endfacet
  facet normal 0.000000e+00 0.000000e+00 1.000000e+00
    outer loop
      vertex 6.806660e+00 1.574600e+01 6.350000e+00
      vertex 8.000000e+00 4.254000e+00 6.350000e+00
      vertex 8.000000e+00 7.127000e+00 6.350000e+00
    endloop
  endfacet
  facet normal 0.000000e+00 0.000000e+00 1.000000e+00
    outer loop
      vertex 8.000000e+00 1.287300e+01 6.350000e+00
      vertex 6.806660e+00 1.574600e+01 6.350000e+00
      vertex 8.000000e+00 7.127000e+00 6.350000e+00
    endloop
  endfacet
  facet normal 0.000000e+00 0.000000e+00 1.000000e+00
    outer loop
      vertex 6.806660e+00 1.574600e+01 6.350000e+00
      vertex 6.806660e+00 4.254000e+00 6.350000e+00
      vertex 8.000000e+00 4.254000e+00 6.350000e+00
    endloop
  endfacet
  facet normal 0.000000e+00 0.000000e+00 1.000000e+00
    outer loop
      vertex 4.127000e+00 1.306634e+01 6.350000e+00
      vertex 4.127000e+00 6.933660e+00 6.350000e+00
      vertex 6.806660e+00 4.254000e+00 6.350000e+00
    endloop
  endfacet
  facet normal 0.000000e+00 0.000000e+00 1.000000e+00
    outer loop
      vertex 6.806660e+00 1.574600e+01 6.350000e+00
      vertex 4.127000e+00 1.306634e+01 6.350000e+00
      vertex 6.806660e+00 4.254000e+00 6.350000e+00
    endloop
  endfacet
  facet normal 0.000000e+00 0.000000e+00 1.000000e+00
    outer loop
      vertex 8.000000e+00 1.287300e+01 6.350000e+00
      vertex 8.000000e+00 1.574600e+01 6.350000e+00
      vertex 6.806660e+00 1.574600e+01 6.350000e+00
    endloop
  endfacet
  facet normal 0.000000e+00 0.000000e+00 -1.000000e+00
    outer loop
      vertex -1.000000e+01 -1.287300e+01 0.000000e+00
      vertex -1.000000e+01 -7.127000e+00 0.000000e+00
      vertex -8.000000e+00 -7.127000e+00 0.000000e+00
    endloop
  endfacet
  facet normal 0.000000e+00 1.000000e+00 0.000000e+00
    outer loop
      vertex -1.000000e+01 -7.127000e+00 6.350000e+00
      vertex -8.000000e+00 -7.127000e+00 0.000000e+00
      vertex -1.000000e+01 -7.127000e+00 0.000000e+00
    endloop
  endfacet
  facet normal 0.000000e+00 0.000000e+00 -1.000000e+00
    outer loop
      vertex -8.000000e+00 -1.287300e+01 0.000000e+00
      vertex -1.000000e+01 -1.287300e+01 0.000000e+00
      vertex -8.000000e+00 -7.127000e+00 0.000000e+00
    endloop
  endfacet
  facet normal 0.000000e+00 0.000000e+00 -1.000000e+00
    outer loop
      vertex -6.806660e+00 -4.254000e+00 0.000000e+00
      vertex -8.000000e+00 -1.287300e+01 0.000000e+00
      vertex -8.000000e+00 -7.127000e+00 0.000000e+00
    endloop
  endfacet
  facet normal 0.000000e+00 0.000000e+00 -1.000000e+00
    outer loop
      vertex -8.000000e+00 -4.254000e+00 0.000000e+00
      vertex -6.806660e+00 -4.254000e+00 0.000000e+00
      vertex -8.000000e+00 -7.127000e+00 0.000000e+00
    endloop
  endfacet
  facet normal -1.000000e+00 0.000000e+00 0.000000e+00
    outer loop
      vertex -8.000000e+00 -7.127000e+00 6.350000e+00
      vertex -8.000000e+00 -4.254000e+00 0.000000e+00
      vertex -8.000000e+00 -7.127000e+00 0.000000e+00
    endloop
  endfacet
  facet normal 0.000000e+00 1.000000e+00 0.000000e+00
    outer loop
      vertex -1.000000e+01 -7.127000e+00 6.350000e+00
      vertex -8.000000e+00 -7.127000e+00 6.350000e+00
      vertex -8.000000e+00 -7.127000e+00 0.000000e+00
    endloop
  endfacet
  facet normal 0.000000e+00 0.000000e+00 -1.000000e+00
    outer loop
      vertex -1.200000e+01 -1.287300e+01 0.000000e+00
      vertex -1.200000e+01 -7.127000e+00 0.000000e+00
      vertex -1.000000e+01 -7.127000e+00 0.000000e+00
    endloop
  endfacet
  facet normal 0.000000e+00 1.000000e+00 0.000000e+00
    outer loop
      vertex -1.200000e+01 -7.127000e+00 6.350000e+00
      vertex -1.000000e+01 -7.127000e+00 0.000000e+00
      vertex -1.200000e+01 -7.127000e+00 0.000000e+00
    endloop
  endfacet
  facet normal 0.000000e+00 0.000000e+00 -1.000000e+00
    outer loop
      vertex -1.000000e+01 -1.287300e+01 0.000000e+00
      vertex -1.200000e+01 -1.287300e+01 0.000000e+00
      vertex -1.000000e+01 -7.127000e+00 0.000000e+00
    endloop
  endfacet
  facet normal 0.000000e+00 1.000000e+00 0.000000e+00
    outer loop
      vertex -1.000000e+01 -7.127000e+00 6.350000e+00
      vertex -1.000000e+01 -7.127000e+00 0.000000e+00
      vertex -1.200000e+01 -7.127000e+00 6.350000e+00
    endloop
  endfacet
  facet normal 0.000000e+00 0.000000e+00 -1.000000e+00
    outer loop
      vertex -1.319334e+01 -1.574600e+01 0.000000e+00
      vertex -1.200000e+01 -4.254000e+00 0.000000e+00
      vertex -1.200000e+01 -7.127000e+00 0.000000e+00
    endloop
  endfacet
  facet normal 1.000000e+00 0.000000e+00 0.000000e+00
    outer loop
      vertex -1.200000e+01 -4.254000e+00 6.350000e+00
      vertex -1.200000e+01 -7.127000e+00 0.000000e+00
      vertex -1.200000e+01 -4.254000e+00 0.000000e+00
    endloop
  endfacet
  facet normal 0.000000e+00 0.000000e+00 -1.000000e+00
    outer loop
      vertex -1.200000e+01 -1.287300e+01 0.000000e+00
      vertex -1.319334e+01 -1.574600e+01 0.000000e+00
      vertex -1.200000e+01 -7.127000e+00 0.000000e+00
    endloop
  endfacet
  facet normal 1.000000e+00 0.000000e+00 0.000000e+00
    outer loop
      vertex -1.200000e+01 -7.127000e+00 6.350000e+00
      vertex -1.200000e+01 -7.127000e+00 0.000000e+00
      vertex -1.200000e+01 -4.254000e+00 6.350000e+00
    endloop
  endfacet
  facet normal 0.000000e+00 0.000000e+00 -1.000000e+00
    outer loop
      vertex -1.319334e+01 -1.574600e+01 0.000000e+00
      vertex -1.319334e+01 -4.254000e+00 0.000000e+00
      vertex -1.200000e+01 -4.254000e+00 0.000000e+00
    endloop
  endfacet
  facet normal 0.000000e+00 1.000000e+00 0.000000e+00
    outer loop
      vertex -1.319334e+01 -4.254000e+00 6.350000e+00
      vertex -1.200000e+01 -4.254000e+00 0.000000e+00
      vertex -1.319334e+01 -4.254000e+00 0.000000e+00
    endloop
  endfacet
  facet normal 0.000000e+00 1.000000e+00 0.000000e+00
    outer loop
      vertex -1.200000e+01 -4.254000e+00 6.350000e+00
      vertex -1.200000e+01 -4.254000e+00 0.000000e+00
      vertex -1.319334e+01 -4.254000e+00 6.350000e+00
    endloop
  endfacet
  facet normal 0.000000e+00 0.000000e+00 -1.000000e+00
    outer loop
      vertex -1.587300e+01 -1.306634e+01 0.000000e+00
      vertex -1.587300e+01 -6.933660e+00 0.000000e+00
      vertex -1.319334e+01 -4.254000e+00 0.000000e+00
    endloop
  endfacet
  facet normal -7.071068e-01 7.071068e-01 0.000000e+00
    outer loop
      vertex -1.587300e+01 -6.933660e+00 6.350000e+00
      vertex -1.319334e+01 -4.254000e+00 0.000000e+00
      vertex -1.587300e+01 -6.933660e+00 0.000000e+00
    endloop
  endfacet
  facet normal 0.000000e+00 0.000000e+00 -1.000000e+00
    outer loop
      vertex -1.319334e+01 -1.574600e+01 0.000000e+00
      vertex -1.587300e+01 -1.306634e+01 0.000000e+00
      vertex -1.319334e+01 -4.254000e+00 0.000000e+00
    endloop
  endfacet
  facet normal -7.071068e-01 7.071068e-01 0.000000e+00
    outer loop
      vertex -1.319334e+01 -4.254000e+00 6.350000e+00
      vertex -1.319334e+01 -4.254000e+00 0.000000e+00
      vertex -1.587300e+01 -6.933660e+00 6.350000e+00
    endloop
  endfacet
  facet normal -1.000000e+00 4.598261e-16 0.000000e+00
    outer loop
      vertex -1.587300e+01 -1.306634e+01 6.350000e+00
      vertex -1.587300e+01 -6.933660e+00 0.000000e+00
      vertex -1.587300e+01 -1.306634e+01 0.000000e+00
    endloop
  endfacet
  facet normal -1.000000e+00 4.598261e-16 0.000000e+00
    outer loop
      vertex -1.587300e+01 -6.933660e+00 6.350000e+00
      vertex -1.587300e+01 -6.933660e+00 0.000000e+00
      vertex -1.587300e+01 -1.306634e+01 6.350000e+00
    endloop
  endfacet
  facet normal -7.071068e-01 -7.071068e-01 -0.000000e+00
    outer loop
      vertex -1.319334e+01 -1.574600e+01 6.350000e+00
      vertex -1.587300e+01 -1.306634e+01 0.000000e+00
      vertex -1.319334e+01 -1.574600e+01 0.000000e+00
    endloop
  endfacet
  facet normal -7.071068e-01 -7.071068e-01 -0.000000e+00
    outer loop
      vertex -1.587300e+01 -1.306634e+01 6.350000e+00
      vertex -1.587300e+01 -1.306634e+01 0.000000e+00
      vertex -1.319334e+01 -1.574600e+01 6.350000e+00
    endloop
  endfacet
  facet normal 0.000000e+00 0.000000e+00 -1.000000e+00
    outer loop
      vertex -1.200000e+01 -1.287300e+01 0.000000e+00
      vertex -1.200000e+01 -1.574600e+01 0.000000e+00
      vertex -1.319334e+01 -1.574600e+01 0.000000e+00
    endloop
  endfacet
  facet normal 0.000000e+00 -1.000000e+00 0.000000e+00
    outer loop
      vertex -1.200000e+01 -1.574600e+01 6.350000e+00
      vertex -1.319334e+01 -1.574600e+01 0.000000e+00
      vertex -1.200000e+01 -1.574600e+01 0.000000e+00
    endloop
  endfacet
  facet normal 0.000000e+00 -1.000000e+00 0.000000e+00
    outer loop
      vertex -1.319334e+01 -1.574600e+01 6.350000e+00
      vertex -1.319334e+01 -1.574600e+01 0.000000e+00
      vertex -1.200000e+01 -1.574600e+01 6.350000e+00
    endloop
  endfacet
  facet normal 1.000000e+00 0.000000e+00 0.000000e+00
    outer loop
      vertex -1.200000e+01 -1.287300e+01 6.350000e+00
      vertex -1.200000e+01 -1.574600e+01 0.000000e+00
      vertex -1.200000e+01 -1.287300e+01 0.000000e+00
    endloop
  endfacet
  facet normal 1.000000e+00 0.000000e+00 0.000000e+00
    outer loop
      vertex -1.200000e+01 -1.574600e+01 6.350000e+00
      vertex -1.200000e+01 -1.574600e+01 0.000000e+00
      vertex -1.200000e+01 -1.287300e+01 6.350000e+00
    endloop
  endfacet
  facet normal 0.000000e+00 -1.000000e+00 0.000000e+00
    outer loop
      vertex -1.000000e+01 -1.287300e+01 6.350000e+00
      vertex -1.200000e+01 -1.287300e+01 0.000000e+00
      vertex -1.000000e+01 -1.287300e+01 0.000000e+00
    endloop
  endfacet
  facet normal 0.000000e+00 -1.000000e+00 0.000000e+00
    outer loop
      vertex -1.200000e+01 -1.287300e+01 6.350000e+00
      vertex -1.200000e+01 -1.287300e+01 0.000000e+00
      vertex -1.000000e+01 -1.287300e+01 6.350000e+00
    endloop
  endfacet
  facet normal 0.000000e+00 -1.000000e+00 0.000000e+00
    outer loop
      vertex -8.000000e+00 -1.287300e+01 6.350000e+00
      vertex -1.000000e+01 -1.287300e+01 0.000000e+00
      vertex -8.000000e+00 -1.287300e+01 0.000000e+00
    endloop
  endfacet
  facet normal 0.000000e+00 -1.000000e+00 0.000000e+00
    outer loop
      vertex -1.000000e+01 -1.287300e+01 6.350000e+00
      vertex -1.000000e+01 -1.287300e+01 0.000000e+00
      vertex -8.000000e+00 -1.287300e+01 6.350000e+00
    endloop
  endfacet
  facet normal 0.000000e+00 0.000000e+00 -1.000000e+00
    outer loop
      vertex -6.806660e+00 -4.254000e+00 0.000000e+00
      vertex -8.000000e+00 -1.574600e+01 0.000000e+00
      vertex -8.000000e+00 -1.287300e+01 0.000000e+00
    endloop
  endfacet
  facet normal -1.000000e+00 0.000000e+00 0.000000e+00
    outer loop
      vertex -8.000000e+00 -1.574600e+01 6.350000e+00
      vertex -8.000000e+00 -1.287300e+01 0.000000e+00
      vertex -8.000000e+00 -1.574600e+01 0.000000e+00
    endloop
  endfacet
  facet normal -1.000000e+00 -0.000000e+00 -0.000000e+00
    outer loop
      vertex -8.000000e+00 -1.287300e+01 6.350000e+00
      vertex -8.000000e+00 -1.287300e+01 0.000000e+00
      vertex -8.000000e+00 -1.574600e+01 6.350000e+00
    endloop
  endfacet
  facet normal 0.000000e+00 0.000000e+00 -1.000000e+00
    outer loop
      vertex -6.806660e+00 -4.254000e+00 0.000000e+00
      vertex -6.806660e+00 -1.574600e+01 0.000000e+00
      vertex -8.000000e+00 -1.574600e+01 0.000000e+00
    endloop
  endfacet
  facet normal 0.000000e+00 -1.000000e+00 0.000000e+00
    outer loop
      vertex -6.806660e+00 -1.574600e+01 6.350000e+00
      vertex -8.000000e+00 -1.574600e+01 0.000000e+00
      vertex -6.806660e+00 -1.574600e+01 0.000000e+00
    endloop
  endfacet
  facet normal 0.000000e+00 -1.000000e+00 0.000000e+00
    outer loop
      vertex -8.000000e+00 -1.574600e+01 6.350000e+00
      vertex -8.000000e+00 -1.574600e+01 0.000000e+00
      vertex -6.806660e+00 -1.574600e+01 6.350000e+00
    endloop
  endfacet
  facet normal 0.000000e+00 0.000000e+00 -1.000000e+00
    outer loop
      vertex -4.127000e+00 -6.933660e+00 0.000000e+00
      vertex -4.127000e+00 -1.306634e+01 0.000000e+00
      vertex -6.806660e+00 -1.574600e+01 0.000000e+00
    endloop
  endfacet
  facet normal 7.071068e-01 -7.071068e-01 0.000000e+00
    outer loop
      vertex -4.127000e+00 -1.306634e+01 6.350000e+00
      vertex -6.806660e+00 -1.574600e+01 0.000000e+00
      vertex -4.127000e+00 -1.306634e+01 0.000000e+00
    endloop
  endfacet
  facet normal 0.000000e+00 0.000000e+00 -1.000000e+00
    outer loop
      vertex -6.806660e+00 -4.254000e+00 0.000000e+00
      vertex -4.127000e+00 -6.933660e+00 0.000000e+00
      vertex -6.806660e+00 -1.574600e+01 0.000000e+00
    endloop
  endfacet
  facet normal 7.071068e-01 -7.071068e-01 0.000000e+00
    outer loop
      vertex -6.806660e+00 -1.574600e+01 6.350000e+00
      vertex -6.806660e+00 -1.574600e+01 0.000000e+00
      vertex -4.127000e+00 -1.306634e+01 6.350000e+00
    endloop
  endfacet
  facet normal 1.000000e+00 0.000000e+00 0.000000e+00
    outer loop
      vertex -4.127000e+00 -6.933660e+00 6.350000e+00
      vertex -4.127000e+00 -1.306634e+01 0.000000e+00
      vertex -4.127000e+00 -6.933660e+00 0.000000e+00
    endloop
  endfacet
  facet normal 1.000000e+00 0.000000e+00 0.000000e+00
    outer loop
      vertex -4.127000e+00 -1.306634e+01 6.350000e+00
      vertex -4.127000e+00 -1.306634e+01 0.000000e+00
      vertex -4.127000e+00 -6.933660e+00 6.350000e+00
    endloop
  endfacet
  facet normal 7.071068e-01 7.071068e-01 0.000000e+00
    outer loop
      vertex -6.806660e+00 -4.254000e+00 6.350000e+00
      vertex -4.127000e+00 -6.933660e+00 0.000000e+00
      vertex -6.806660e+00 -4.254000e+00 0.000000e+00
    endloop
  endfacet
  facet normal 7.071068e-01 7.071068e-01 0.000000e+00
    outer loop
      vertex -4.127000e+00 -6.933660e+00 6.350000e+00
      vertex -4.127000e+00 -6.933660e+00 0.000000e+00
      vertex -6.806660e+00 -4.254000e+00 6.350000e+00
    endloop
  endfacet
  facet normal 0.000000e+00 1.000000e+00 0.000000e+00
    outer loop
      vertex -8.000000e+00 -4.254000e+00 6.350000e+00
      vertex -6.806660e+00 -4.254000e+00 0.000000e+00
      vertex -8.000000e+00 -4.254000e+00 0.000000e+00
    endloop
  endfacet
  facet normal 0.000000e+00 1.000000e+00 0.000000e+00
    outer loop
      vertex -6.806660e+00 -4.254000e+00 6.350000e+00
      vertex -6.806660e+00 -4.254000e+00 0.000000e+00
      vertex -8.000000e+00 -4.254000e+00 6.350000e+00
    endloop
  endfacet
  facet normal -1.000000e+00 -0.000000e+00 -0.000000e+00
    outer loop
      vertex -8.000000e+00 -4.254000e+00 6.350000e+00
      vertex -8.000000e+00 -4.254000e+00 0.000000e+00
      vertex -8.000000e+00 -7.127000e+00 6.350000e+00
    endloop
  endfacet
  facet normal 0.000000e+00 0.000000e+00 1.000000e+00
    outer loop
      vertex -6.806660e+00 -1.574600e+01 6.350000e+00
      vertex -8.000000e+00 -4.254000e+00 6.350000e+00
      vertex -8.000000e+00 -7.127000e+00 6.350000e+00
    endloop
  endfacet
  facet normal 0.000000e+00 0.000000e+00 1.000000e+00
    outer loop
      vertex -8.000000e+00 -1.287300e+01 6.350000e+00
      vertex -6.806660e+00 -1.574600e+01 6.350000e+00
      vertex -8.000000e+00 -7.127000e+00 6.350000e+00
    endloop
  endfacet
  facet normal 0.000000e+00 0.000000e+00 1.000000e+00
    outer loop
      vertex -1.000000e+01 -7.127000e+00 6.350000e+00
      vertex -8.000000e+00 -1.287300e+01 6.350000e+00
      vertex -8.000000e+00 -7.127000e+00 6.350000e+00
    endloop
  endfacet
  facet normal 0.000000e+00 0.000000e+00 1.000000e+00
    outer loop
      vertex -6.806660e+00 -1.574600e+01 6.350000e+00
      vertex -6.806660e+00 -4.254000e+00 6.350000e+00
      vertex -8.000000e+00 -4.254000e+00 6.350000e+00
    endloop
  endfacet
  facet normal 0.000000e+00 0.000000e+00 1.000000e+00
    outer loop
      vertex -4.127000e+00 -1.306634e+01 6.350000e+00
      vertex -4.127000e+00 -6.933660e+00 6.350000e+00
      vertex -6.806660e+00 -4.254000e+00 6.350000e+00
    endloop
  endfacet
  facet normal 0.000000e+00 0.000000e+00 1.000000e+00
    outer loop
      vertex -6.806660e+00 -1.574600e+01 6.350000e+00
      vertex -4.127000e+00 -1.306634e+01 6.350000e+00
      vertex -6.806660e+00 -4.254000e+00 6.350000e+00
    endloop
  endfacet
  facet normal 0.000000e+00 0.000000e+00 1.000000e+00
    outer loop
      vertex -8.000000e+00 -1.287300e+01 6.350000e+00
      vertex -8.000000e+00 -1.574600e+01 6.350000e+00
      vertex -6.806660e+00 -1.574600e+01 6.350000e+00
    endloop
  endfacet
  facet normal 0.000000e+00 0.000000e+00 1.000000e+00
    outer loop
      vertex -1.000000e+01 -7.127000e+00 6.350000e+00
      vertex -1.000000e+01 -1.287300e+01 6.350000e+00
      vertex -8.000000e+00 -1.287300e+01 6.350000e+00
    endloop
  endfacet
  facet normal 0.000000e+00 0.000000e+00 1.000000e+00
    outer loop
      vertex -1.200000e+01 -7.127000e+00 6.350000e+00
      vertex -1.200000e+01 -1.287300e+01 6.350000e+00
      vertex -1.000000e+01 -1.287300e+01 6.350000e+00
    endloop
  endfacet
  facet normal 0.000000e+00 0.000000e+00 1.000000e+00
    outer loop
      vertex -1.000000e+01 -7.127000e+00 6.350000e+00
      vertex -1.200000e+01 -7.127000e+00 6.350000e+00
      vertex -1.000000e+01 -1.287300e+01 6.350000e+00
    endloop
  endfacet
  facet normal 0.000000e+00 0.000000e+00 1.000000e+00
    outer loop
      vertex -1.319334e+01 -4.254000e+00 6.350000e+00
      vertex -1.200000e+01 -1.574600e+01 6.350000e+00
      vertex -1.200000e+01 -1.287300e+01 6.350000e+00
    endloop
  endfacet
  facet normal 0.000000e+00 0.000000e+00 1.000000e+00
    outer loop
      vertex -1.200000e+01 -7.127000e+00 6.350000e+00
      vertex -1.319334e+01 -4.254000e+00 6.350000e+00
      vertex -1.200000e+01 -1.287300e+01 6.350000e+00
    endloop
  endfacet
  facet normal 0.000000e+00 0.000000e+00 1.000000e+00
    outer loop
      vertex -1.319334e+01 -4.254000e+00 6.350000e+00
      vertex -1.319334e+01 -1.574600e+01 6.350000e+00
      vertex -1.200000e+01 -1.574600e+01 6.350000e+00
    endloop
  endfacet
  facet normal 0.000000e+00 0.000000e+00 1.000000e+00
    outer loop
      vertex -1.587300e+01 -6.933660e+00 6.350000e+00
      vertex -1.587300e+01 -1.306634e+01 6.350000e+00
      vertex -1.319334e+01 -1.574600e+01 6.350000e+00
    endloop
  endfacet
  facet normal 0.000000e+00 0.000000e+00 1.000000e+00
    outer loop
      vertex -1.319334e+01 -4.254000e+00 6.350000e+00
      vertex -1.587300e+01 -6.933660e+00 6.350000e+00
      vertex -1.319334e+01 -1.574600e+01 6.350000e+00
    endloop
  endfacet
  facet normal 0.000000e+00 0.000000e+00 1.000000e+00
    outer loop
      vertex -1.200000e+01 -7.127000e+00 6.350000e+00
      vertex -1.200000e+01 -4.254000e+00 6.350000e+00
      vertex -1.319334e+01 -4.254000e+00 6.350000e+00
    endloop
  endfacet
  facet normal 0.000000e+00 0.000000e+00 -1.000000e+00
    outer loop
      vertex 1.000000e+01 -1.287300e+01 0.000000e+00
      vertex 1.000000e+01 -7.127000e+00 0.000000e+00
      vertex 1.200000e+01 -7.127000e+00 0.000000e+00
    endloop
  endfacet
  facet normal 0.000000e+00 1.000000e+00 0.000000e+00
    outer loop
      vertex 1.000000e+01 -7.127000e+00 6.350000e+00
      vertex 1.200000e+01 -7.127000e+00 0.000000e+00
      vertex 1.000000e+01 -7.127000e+00 0.000000e+00
    endloop
  endfacet
  facet normal 0.000000e+00 0.000000e+00 -1.000000e+00
    outer loop
      vertex 1.200000e+01 -1.287300e+01 0.000000e+00
      vertex 1.000000e+01 -1.287300e+01 0.000000e+00
      vertex 1.200000e+01 -7.127000e+00 0.000000e+00
    endloop
  endfacet
  facet normal 0.000000e+00 0.000000e+00 -1.000000e+00
    outer loop
      vertex 1.319334e+01 -4.254000e+00 0.000000e+00
      vertex 1.200000e+01 -1.287300e+01 0.000000e+00
      vertex 1.200000e+01 -7.127000e+00 0.000000e+00
    endloop
  endfacet
  facet normal 0.000000e+00 0.000000e+00 -1.000000e+00
    outer loop
      vertex 1.200000e+01 -4.254000e+00 0.000000e+00
      vertex 1.319334e+01 -4.254000e+00 0.000000e+00
      vertex 1.200000e+01 -7.127000e+00 0.000000e+00
    endloop
  endfacet
  facet normal -1.000000e+00 0.000000e+00 0.000000e+00
    outer loop
      vertex 1.200000e+01 -7.127000e+00 6.350000e+00
      vertex 1.200000e+01 -4.254000e+00 0.000000e+00
      vertex 1.200000e+01 -7.127000e+00 0.000000e+00
    endloop
  endfacet
  facet normal 0.000000e+00 1.000000e+00 0.000000e+00
    outer loop
      vertex 1.000000e+01 -7.127000e+00 6.350000e+00
      vertex 1.200000e+01 -7.127000e+00 6.350000e+00
      vertex 1.200000e+01 -7.127000e+00 0.000000e+00
    endloop
  endfacet
  facet normal 0.000000e+00 0.000000e+00 -1.000000e+00
    outer loop
      vertex 8.000000e+00 -1.287300e+01 0.000000e+00
      vertex 8.000000e+00 -7.127000e+00 0.000000e+00
      vertex 1.000000e+01 -7.127000e+00 0.000000e+00
    endloop
  endfacet
  facet normal 0.000000e+00 1.000000e+00 0.000000e+00
    outer loop
      vertex 8.000000e+00 -7.127000e+00 6.350000e+00
      vertex 1.000000e+01 -7.127000e+00 0.000000e+00
      vertex 8.000000e+00 -7.127000e+00 0.000000e+00
    endloop
  endfacet
  facet normal 0.000000e+00 0.000000e+00 -1.000000e+00
    outer loop
      vertex 1.000000e+01 -1.287300e+01 0.000000e+00
      vertex 8.000000e+00 -1.287300e+01 0.000000e+00
      vertex 1.000000e+01 -7.127000e+00 0.000000e+00
    endloop
  endfacet
  facet normal 0.000000e+00 1.000000e+00 0.000000e+00
    outer loop
      vertex 1.000000e+01 -7.127000e+00 6.350000e+00
      vertex 1.000000e+01 -7.127000e+00 0.000000e+00
      vertex 8.000000e+00 -7.127000e+00 6.350000e+00
    endloop
  endfacet
  facet normal 0.000000e+00 0.000000e+00 -1.000000e+00
    outer loop
      vertex 6.806660e+00 -1.574600e+01 0.000000e+00
      vertex 8.000000e+00 -4.254000e+00 0.000000e+00
      vertex 8.000000e+00 -7.127000e+00 0.000000e+00
    endloop
  endfacet
  facet normal 1.000000e+00 0.000000e+00 0.000000e+00
    outer loop
      vertex 8.000000e+00 -4.254000e+00 6.350000e+00
      vertex 8.000000e+00 -7.127000e+00 0.000000e+00
      vertex 8.000000e+00 -4.254000e+00 0.000000e+00
    endloop
  endfacet
  facet normal 0.000000e+00 0.000000e+00 -1.000000e+00
    outer loop
      vertex 8.000000e+00 -1.287300e+01 0.000000e+00
      vertex 6.806660e+00 -1.574600e+01 0.000000e+00
      vertex 8.000000e+00 -7.127000e+00 0.000000e+00
    endloop
  endfacet
  facet normal 1.000000e+00 0.000000e+00 0.000000e+00
    outer loop
      vertex 8.000000e+00 -7.127000e+00 6.350000e+00
      vertex 8.000000e+00 -7.127000e+00 0.000000e+00
      vertex 8.000000e+00 -4.254000e+00 6.350000e+00
    endloop
  endfacet
  facet normal 0.000000e+00 0.000000e+00 -1.000000e+00
    outer loop
      vertex 6.806660e+00 -1.574600e+01 0.000000e+00
      vertex 6.806660e+00 -4.254000e+00 0.000000e+00
      vertex 8.000000e+00 -4.254000e+00 0.000000e+00
    endloop
  endfacet
  facet normal 0.000000e+00 1.000000e+00 0.000000e+00
    outer loop
      vertex 6.806660e+00 -4.254000e+00 6.350000e+00
      vertex 8.000000e+00 -4.254000e+00 0.000000e+00
      vertex 6.806660e+00 -4.254000e+00 0.000000e+00
    endloop
  endfacet
  facet normal 0.000000e+00 1.000000e+00 0.000000e+00
    outer loop
      vertex 8.000000e+00 -4.254000e+00 6.350000e+00
      vertex 8.000000e+00 -4.254000e+00 0.000000e+00
      vertex 6.806660e+00 -4.254000e+00 6.350000e+00
    endloop
  endfacet
  facet normal 0.000000e+00 0.000000e+00 -1.000000e+00
    outer loop
      vertex 4.127000e+00 -1.306634e+01 0.000000e+00
      vertex 4.127000e+00 -6.933660e+00 0.000000e+00
      vertex 6.806660e+00 -4.254000e+00 0.000000e+00
    endloop
  endfacet
  facet normal -7.071068e-01 7.071068e-01 0.000000e+00
    outer loop
      vertex 4.127000e+00 -6.933660e+00 6.350000e+00
      vertex 6.806660e+00 -4.254000e+00 0.000000e+00
      vertex 4.127000e+00 -6.933660e+00 0.000000e+00
    endloop
  endfacet
  facet normal 0.000000e+00 0.000000e+00 -1.000000e+00
    outer loop
      vertex 6.806660e+00 -1.574600e+01 0.000000e+00
      vertex 4.127000e+00 -1.306634e+01 0.000000e+00
      vertex 6.806660e+00 -4.254000e+00 0.000000e+00
    endloop
  endfacet
  facet normal -7.071068e-01 7.071068e-01 0.000000e+00
    outer loop
      vertex 6.806660e+00 -4.254000e+00 6.350000e+00
      vertex 6.806660e+00 -4.254000e+00 0.000000e+00
      vertex 4.127000e+00 -6.933660e+00 6.350000e+00
    endloop
  endfacet
  facet normal -1.000000e+00 4.598261e-16 0.000000e+00
    outer loop
      vertex 4.127000e+00 -1.306634e+01 6.350000e+00
      vertex 4.127000e+00 -6.933660e+00 0.000000e+00
      vertex 4.127000e+00 -1.306634e+01 0.000000e+00
    endloop
  endfacet
  facet normal -1.000000e+00 4.598261e-16 0.000000e+00
    outer loop
      vertex 4.127000e+00 -6.933660e+00 6.350000e+00
      vertex 4.127000e+00 -6.933660e+00 0.000000e+00
      vertex 4.127000e+00 -1.306634e+01 6.350000e+00
    endloop
  endfacet
  facet normal -7.071068e-01 -7.071068e-01 -0.000000e+00
    outer loop
      vertex 6.806660e+00 -1.574600e+01 6.350000e+00
      vertex 4.127000e+00 -1.306634e+01 0.000000e+00
      vertex 6.806660e+00 -1.574600e+01 0.000000e+00
    endloop
  endfacet
  facet normal -7.071068e-01 -7.071068e-01 -0.000000e+00
    outer loop
      vertex 4.127000e+00 -1.306634e+01 6.350000e+00
      vertex 4.127000e+00 -1.306634e+01 0.000000e+00
      vertex 6.806660e+00 -1.574600e+01 6.350000e+00
    endloop
  endfacet
  facet normal 0.000000e+00 0.000000e+00 -1.000000e+00
    outer loop
      vertex 8.000000e+00 -1.287300e+01 0.000000e+00
      vertex 8.000000e+00 -1.574600e+01 0.000000e+00
      vertex 6.806660e+00 -1.574600e+01 0.000000e+00
    endloop
  endfacet
  facet normal 0.000000e+00 -1.000000e+00 0.000000e+00
    outer loop
      vertex 8.000000e+00 -1.574600e+01 6.350000e+00
      vertex 6.806660e+00 -1.574600e+01 0.000000e+00
      vertex 8.000000e+00 -1.574600e+01 0.000000e+00
    endloop
  endfacet
  facet normal 0.000000e+00 -1.000000e+00 0.000000e+00
    outer loop
      vertex 6.806660e+00 -1.574600e+01 6.350000e+00
      vertex 6.806660e+00 -1.574600e+01 0.000000e+00
      vertex 8.000000e+00 -1.574600e+01 6.350000e+00
    endloop
  endfacet
  facet normal 1.000000e+00 0.000000e+00 0.000000e+00
    outer loop
      vertex 8.000000e+00 -1.287300e+01 6.350000e+00
      vertex 8.000000e+00 -1.574600e+01 0.000000e+00
      vertex 8.000000e+00 -1.287300e+01 0.000000e+00
    endloop
  endfacet
  facet normal 1.000000e+00 0.000000e+00 0.000000e+00
    outer loop
      vertex 8.000000e+00 -1.574600e+01 6.350000e+00
      vertex 8.000000e+00 -1.574600e+01 0.000000e+00
      vertex 8.000000e+00 -1.287300e+01 6.350000e+00
    endloop
  endfacet
  facet normal 0.000000e+00 -1.000000e+00 0.000000e+00
    outer loop
      vertex 1.000000e+01 -1.287300e+01 6.350000e+00
      vertex 8.000000e+00 -1.287300e+01 0.000000e+00
      vertex 1.000000e+01 -1.287300e+01 0.000000e+00
    endloop
  endfacet
  facet normal 0.000000e+00 -1.000000e+00 0.000000e+00
    outer loop
      vertex 8.000000e+00 -1.287300e+01 6.350000e+00
      vertex 8.000000e+00 -1.287300e+01 0.000000e+00
      vertex 1.000000e+01 -1.287300e+01 6.350000e+00
    endloop
  endfacet
  facet normal 0.000000e+00 -1.000000e+00 0.000000e+00
    outer loop
      vertex 1.200000e+01 -1.287300e+01 6.350000e+00
      vertex 1.000000e+01 -1.287300e+01 0.000000e+00
      vertex 1.200000e+01 -1.287300e+01 0.000000e+00
    endloop
  endfacet
  facet normal 0.000000e+00 -1.000000e+00 0.000000e+00
    outer loop
      vertex 1.000000e+01 -1.287300e+01 6.350000e+00
      vertex 1.000000e+01 -1.287300e+01 0.000000e+00
      vertex 1.200000e+01 -1.287300e+01 6.350000e+00
    endloop
  endfacet
  facet normal 0.000000e+00 0.000000e+00 -1.000000e+00
    outer loop
      vertex 1.319334e+01 -4.254000e+00 0.000000e+00
      vertex 1.200000e+01 -1.574600e+01 0.000000e+00
      vertex 1.200000e+01 -1.287300e+01 0.000000e+00
    endloop
  endfacet
  facet normal -1.000000e+00 0.000000e+00 0.000000e+00
    outer loop
      vertex 1.200000e+01 -1.574600e+01 6.350000e+00
      vertex 1.200000e+01 -1.287300e+01 0.000000e+00
      vertex 1.200000e+01 -1.574600e+01 0.000000e+00
    endloop
  endfacet
  facet normal -1.000000e+00 -0.000000e+00 -0.000000e+00
    outer loop
      vertex 1.200000e+01 -1.287300e+01 6.350000e+00
      vertex 1.200000e+01 -1.287300e+01 0.000000e+00
      vertex 1.200000e+01 -1.574600e+01 6.350000e+00
    endloop
  endfacet
  facet normal 0.000000e+00 0.000000e+00 -1.000000e+00
    outer loop
      vertex 1.319334e+01 -4.254000e+00 0.000000e+00
      vertex 1.319334e+01 -1.574600e+01 0.000000e+00
      vertex 1.200000e+01 -1.574600e+01 0.000000e+00
    endloop
  endfacet
  facet normal 0.000000e+00 -1.000000e+00 0.000000e+00
    outer loop
      vertex 1.319334e+01 -1.574600e+01 6.350000e+00
      vertex 1.200000e+01 -1.574600e+01 0.000000e+00
      vertex 1.319334e+01 -1.574600e+01 0.000000e+00
    endloop
  endfacet
  facet normal 0.000000e+00 -1.000000e+00 0.000000e+00
    outer loop
      vertex 1.200000e+01 -1.574600e+01 6.350000e+00
      vertex 1.200000e+01 -1.574600e+01 0.000000e+00
      vertex 1.319334e+01 -1.574600e+01 6.350000e+00
    endloop
  endfacet
  facet normal 0.000000e+00 0.000000e+00 -1.000000e+00
    outer loop
      vertex 1.587300e+01 -6.933660e+00 0.000000e+00
      vertex 1.587300e+01 -1.306634e+01 0.000000e+00
      vertex 1.319334e+01 -1.574600e+01 0.000000e+00
    endloop
  endfacet
  facet normal 7.071068e-01 -7.071068e-01 0.000000e+00
    outer loop
      vertex 1.587300e+01 -1.306634e+01 6.350000e+00
      vertex 1.319334e+01 -1.574600e+01 0.000000e+00
      vertex 1.587300e+01 -1.306634e+01 0.000000e+00
    endloop
  endfacet
  facet normal 0.000000e+00 0.000000e+00 -1.000000e+00
    outer loop
      vertex 1.319334e+01 -4.254000e+00 0.000000e+00
      vertex 1.587300e+01 -6.933660e+00 0.000000e+00
      vertex 1.319334e+01 -1.574600e+01 0.000000e+00
    endloop
  endfacet
  facet normal 7.071068e-01 -7.071068e-01 0.000000e+00
    outer loop
      vertex 1.319334e+01 -1.574600e+01 6.350000e+00
      vertex 1.319334e+01 -1.574600e+01 0.000000e+00
      vertex 1.587300e+01 -1.306634e+01 6.350000e+00
    endloop
  endfacet
  facet normal 1.000000e+00 0.000000e+00 0.000000e+00
    outer loop
      vertex 1.587300e+01 -6.933660e+00 6.350000e+00
      vertex 1.587300e+01 -1.306634e+01 0.000000e+00
      vertex 1.587300e+01 -6.933660e+00 0.000000e+00
    endloop
  endfacet
  facet normal 1.000000e+00 0.000000e+00 0.000000e+00
    outer loop
      vertex 1.587300e+01 -1.306634e+01 6.350000e+00
      vertex 1.587300e+01 -1.306634e+01 0.000000e+00
      vertex 1.587300e+01 -6.933660e+00 6.350000e+00
    endloop
  endfacet
  facet normal 7.071068e-01 7.071068e-01 0.000000e+00
    outer loop
      vertex 1.319334e+01 -4.254000e+00 6.350000e+00
      vertex 1.587300e+01 -6.933660e+00 0.000000e+00
      vertex 1.319334e+01 -4.254000e+00 0.000000e+00
    endloop
  endfacet
  facet normal 7.071068e-01 7.071068e-01 0.000000e+00
    outer loop
      vertex 1.587300e+01 -6.933660e+00 6.350000e+00
      vertex 1.587300e+01 -6.933660e+00 0.000000e+00
      vertex 1.319334e+01 -4.254000e+00 6.350000e+00
    endloop
  endfacet
  facet normal 0.000000e+00 1.000000e+00 0.000000e+00
    outer loop
      vertex 1.200000e+01 -4.254000e+00 6.350000e+00
      vertex 1.319334e+01 -4.254000e+00 0.000000e+00
      vertex 1.200000e+01 -4.254000e+00 0.000000e+00
    endloop
  endfacet
  facet normal 0.000000e+00 1.000000e+00 0.000000e+00
    outer loop
      vertex 1.319334e+01 -4.254000e+00 6.350000e+00
      vertex 1.319334e+01 -4.254000e+00 0.000000e+00
      vertex 1.200000e+01 -4.254000e+00 6.350000e+00
    endloop
  endfacet
  facet normal -1.000000e+00 -0.000000e+00 -0.000000e+00
    outer loop
      vertex 1.200000e+01 -4.254000e+00 6.350000e+00
      vertex 1.200000e+01 -4.254000e+00 0.000000e+00
      vertex 1.200000e+01 -7.127000e+00 6.350000e+00
    endloop
  endfacet
  facet normal 0.000000e+00 0.000000e+00 1.000000e+00
    outer loop
      vertex 1.319334e+01 -1.574600e+01 6.350000e+00
      vertex 1.200000e+01 -4.254000e+00 6.350000e+00
      vertex 1.200000e+01 -7.127000e+00 6.350000e+00
    endloop
  endfacet
  facet normal 0.000000e+00 0.000000e+00 1.000000e+00
    outer loop
      vertex 1.200000e+01 -1.287300e+01 6.350000e+00
      vertex 1.319334e+01 -1.574600e+01 6.350000e+00
      vertex 1.200000e+01 -7.127000e+00 6.350000e+00
    endloop
  endfacet
  facet normal 0.000000e+00 0.000000e+00 1.000000e+00
    outer loop
      vertex 1.000000e+01 -7.127000e+00 6.350000e+00
      vertex 1.200000e+01 -1.287300e+01 6.350000e+00
      vertex 1.200000e+01 -7.127000e+00 6.350000e+00
    endloop
  endfacet
  facet normal 0.000000e+00 0.000000e+00 1.000000e+00
    outer loop
      vertex 1.319334e+01 -1.574600e+01 6.350000e+00
      vertex 1.319334e+01 -4.254000e+00 6.350000e+00
      vertex 1.200000e+01 -4.254000e+00 6.350000e+00
    endloop
  endfacet
  facet normal 0.000000e+00 0.000000e+00 1.000000e+00
    outer loop
      vertex 1.587300e+01 -1.306634e+01 6.350000e+00
      vertex 1.587300e+01 -6.933660e+00 6.350000e+00
      vertex 1.319334e+01 -4.254000e+00 6.350000e+00
    endloop
  endfacet
  facet normal 0.000000e+00 0.000000e+00 1.000000e+00
    outer loop
      vertex 1.319334e+01 -1.574600e+01 6.350000e+00
      vertex 1.587300e+01 -1.306634e+01 6.350000e+00
      vertex 1.319334e+01 -4.254000e+00 6.350000e+00
    endloop
  endfacet
  facet normal 0.000000e+00 0.000000e+00 1.000000e+00
    outer loop
      vertex 1.200000e+01 -1.287300e+01 6.350000e+00
      vertex 1.200000e+01 -1.574600e+01 6.350000e+00
      vertex 1.319334e+01 -1.574600e+01 6.350000e+00
    endloop
  endfacet
  facet normal 0.000000e+00 0.000000e+00 1.000000e+00
    outer loop
      vertex 1.000000e+01 -7.127000e+00 6.350000e+00
      vertex 1.000000e+01 -1.287300e+01 6.350000e+00
      vertex 1.200000e+01 -1.287300e+01 6.350000e+00
    endloop
  endfacet
  facet normal 0.000000e+00 0.000000e+00 1.000000e+00
    outer loop
      vertex 8.000000e+00 -7.127000e+00 6.350000e+00
      vertex 8.000000e+00 -1.287300e+01 6.350000e+00
      vertex 1.000000e+01 -1.287300e+01 6.350000e+00
    endloop
  endfacet
  facet normal 0.000000e+00 0.000000e+00 1.000000e+00
    outer loop
      vertex 1.000000e+01 -7.127000e+00 6.350000e+00
      vertex 8.000000e+00 -7.127000e+00 6.350000e+00
      vertex 1.000000e+01 -1.287300e+01 6.350000e+00
    endloop
  endfacet
  facet normal 0.000000e+00 0.000000e+00 1.000000e+00
    outer loop
      vertex 6.806660e+00 -4.254000e+00 6.350000e+00
      vertex 8.000000e+00 -1.574600e+01 6.350000e+00
      vertex 8.000000e+00 -1.287300e+01 6.350000e+00
    endloop
  endfacet
  facet normal 0.000000e+00 0.000000e+00 1.000000e+00
    outer loop
      vertex 8.000000e+00 -7.127000e+00 6.350000e+00
      vertex 6.806660e+00 -4.254000e+00 6.350000e+00
      vertex 8.000000e+00 -1.287300e+01 6.350000e+00
    endloop
  endfacet
  facet normal 0.000000e+00 0.000000e+00 1.000000e+00
    outer loop
      vertex 6.806660e+00 -4.254000e+00 6.350000e+00
      vertex 6.806660e+00 -1.574600e+01 6.350000e+00
      vertex 8.000000e+00 -1.574600e+01 6.350000e+00
    endloop
  endfacet
  facet normal 0.000000e+00 0.000000e+00 1.000000e+00
    outer loop
      vertex 4.127000e+00 -6.933660e+00 6.350000e+00
      vertex 4.127000e+00 -1.306634e+01 6.350000e+00
      vertex 6.806660e+00 -1.574600e+01 6.350000e+00
    endloop
  endfacet
  facet normal 0.000000e+00 0.000000e+00 1.000000e+00
    outer loop
      vertex 6.806660e+00 -4.254000e+00 6.350000e+00
      vertex 4.127000e+00 -6.933660e+00 6.350000e+00
      vertex 6.806660e+00 -1.574600e+01 6.350000e+00
    endloop
  endfacet
  facet normal 0.000000e+00 0.000000e+00 1.000000e+00
    outer loop
      vertex 8.000000e+00 -7.127000e+00 6.350000e+00
      vertex 8.000000e+00 -4.254000e+00 6.350000e+00
      vertex 6.806660e+00 -4.254000e+00 6.350000e+00
    endloop
  endfacet
endsolid Default
