<?xml version="1.0" standalone="no"?>
<!DOCTYPE svg PUBLIC "-//W3C//DTD SVG 1.1//EN" "http://www.w3.org/Graphics/SVG/1.1/DTD/svg11.dtd">
<svg width="60" height="145" viewBox="0 -145 60 145" xmlns="http://www.w3.org/2000/svg" version="1.1">
<title>OpenSCAD Model</title>
<path d="
M 55.7744,-0.0921173 L 56.4069,-0.254517 L 57.014,-0.494904 L 57.5863,-0.809494 L 58.1146,-1.19333 L 58.5906,-1.64037
 L 59.0069,-2.14352 L 59.3568,-2.69489 L 59.6348,-3.28575 L 59.8366,-3.90681 L 59.959,-4.54828 L 60,-5.2
 L 60,-102.045 L 59.959,-102.697 L 59.8366,-103.338 L 59.6348,-103.959 L 59.3568,-104.55 L 37.559,-142.305
 L 37.2091,-142.856 L 36.7929,-143.36 L 36.3168,-143.807 L 35.7885,-144.19 L 35.2163,-144.505 L 34.6091,-144.745
 L 33.9766,-144.908 L 33.3287,-144.99 L 4.87349,-144.99 L 4.22562,-144.908 L 3.59311,-144.745 L 2.98595,-144.505
 L 2.41371,-144.19 L 1.88541,-143.807 L 1.40936,-143.36 L 0.993118,-142.856 L 0.643204,-142.305 L 0.365173,-141.714
 L 0.163376,-141.093 L 0.0410156,-140.452 L 0,-139.8 L 0,-5.2 L 0.0410156,-4.54828 L 0.163376,-3.90681
 L 0.365173,-3.28575 L 0.643204,-2.69489 L 0.993118,-2.14352 L 1.40936,-1.64037 L 1.88541,-1.19333 L 2.41371,-0.809494
 L 2.98595,-0.494904 L 3.59311,-0.254517 L 4.22562,-0.0921173 L 4.87349,-0.0102692 L 55.1265,-0.0102692 z
M 16.3367,-131.905 L 16.0128,-131.946 L 15.6965,-132.027 L 15.393,-132.147 L 15.1068,-132.305 L 14.8427,-132.497
 L 14.6047,-132.72 L 14.3965,-132.972 L 14.2216,-133.247 L 14.0826,-133.543 L 13.9817,-133.853 L 13.9205,-134.174
 L 13.9,-134.5 L 13.9205,-134.826 L 13.9817,-135.147 L 14.0826,-135.457 L 14.2216,-135.753 L 14.3965,-136.028
 L 14.6047,-136.28 L 14.8427,-136.503 L 15.1068,-136.695 L 15.393,-136.853 L 15.6965,-136.973 L 16.0128,-137.054
 L 16.3367,-137.095 L 16.6633,-137.095 L 16.9872,-137.054 L 17.3034,-136.973 L 17.607,-136.853 L 17.8931,-136.695
 L 18.1573,-136.503 L 18.3953,-136.28 L 18.6034,-136.028 L 18.7784,-135.753 L 18.9174,-135.457 L 19.0183,-135.147
 L 19.0795,-134.826 L 19.1,-134.5 L 19.0795,-134.174 L 19.0183,-133.853 L 18.9174,-133.543 L 18.7784,-133.247
 L 18.6034,-132.972 L 18.3953,-132.72 L 18.1573,-132.497 L 17.8931,-132.305 L 17.607,-132.147 L 17.3034,-132.027
 L 16.9872,-131.946 L 16.6633,-131.905 z
M 16.3367,-114.405 L 16.0128,-114.446 L 15.6965,-114.527 L 15.393,-114.647 L 15.1068,-114.805 L 14.8427,-114.997
 L 14.6047,-115.22 L 14.3965,-115.472 L 14.2216,-115.747 L 14.0826,-116.043 L 13.9817,-116.353 L 13.9205,-116.674
 L 13.9,-117 L 13.9205,-117.326 L 13.9817,-117.647 L 14.0826,-117.957 L 14.2216,-118.253 L 14.3965,-118.528
 L 14.6047,-118.78 L 14.8427,-119.003 L 15.1068,-119.195 L 15.393,-119.353 L 15.6965,-119.473 L 16.0128,-119.554
 L 16.3367,-119.595 L 16.6633,-119.595 L 16.9872,-119.554 L 17.3034,-119.473 L 17.607,-119.353 L 17.8931,-119.195
 L 18.1573,-119.003 L 18.3953,-118.78 L 18.6034,-118.528 L 18.7784,-118.253 L 18.9174,-117.957 L 19.0183,-117.647
 L 19.0795,-117.326 L 19.1,-117 L 19.0795,-116.674 L 19.0183,-116.353 L 18.9174,-116.043 L 18.7784,-115.747
 L 18.6034,-115.472 L 18.3953,-115.22 L 18.1573,-114.997 L 17.8931,-114.805 L 17.607,-114.647 L 17.3034,-114.527
 L 16.9872,-114.446 L 16.6633,-114.405 z
M 16.3367,-94.4051 L 16.0128,-94.446 L 15.6965,-94.5273 L 15.393,-94.6474 L 15.1068,-94.8047 L 14.8427,-94.9967
 L 14.6047,-95.2202 L 14.3965,-95.4718 L 14.2216,-95.7474 L 14.0826,-96.0429 L 13.9817,-96.3534 L 13.9205,-96.6741
 L 13.9,-97 L 13.9205,-97.3259 L 13.9817,-97.6466 L 14.0826,-97.9571 L 14.2216,-98.2525 L 14.3965,-98.5282
 L 14.6047,-98.7798 L 14.8427,-99.0033 L 15.1068,-99.1953 L 15.393,-99.3525 L 15.6965,-99.4727 L 16.0128,-99.5539
 L 16.3367,-99.5949 L 16.6633,-99.5949 L 16.9872,-99.5539 L 17.3034,-99.4727 L 17.607,-99.3525 L 17.8931,-99.1953
 L 18.1573,-99.0033 L 18.3953,-98.7798 L 18.6034,-98.5282 L 18.7784,-98.2525 L 18.9174,-97.9571 L 19.0183,-97.6466
 L 19.0795,-97.3259 L 19.1,-97 L 19.0795,-96.6741 L 19.0183,-96.3534 L 18.9174,-96.0429 L 18.7784,-95.7474
 L 18.6034,-95.4718 L 18.3953,-95.2202 L 18.1573,-94.9967 L 17.8931,-94.8047 L 17.607,-94.6474 L 17.3034,-94.5273
 L 16.9872,-94.446 L 16.6633,-94.4051 z
M 9.83673,-7.40512 L 9.5128,-7.44604 L 9.19655,-7.52725 L 8.89296,-7.64745 L 8.60684,-7.80473 L 8.3427,-7.99666
 L 8.10468,-8.22017 L 7.89655,-8.47176 L 7.72159,-8.74744 L 7.58258,-9.04286 L 7.48167,-9.35339 L 7.4205,-9.67413
 L 7.39999,-10 L 7.4205,-10.3259 L 7.48167,-10.6466 L 7.58258,-10.9571 L 7.72159,-11.2525 L 7.89655,-11.5282
 L 8.10468,-11.7798 L 8.3427,-12.0033 L 8.60684,-12.1953 L 8.89296,-12.3525 L 9.19655,-12.4727 L 9.5128,-12.5539
 L 9.83673,-12.5949 L 10.1633,-12.5949 L 10.4872,-12.5539 L 10.8034,-12.4727 L 11.107,-12.3525 L 11.3931,-12.1953
 L 11.6573,-12.0033 L 11.8953,-11.7798 L 12.1034,-11.5282 L 12.2784,-11.2525 L 12.4174,-10.9571 L 12.5183,-10.6466
 L 12.5795,-10.3259 L 12.6,-10 L 12.5795,-9.67413 L 12.5183,-9.35339 L 12.4174,-9.04286 L 12.2784,-8.74744
 L 12.1034,-8.47176 L 11.8953,-8.22017 L 11.6573,-7.99666 L 11.3931,-7.80473 L 11.107,-7.64745 L 10.8034,-7.52725
 L 10.4872,-7.44604 L 10.1633,-7.40512 z
M 49.8367,-7.40512 L 49.5128,-7.44604 L 49.1965,-7.52725 L 48.893,-7.64745 L 48.6068,-7.80473 L 48.3427,-7.99666
 L 48.1047,-8.22017 L 47.8965,-8.47176 L 47.7216,-8.74744 L 47.5826,-9.04286 L 47.4817,-9.35339 L 47.4205,-9.67413
 L 47.4,-10 L 47.4205,-10.3259 L 47.4817,-10.6466 L 47.5826,-10.9571 L 47.7216,-11.2525 L 47.8965,-11.5282
 L 48.1047,-11.7798 L 48.3427,-12.0033 L 48.6068,-12.1953 L 48.893,-12.3525 L 49.1965,-12.4727 L 49.5128,-12.5539
 L 49.8367,-12.5949 L 50.1633,-12.5949 L 50.4872,-12.5539 L 50.8034,-12.4727 L 51.107,-12.3525 L 51.3931,-12.1953
 L 51.6573,-12.0033 L 51.8953,-11.7798 L 52.1034,-11.5282 L 52.2784,-11.2525 L 52.4174,-10.9571 L 52.5183,-10.6466
 L 52.5795,-10.3259 L 52.6,-10 L 52.5795,-9.67413 L 52.5183,-9.35339 L 52.4174,-9.04286 L 52.2784,-8.74744
 L 52.1034,-8.47176 L 51.8953,-8.22017 L 51.6573,-7.99666 L 51.3931,-7.80473 L 51.107,-7.64745 L 50.8034,-7.52725
 L 50.4872,-7.44604 L 50.1633,-7.40512 z
" stroke="black" fill="lightgray" stroke-width="0.5"/></svg>
