solid OpenSCAD_Model
  facet normal -1 1.22461e-016 0
    outer loop
      vertex -3.99222e-015 -36.6 0
      vertex -3.99222e-015 -36.6 0.5
      vertex -3.67382e-016 -7 0
    endloop
  endfacet
  facet normal -1 1.22461e-016 0
    outer loop
      vertex -3.67382e-016 -7 0
      vertex -3.99222e-015 -36.6 0.5
      vertex -3.67382e-016 -7 0.5
    endloop
  endfacet
  facet normal -0.994522 -0.104528 0
    outer loop
      vertex -3.99222e-015 -36.6 0
      vertex 0.065557 -37.2237 0
      vertex -3.99222e-015 -36.6 0.5
    endloop
  endfacet
  facet normal -0.994522 -0.104528 0
    outer loop
      vertex -3.99222e-015 -36.6 0.5
      vertex 0.065557 -37.2237 0
      vertex 0.065557 -37.2237 0.565557
    endloop
  endfacet
  facet normal 0 0 -1
    outer loop
      vertex -3.99222e-015 -36.6 0
      vertex -3.67382e-016 -7 0
      vertex 0.065557 -37.2237 0
    endloop
  endfacet
  facet normal 0 0 -1
    outer loop
      vertex 0.065557 -37.2237 0
      vertex -3.67382e-016 -7 0
      vertex 0.065557 -6.37626 0
    endloop
  endfacet
  facet normal 0 0 -1
    outer loop
      vertex 0.065557 -37.2237 0
      vertex 0.065557 -6.37626 0
      vertex 0.259364 -5.77979 0
    endloop
  endfacet
  facet normal 0 0 -1
    outer loop
      vertex 0.065557 -37.2237 0
      vertex 0.259364 -5.77979 0
      vertex 0.572949 -5.23664 0
    endloop
  endfacet
  facet normal 0 0 -1
    outer loop
      vertex 0.065557 -37.2237 0
      vertex 0.572949 -5.23664 0
      vertex 0.992608 -4.77057 0
    endloop
  endfacet
  facet normal 0 0 -1
    outer loop
      vertex 0.065557 -37.2237 0
      vertex 0.992608 -4.77057 0
      vertex 1.5 -4.40192 0
    endloop
  endfacet
  facet normal 0 0 -1
    outer loop
      vertex 0.065557 -37.2237 0
      vertex 1.5 -4.40192 0
      vertex 2.07295 -4.14683 0
    endloop
  endfacet
  facet normal 0 0 -1
    outer loop
      vertex 0.065557 -37.2237 0
      vertex 2.07295 -4.14683 0
      vertex 2.68641 -4.01643 0
    endloop
  endfacet
  facet normal 0 0 -1
    outer loop
      vertex 0.065557 -37.2237 0
      vertex 2.68641 -4.01643 0
      vertex 55.1136 -4.01643 0
    endloop
  endfacet
  facet normal 0 0 -1
    outer loop
      vertex 0.065557 -37.2237 0
      vertex 55.1136 -4.01643 0
      vertex 55.7271 -4.14683 0
    endloop
  endfacet
  facet normal 0 0 -1
    outer loop
      vertex 0.065557 -37.2237 0
      vertex 55.7271 -4.14683 0
      vertex 56.3 -4.40192 0
    endloop
  endfacet
  facet normal 0 0 -1
    outer loop
      vertex 0.065557 -37.2237 0
      vertex 56.3 -4.40192 0
      vertex 56.8074 -4.77057 0
    endloop
  endfacet
  facet normal 0 0 -1
    outer loop
      vertex 0.065557 -37.2237 0
      vertex 56.8074 -4.77057 0
      vertex 57.2271 -5.23664 0
    endloop
  endfacet
  facet normal 0 0 -1
    outer loop
      vertex 0.065557 -37.2237 0
      vertex 57.2271 -5.23664 0
      vertex 57.5406 -5.77979 0
    endloop
  endfacet
  facet normal 0 0 -1
    outer loop
      vertex 0.065557 -37.2237 0
      vertex 57.5406 -5.77979 0
      vertex 57.7344 -6.37626 0
    endloop
  endfacet
  facet normal 0 0 -1
    outer loop
      vertex 0.065557 -37.2237 0
      vertex 57.7344 -6.37626 0
      vertex 57.8 -7 0
    endloop
  endfacet
  facet normal 0 0 -1
    outer loop
      vertex 0.065557 -37.2237 0
      vertex 57.8 -7 0
      vertex 57.8 -36.6 0
    endloop
  endfacet
  facet normal 0 0 -1
    outer loop
      vertex 0.065557 -37.2237 0
      vertex 57.8 -36.6 0
      vertex 57.7344 -37.2237 0
    endloop
  endfacet
  facet normal 0 0 -1
    outer loop
      vertex 0.065557 -37.2237 0
      vertex 57.7344 -37.2237 0
      vertex 57.5406 -37.8202 0
    endloop
  endfacet
  facet normal 0 0 -1
    outer loop
      vertex 0.065557 -37.2237 0
      vertex 57.5406 -37.8202 0
      vertex 57.2271 -38.3634 0
    endloop
  endfacet
  facet normal 0 0 -1
    outer loop
      vertex 0.065557 -37.2237 0
      vertex 57.2271 -38.3634 0
      vertex 56.8074 -38.8294 0
    endloop
  endfacet
  facet normal 0 0 -1
    outer loop
      vertex 0.065557 -37.2237 0
      vertex 56.8074 -38.8294 0
      vertex 56.3 -39.1981 0
    endloop
  endfacet
  facet normal 0 0 -1
    outer loop
      vertex 0.065557 -37.2237 0
      vertex 56.3 -39.1981 0
      vertex 55.7271 -39.4532 0
    endloop
  endfacet
  facet normal 0 0 -1
    outer loop
      vertex 0.065557 -37.2237 0
      vertex 55.7271 -39.4532 0
      vertex 55.1136 -39.5836 0
    endloop
  endfacet
  facet normal 0 0 -1
    outer loop
      vertex 0.065557 -37.2237 0
      vertex 55.1136 -39.5836 0
      vertex 2.68641 -39.5836 0
    endloop
  endfacet
  facet normal 0 0 -1
    outer loop
      vertex 0.065557 -37.2237 0
      vertex 2.68641 -39.5836 0
      vertex 2.07295 -39.4532 0
    endloop
  endfacet
  facet normal 0 0 -1
    outer loop
      vertex 0.065557 -37.2237 0
      vertex 2.07295 -39.4532 0
      vertex 1.5 -39.1981 0
    endloop
  endfacet
  facet normal 0 0 -1
    outer loop
      vertex 0.065557 -37.2237 0
      vertex 1.5 -39.1981 0
      vertex 0.992608 -38.8294 0
    endloop
  endfacet
  facet normal 0 0 -1
    outer loop
      vertex 0.065557 -37.2237 0
      vertex 0.992608 -38.8294 0
      vertex 0.572949 -38.3634 0
    endloop
  endfacet
  facet normal 0 0 -1
    outer loop
      vertex 0.065557 -37.2237 0
      vertex 0.572949 -38.3634 0
      vertex 0.259364 -37.8202 0
    endloop
  endfacet
  facet normal -0.994522 0.104528 0
    outer loop
      vertex -3.67382e-016 -7 0
      vertex -3.67382e-016 -7 0.5
      vertex 0.065557 -6.37626 0
    endloop
  endfacet
  facet normal -0.994522 0.104528 0
    outer loop
      vertex 0.065557 -6.37626 0
      vertex -3.67382e-016 -7 0.5
      vertex 0.065557 -6.37626 0.565557
    endloop
  endfacet
  facet normal -0.707107 3.22107e-016 0.707107
    outer loop
      vertex 0.065557 -37.2237 0.565557
      vertex 0.259364 -37.8202 0.759364
      vertex 0.572949 -38.3634 1.07295
    endloop
  endfacet
  facet normal -0.707107 3.22107e-016 0.707107
    outer loop
      vertex 1.5 -38.1 2
      vertex 0.065557 -37.2237 0.565557
      vertex 0.887405 -38.7126 1.38741
    endloop
  endfacet
  facet normal -0.707107 3.22107e-016 0.707107
    outer loop
      vertex 0.887405 -38.7126 1.38741
      vertex 0.065557 -37.2237 0.565557
      vertex 0.572949 -38.3634 1.07295
    endloop
  endfacet
  facet normal -0.707107 3.22107e-016 0.707107
    outer loop
      vertex 1.5 -5.5 2
      vertex 0.065557 -37.2237 0.565557
      vertex 1.5 -38.1 2
    endloop
  endfacet
  facet normal -0.707107 3.22107e-016 0.707107
    outer loop
      vertex 0.887405 -4.88741 1.38741
      vertex 0.065557 -37.2237 0.565557
      vertex 1.5 -5.5 2
    endloop
  endfacet
  facet normal -0.707107 3.22107e-016 0.707107
    outer loop
      vertex 0.572949 -5.23664 1.07295
      vertex 0.065557 -37.2237 0.565557
      vertex 0.887405 -4.88741 1.38741
    endloop
  endfacet
  facet normal -0.707107 3.22107e-016 0.707107
    outer loop
      vertex 0.259364 -5.77979 0.759364
      vertex 0.065557 -37.2237 0.565557
      vertex 0.572949 -5.23664 1.07295
    endloop
  endfacet
  facet normal -0.707107 3.22107e-016 0.707107
    outer loop
      vertex 0.065557 -6.37626 0.565557
      vertex 0.065557 -37.2237 0.565557
      vertex 0.259364 -5.77979 0.759364
    endloop
  endfacet
  facet normal -0.707107 3.22107e-016 0.707107
    outer loop
      vertex -3.67382e-016 -7 0.5
      vertex 0.065557 -37.2237 0.565557
      vertex 0.065557 -6.37626 0.565557
    endloop
  endfacet
  facet normal -0.707107 3.22107e-016 0.707107
    outer loop
      vertex -3.99222e-015 -36.6 0.5
      vertex 0.065557 -37.2237 0.565557
      vertex -3.67382e-016 -7 0.5
    endloop
  endfacet
  facet normal -0.951056 -0.309018 0
    outer loop
      vertex 0.065557 -37.2237 0
      vertex 0.259364 -37.8202 0
      vertex 0.065557 -37.2237 0.565557
    endloop
  endfacet
  facet normal -0.951056 -0.309018 0
    outer loop
      vertex 0.065557 -37.2237 0.565557
      vertex 0.259364 -37.8202 0
      vertex 0.259364 -37.8202 0.759364
    endloop
  endfacet
  facet normal -0.866026 -0.499999 0
    outer loop
      vertex 0.259364 -37.8202 0
      vertex 0.572949 -38.3634 0
      vertex 0.259364 -37.8202 0.759364
    endloop
  endfacet
  facet normal -0.866026 -0.499999 0
    outer loop
      vertex 0.259364 -37.8202 0.759364
      vertex 0.572949 -38.3634 0
      vertex 0.572949 -38.3634 1.07295
    endloop
  endfacet
  facet normal -0.743144 -0.669131 0
    outer loop
      vertex 0.572949 -38.3634 0
      vertex 0.992608 -38.8294 0
      vertex 0.572949 -38.3634 1.07295
    endloop
  endfacet
  facet normal -0.743144 -0.669131 0
    outer loop
      vertex 0.572949 -38.3634 1.07295
      vertex 0.992608 -38.8294 0
      vertex 0.992608 -38.8294 1.27057
    endloop
  endfacet
  facet normal -0.743144 -0.669131 0
    outer loop
      vertex 0.572949 -38.3634 1.07295
      vertex 0.992608 -38.8294 1.27057
      vertex 0.887405 -38.7126 1.38741
    endloop
  endfacet
  facet normal -0.587785 -0.809017 0
    outer loop
      vertex 0.992608 -38.8294 1.27057
      vertex 0.992608 -38.8294 0
      vertex 1.5 -39.1981 0
    endloop
  endfacet
  facet normal -0.587785 -0.809017 0
    outer loop
      vertex 1.5 -39.1981 0.901924
      vertex 0.992608 -38.8294 1.27057
      vertex 1.5 -39.1981 0
    endloop
  endfacet
  facet normal -0.406738 -0.913545 0
    outer loop
      vertex 1.5 -39.1981 0.901924
      vertex 1.5 -39.1981 0
      vertex 2.07295 -39.4532 0
    endloop
  endfacet
  facet normal -0.406738 -0.913545 0
    outer loop
      vertex 2.07295 -39.4532 0.64683
      vertex 1.5 -39.1981 0.901924
      vertex 2.07295 -39.4532 0
    endloop
  endfacet
  facet normal -0.207911 -0.978148 0
    outer loop
      vertex 2.07295 -39.4532 0.64683
      vertex 2.07295 -39.4532 0
      vertex 2.68641 -39.5836 0
    endloop
  endfacet
  facet normal -0.207911 -0.978148 0
    outer loop
      vertex 2.68641 -39.5836 0.516434
      vertex 2.07295 -39.4532 0.64683
      vertex 2.68641 -39.5836 0
    endloop
  endfacet
  facet normal -1.22461e-016 -1 0
    outer loop
      vertex 2.68641 -39.5836 0.516434
      vertex 2.68641 -39.5836 0
      vertex 55.1136 -39.5836 0
    endloop
  endfacet
  facet normal -1.22461e-016 -1 0
    outer loop
      vertex 55.1136 -39.5836 0.516434
      vertex 2.68641 -39.5836 0.516434
      vertex 55.1136 -39.5836 0
    endloop
  endfacet
  facet normal 0.207911 -0.978148 0
    outer loop
      vertex 55.1136 -39.5836 0.516434
      vertex 55.1136 -39.5836 0
      vertex 55.7271 -39.4532 0
    endloop
  endfacet
  facet normal 0.207911 -0.978148 0
    outer loop
      vertex 55.7271 -39.4532 0.64683
      vertex 55.1136 -39.5836 0.516434
      vertex 55.7271 -39.4532 0
    endloop
  endfacet
  facet normal 0.406738 -0.913545 0
    outer loop
      vertex 55.7271 -39.4532 0.64683
      vertex 55.7271 -39.4532 0
      vertex 56.3 -39.1981 0
    endloop
  endfacet
  facet normal 0.406738 -0.913545 0
    outer loop
      vertex 56.3 -39.1981 0.901924
      vertex 55.7271 -39.4532 0.64683
      vertex 56.3 -39.1981 0
    endloop
  endfacet
  facet normal 0.587785 -0.809017 0
    outer loop
      vertex 56.3 -39.1981 0.901924
      vertex 56.3 -39.1981 0
      vertex 56.8074 -38.8294 0
    endloop
  endfacet
  facet normal 0.587785 -0.809017 0
    outer loop
      vertex 56.8074 -38.8294 1.27057
      vertex 56.3 -39.1981 0.901924
      vertex 56.8074 -38.8294 0
    endloop
  endfacet
  facet normal 0.743144 -0.669131 0
    outer loop
      vertex 56.8074 -38.8294 1.27057
      vertex 56.8074 -38.8294 0
      vertex 57.2271 -38.3634 0
    endloop
  endfacet
  facet normal 0.743144 -0.669131 0
    outer loop
      vertex 57.2271 -38.3634 1.73664
      vertex 56.8074 -38.8294 1.27057
      vertex 57.2271 -38.3634 0
    endloop
  endfacet
  facet normal 0.866026 -0.499999 0
    outer loop
      vertex 57.2271 -38.3634 1.73664
      vertex 57.2271 -38.3634 0
      vertex 57.5406 -37.8202 0
    endloop
  endfacet
  facet normal 0.866026 -0.499999 0
    outer loop
      vertex 57.3791 -38.1 2
      vertex 57.2271 -38.3634 1.73664
      vertex 57.5406 -37.8202 2
    endloop
  endfacet
  facet normal 0.866026 -0.499999 0
    outer loop
      vertex 57.5406 -37.8202 2
      vertex 57.2271 -38.3634 1.73664
      vertex 57.5406 -37.8202 0
    endloop
  endfacet
  facet normal 0.951056 -0.309018 0
    outer loop
      vertex 57.5406 -37.8202 2
      vertex 57.5406 -37.8202 0
      vertex 57.7344 -37.2237 0
    endloop
  endfacet
  facet normal 0.951056 -0.309018 0
    outer loop
      vertex 57.7344 -37.2237 2
      vertex 57.5406 -37.8202 2
      vertex 57.7344 -37.2237 0
    endloop
  endfacet
  facet normal 0.994522 -0.104528 0
    outer loop
      vertex 57.7344 -37.2237 2
      vertex 57.7344 -37.2237 0
      vertex 57.8 -36.6 0
    endloop
  endfacet
  facet normal 0.994522 -0.104528 0
    outer loop
      vertex 57.8 -36.6 2
      vertex 57.7344 -37.2237 2
      vertex 57.8 -36.6 0
    endloop
  endfacet
  facet normal 1 -1.22461e-016 0
    outer loop
      vertex 57.8 -36.6 2
      vertex 57.8 -36.6 0
      vertex 57.8 -7 0
    endloop
  endfacet
  facet normal 1 -1.22461e-016 0
    outer loop
      vertex 57.8 -7 2
      vertex 57.8 -36.6 2
      vertex 57.8 -7 0
    endloop
  endfacet
  facet normal 0.994522 0.104528 0
    outer loop
      vertex 57.8 -7 0
      vertex 57.7344 -6.37626 0
      vertex 57.7344 -6.37626 2
    endloop
  endfacet
  facet normal 0.994522 0.104528 0
    outer loop
      vertex 57.8 -7 2
      vertex 57.8 -7 0
      vertex 57.7344 -6.37626 2
    endloop
  endfacet
  facet normal 0.951056 0.309018 0
    outer loop
      vertex 57.7344 -6.37626 0
      vertex 57.5406 -5.77979 0
      vertex 57.5406 -5.77979 2
    endloop
  endfacet
  facet normal 0.951056 0.309018 0
    outer loop
      vertex 57.7344 -6.37626 2
      vertex 57.7344 -6.37626 0
      vertex 57.5406 -5.77979 2
    endloop
  endfacet
  facet normal 0.866026 0.499999 0
    outer loop
      vertex 57.5406 -5.77979 0
      vertex 57.2271 -5.23664 0
      vertex 57.2271 -5.23664 1.73664
    endloop
  endfacet
  facet normal 0.866026 0.499999 0
    outer loop
      vertex 57.5406 -5.77979 2
      vertex 57.5406 -5.77979 0
      vertex 57.3791 -5.5 2
    endloop
  endfacet
  facet normal 0.866026 0.499999 0
    outer loop
      vertex 57.3791 -5.5 2
      vertex 57.5406 -5.77979 0
      vertex 57.2271 -5.23664 1.73664
    endloop
  endfacet
  facet normal 0.743144 0.669131 0
    outer loop
      vertex 57.2271 -5.23664 0
      vertex 56.8074 -4.77057 0
      vertex 56.8074 -4.77057 1.27057
    endloop
  endfacet
  facet normal 0.743144 0.669131 0
    outer loop
      vertex 57.2271 -5.23664 1.73664
      vertex 57.2271 -5.23664 0
      vertex 56.8074 -4.77057 1.27057
    endloop
  endfacet
  facet normal 0.587785 0.809017 0
    outer loop
      vertex 56.3 -4.40192 0
      vertex 56.3 -4.40192 0.901924
      vertex 56.8074 -4.77057 0
    endloop
  endfacet
  facet normal 0.587785 0.809017 0
    outer loop
      vertex 56.8074 -4.77057 0
      vertex 56.3 -4.40192 0.901924
      vertex 56.8074 -4.77057 1.27057
    endloop
  endfacet
  facet normal 0.406738 0.913545 0
    outer loop
      vertex 55.7271 -4.14683 0
      vertex 55.7271 -4.14683 0.64683
      vertex 56.3 -4.40192 0
    endloop
  endfacet
  facet normal 0.406738 0.913545 0
    outer loop
      vertex 56.3 -4.40192 0
      vertex 55.7271 -4.14683 0.64683
      vertex 56.3 -4.40192 0.901924
    endloop
  endfacet
  facet normal 0.207911 0.978148 0
    outer loop
      vertex 55.1136 -4.01643 0
      vertex 55.1136 -4.01643 0.516434
      vertex 55.7271 -4.14683 0
    endloop
  endfacet
  facet normal 0.207911 0.978148 0
    outer loop
      vertex 55.7271 -4.14683 0
      vertex 55.1136 -4.01643 0.516434
      vertex 55.7271 -4.14683 0.64683
    endloop
  endfacet
  facet normal 1.22461e-016 1 0
    outer loop
      vertex 2.68641 -4.01643 0
      vertex 2.68641 -4.01643 0.516434
      vertex 55.1136 -4.01643 0
    endloop
  endfacet
  facet normal 1.22461e-016 1 0
    outer loop
      vertex 55.1136 -4.01643 0
      vertex 2.68641 -4.01643 0.516434
      vertex 55.1136 -4.01643 0.516434
    endloop
  endfacet
  facet normal -0.207911 0.978148 0
    outer loop
      vertex 2.07295 -4.14683 0
      vertex 2.07295 -4.14683 0.64683
      vertex 2.68641 -4.01643 0
    endloop
  endfacet
  facet normal -0.207911 0.978148 0
    outer loop
      vertex 2.68641 -4.01643 0
      vertex 2.07295 -4.14683 0.64683
      vertex 2.68641 -4.01643 0.516434
    endloop
  endfacet
  facet normal -0.406738 0.913545 0
    outer loop
      vertex 1.5 -4.40192 0
      vertex 1.5 -4.40192 0.901924
      vertex 2.07295 -4.14683 0
    endloop
  endfacet
  facet normal -0.406738 0.913545 0
    outer loop
      vertex 2.07295 -4.14683 0
      vertex 1.5 -4.40192 0.901924
      vertex 2.07295 -4.14683 0.64683
    endloop
  endfacet
  facet normal -0.587785 0.809017 0
    outer loop
      vertex 0.992608 -4.77057 0
      vertex 0.992608 -4.77057 1.27057
      vertex 1.5 -4.40192 0
    endloop
  endfacet
  facet normal -0.587785 0.809017 0
    outer loop
      vertex 1.5 -4.40192 0
      vertex 0.992608 -4.77057 1.27057
      vertex 1.5 -4.40192 0.901924
    endloop
  endfacet
  facet normal -0.743144 0.669131 0
    outer loop
      vertex 0.572949 -5.23664 0
      vertex 0.572949 -5.23664 1.07295
      vertex 0.992608 -4.77057 0
    endloop
  endfacet
  facet normal -0.743144 0.669131 0
    outer loop
      vertex 0.992608 -4.77057 0
      vertex 0.572949 -5.23664 1.07295
      vertex 0.887405 -4.88741 1.38741
    endloop
  endfacet
  facet normal -0.743144 0.669131 0
    outer loop
      vertex 0.992608 -4.77057 0
      vertex 0.887405 -4.88741 1.38741
      vertex 0.992608 -4.77057 1.27057
    endloop
  endfacet
  facet normal -0.866026 0.499999 0
    outer loop
      vertex 0.259364 -5.77979 0
      vertex 0.259364 -5.77979 0.759364
      vertex 0.572949 -5.23664 0
    endloop
  endfacet
  facet normal -0.866026 0.499999 0
    outer loop
      vertex 0.572949 -5.23664 0
      vertex 0.259364 -5.77979 0.759364
      vertex 0.572949 -5.23664 1.07295
    endloop
  endfacet
  facet normal -0.951056 0.309018 0
    outer loop
      vertex 0.065557 -6.37626 0
      vertex 0.065557 -6.37626 0.565557
      vertex 0.259364 -5.77979 0
    endloop
  endfacet
  facet normal -0.951056 0.309018 0
    outer loop
      vertex 0.259364 -5.77979 0
      vertex 0.065557 -6.37626 0.565557
      vertex 0.259364 -5.77979 0.759364
    endloop
  endfacet
  facet normal 8.65927e-017 0.707107 0.707107
    outer loop
      vertex 57.3791 -5.5 2
      vertex 57.2271 -5.23664 1.73664
      vertex 1.5 -5.5 2
    endloop
  endfacet
  facet normal 8.65927e-017 0.707107 0.707107
    outer loop
      vertex 1.5 -5.5 2
      vertex 57.2271 -5.23664 1.73664
      vertex 56.8074 -4.77057 1.27057
    endloop
  endfacet
  facet normal 8.65927e-017 0.707107 0.707107
    outer loop
      vertex 1.5 -5.5 2
      vertex 56.8074 -4.77057 1.27057
      vertex 56.3 -4.40192 0.901924
    endloop
  endfacet
  facet normal 8.65927e-017 0.707107 0.707107
    outer loop
      vertex 1.5 -5.5 2
      vertex 56.3 -4.40192 0.901924
      vertex 55.7271 -4.14683 0.64683
    endloop
  endfacet
  facet normal 8.65927e-017 0.707107 0.707107
    outer loop
      vertex 1.5 -5.5 2
      vertex 55.7271 -4.14683 0.64683
      vertex 55.1136 -4.01643 0.516434
    endloop
  endfacet
  facet normal 8.65927e-017 0.707107 0.707107
    outer loop
      vertex 1.5 -5.5 2
      vertex 55.1136 -4.01643 0.516434
      vertex 2.68641 -4.01643 0.516434
    endloop
  endfacet
  facet normal 8.65927e-017 0.707107 0.707107
    outer loop
      vertex 1.5 -5.5 2
      vertex 2.68641 -4.01643 0.516434
      vertex 2.07295 -4.14683 0.64683
    endloop
  endfacet
  facet normal 8.65927e-017 0.707107 0.707107
    outer loop
      vertex 1.5 -5.5 2
      vertex 2.07295 -4.14683 0.64683
      vertex 1.5 -4.40192 0.901924
    endloop
  endfacet
  facet normal 8.65927e-017 0.707107 0.707107
    outer loop
      vertex 1.5 -5.5 2
      vertex 1.5 -4.40192 0.901924
      vertex 0.992608 -4.77057 1.27057
    endloop
  endfacet
  facet normal 8.65927e-017 0.707107 0.707107
    outer loop
      vertex 1.5 -5.5 2
      vertex 0.992608 -4.77057 1.27057
      vertex 0.887405 -4.88741 1.38741
    endloop
  endfacet
  facet normal 0 0 1
    outer loop
      vertex 1.5 -5.5 2
      vertex 1.5 -38.1 2
      vertex 57.3791 -38.1 2
    endloop
  endfacet
  facet normal 0 0 1
    outer loop
      vertex 57.7344 -37.2237 2
      vertex 1.5 -5.5 2
      vertex 57.5406 -37.8202 2
    endloop
  endfacet
  facet normal 0 0 1
    outer loop
      vertex 57.5406 -37.8202 2
      vertex 1.5 -5.5 2
      vertex 57.3791 -38.1 2
    endloop
  endfacet
  facet normal 0 0 1
    outer loop
      vertex 57.8 -36.6 2
      vertex 1.5 -5.5 2
      vertex 57.7344 -37.2237 2
    endloop
  endfacet
  facet normal 0 0 1
    outer loop
      vertex 50.8055 -22.4272 2
      vertex 1.5 -5.5 2
      vertex 57.8 -36.6 2
    endloop
  endfacet
  facet normal 0 0 1
    outer loop
      vertex 57.7344 -6.37626 2
      vertex 1.5 -5.5 2
      vertex 57.8 -7 2
    endloop
  endfacet
  facet normal 0 0 1
    outer loop
      vertex 57.5406 -5.77979 2
      vertex 1.5 -5.5 2
      vertex 57.7344 -6.37626 2
    endloop
  endfacet
  facet normal 0 0 1
    outer loop
      vertex 57.3791 -5.5 2
      vertex 1.5 -5.5 2
      vertex 57.5406 -5.77979 2
    endloop
  endfacet
  facet normal 0 0 1
    outer loop
      vertex 51.6495 -23.6541 2
      vertex 50.8055 -22.4272 2
      vertex 57.8 -36.6 2
    endloop
  endfacet
  facet normal 0 0 1
    outer loop
      vertex 50.8055 -21.1728 2
      vertex 1.5 -5.5 2
      vertex 50.8055 -22.4272 2
    endloop
  endfacet
  facet normal 0 0 1
    outer loop
      vertex 57.8 -7 2
      vertex 1.5 -5.5 2
      vertex 50.8055 -21.1728 2
    endloop
  endfacet
  facet normal 0 0 1
    outer loop
      vertex 55.7997 -17.7537 2
      vertex 55.7997 -25.8463 2
      vertex 57.8 -36.6 2
    endloop
  endfacet
  facet normal 0 0 1
    outer loop
      vertex 57.8 -7 2
      vertex 50.8055 -21.1728 2
      vertex 51.6495 -19.9459 2
    endloop
  endfacet
  facet normal 0 0 1
    outer loop
      vertex 55.6864 -25.8148 2
      vertex 53.3005 -24.8 2
      vertex 57.8 -36.6 2
    endloop
  endfacet
  facet normal 0 0 1
    outer loop
      vertex 57.8 -7 2
      vertex 53.3005 -18.8 2
      vertex 55.6864 -17.7852 2
    endloop
  endfacet
  facet normal 0 0 1
    outer loop
      vertex 57.8 -7 2
      vertex 55.7997 -17.7537 2
      vertex 57.8 -36.6 2
    endloop
  endfacet
  facet normal 0 0 1
    outer loop
      vertex 57.8 -7 2
      vertex 55.6864 -17.7852 2
      vertex 55.7997 -17.7537 2
    endloop
  endfacet
  facet normal 0 0 1
    outer loop
      vertex 55.7997 -25.8463 2
      vertex 55.6864 -25.8148 2
      vertex 57.8 -36.6 2
    endloop
  endfacet
  facet normal 0 0 1
    outer loop
      vertex 53.3005 -24.8 2
      vertex 51.6495 -23.6541 2
      vertex 57.8 -36.6 2
    endloop
  endfacet
  facet normal 0 0 1
    outer loop
      vertex 51.6495 -19.9459 2
      vertex 53.3005 -18.8 2
      vertex 57.8 -7 2
    endloop
  endfacet
  facet normal -8.65927e-017 -0.707107 0.707107
    outer loop
      vertex 0.992608 -38.8294 1.27057
      vertex 1.5 -39.1981 0.901924
      vertex 2.07295 -39.4532 0.64683
    endloop
  endfacet
  facet normal -8.65927e-017 -0.707107 0.707107
    outer loop
      vertex 55.1136 -39.5836 0.516434
      vertex 0.992608 -38.8294 1.27057
      vertex 2.68641 -39.5836 0.516434
    endloop
  endfacet
  facet normal -8.65927e-017 -0.707107 0.707107
    outer loop
      vertex 2.68641 -39.5836 0.516434
      vertex 0.992608 -38.8294 1.27057
      vertex 2.07295 -39.4532 0.64683
    endloop
  endfacet
  facet normal -8.65927e-017 -0.707107 0.707107
    outer loop
      vertex 55.7271 -39.4532 0.64683
      vertex 0.992608 -38.8294 1.27057
      vertex 55.1136 -39.5836 0.516434
    endloop
  endfacet
  facet normal -8.65927e-017 -0.707107 0.707107
    outer loop
      vertex 56.3 -39.1981 0.901924
      vertex 0.992608 -38.8294 1.27057
      vertex 55.7271 -39.4532 0.64683
    endloop
  endfacet
  facet normal -8.65927e-017 -0.707107 0.707107
    outer loop
      vertex 56.8074 -38.8294 1.27057
      vertex 0.992608 -38.8294 1.27057
      vertex 56.3 -39.1981 0.901924
    endloop
  endfacet
  facet normal -8.65927e-017 -0.707107 0.707107
    outer loop
      vertex 57.2271 -38.3634 1.73664
      vertex 0.992608 -38.8294 1.27057
      vertex 56.8074 -38.8294 1.27057
    endloop
  endfacet
  facet normal -8.65927e-017 -0.707107 0.707107
    outer loop
      vertex 57.3791 -38.1 2
      vertex 0.992608 -38.8294 1.27057
      vertex 57.2271 -38.3634 1.73664
    endloop
  endfacet
  facet normal -8.65927e-017 -0.707107 0.707107
    outer loop
      vertex 1.5 -38.1 2
      vertex 0.992608 -38.8294 1.27057
      vertex 57.3791 -38.1 2
    endloop
  endfacet
  facet normal -8.65927e-017 -0.707107 0.707107
    outer loop
      vertex 0.887405 -38.7126 1.38741
      vertex 0.992608 -38.8294 1.27057
      vertex 1.5 -38.1 2
    endloop
  endfacet
  facet normal 0.309017 -1.06458e-016 0.951057
    outer loop
      vertex 55.3228 -22.4272 0.53226
      vertex 55.3228 -21.1728 0.53226
      vertex 50.8055 -21.1728 2
    endloop
  endfacet
  facet normal 0.309017 -1.06458e-016 0.951057
    outer loop
      vertex 50.8055 -22.4272 2
      vertex 55.3228 -22.4272 0.53226
      vertex 50.8055 -21.1728 2
    endloop
  endfacet
  facet normal 0.302264 0.207912 0.930274
    outer loop
      vertex 51.6495 -23.6541 2
      vertex 55.4034 -23.6541 0.780288
      vertex 55.3228 -22.4272 0.53226
    endloop
  endfacet
  facet normal 0.302264 0.207912 0.930274
    outer loop
      vertex 50.8055 -22.4272 2
      vertex 51.6495 -23.6541 2
      vertex 55.3228 -22.4272 0.53226
    endloop
  endfacet
  facet normal 0.282301 0.406737 0.868833
    outer loop
      vertex 53.3005 -24.8 2
      vertex 55.561 -24.8 1.2655
      vertex 55.4034 -23.6541 0.780288
    endloop
  endfacet
  facet normal 0.282301 0.406737 0.868833
    outer loop
      vertex 51.6495 -23.6541 2
      vertex 53.3005 -24.8 2
      vertex 55.4034 -23.6541 0.780288
    endloop
  endfacet
  facet normal 0.25 0.587785 0.769421
    outer loop
      vertex 55.6864 -25.8148 2
      vertex 55.7889 -25.8148 1.9667
      vertex 55.561 -24.8 1.2655
    endloop
  endfacet
  facet normal 0.25 0.587785 0.769421
    outer loop
      vertex 53.3005 -24.8 2
      vertex 55.6864 -25.8148 2
      vertex 55.561 -24.8 1.2655
    endloop
  endfacet
  facet normal 0.206773 0.743145 0.636381
    outer loop
      vertex 55.7997 -25.8463 2
      vertex 55.7889 -25.8148 1.9667
      vertex 55.6864 -25.8148 2
    endloop
  endfacet
  facet normal -0.951057 3.27644e-016 0.309017
    outer loop
      vertex 55.561 -24.8 1.2655
      vertex 55.7889 -25.8148 1.9667
      vertex 55.4034 -23.6541 0.780288
    endloop
  endfacet
  facet normal -0.951057 3.27644e-016 0.309017
    outer loop
      vertex 55.4034 -23.6541 0.780288
      vertex 55.7889 -25.8148 1.9667
      vertex 55.7997 -25.8463 2
    endloop
  endfacet
  facet normal -0.951057 3.27644e-016 0.309017
    outer loop
      vertex 55.4034 -23.6541 0.780288
      vertex 55.7997 -25.8463 2
      vertex 55.7997 -17.7537 2
    endloop
  endfacet
  facet normal -0.951057 3.27644e-016 0.309017
    outer loop
      vertex 55.4034 -23.6541 0.780288
      vertex 55.7997 -17.7537 2
      vertex 55.7889 -17.7852 1.9667
    endloop
  endfacet
  facet normal -0.951057 3.27644e-016 0.309017
    outer loop
      vertex 55.4034 -23.6541 0.780288
      vertex 55.7889 -17.7852 1.9667
      vertex 55.561 -18.8 1.2655
    endloop
  endfacet
  facet normal -0.951057 3.27644e-016 0.309017
    outer loop
      vertex 55.4034 -23.6541 0.780288
      vertex 55.561 -18.8 1.2655
      vertex 55.4034 -19.9459 0.780288
    endloop
  endfacet
  facet normal -0.951057 3.27644e-016 0.309017
    outer loop
      vertex 55.4034 -23.6541 0.780288
      vertex 55.4034 -19.9459 0.780288
      vertex 55.3228 -21.1728 0.53226
    endloop
  endfacet
  facet normal -0.951057 3.27644e-016 0.309017
    outer loop
      vertex 55.4034 -23.6541 0.780288
      vertex 55.3228 -21.1728 0.53226
      vertex 55.3228 -22.4272 0.53226
    endloop
  endfacet
  facet normal 0.206773 -0.743145 0.636381
    outer loop
      vertex 55.7889 -17.7852 1.9667
      vertex 55.7997 -17.7537 2
      vertex 55.6864 -17.7852 2
    endloop
  endfacet
  facet normal 0.25 -0.587785 0.769421
    outer loop
      vertex 55.561 -18.8 1.2655
      vertex 55.7889 -17.7852 1.9667
      vertex 55.6864 -17.7852 2
    endloop
  endfacet
  facet normal 0.25 -0.587785 0.769421
    outer loop
      vertex 53.3005 -18.8 2
      vertex 55.561 -18.8 1.2655
      vertex 55.6864 -17.7852 2
    endloop
  endfacet
  facet normal 0.282301 -0.406737 0.868833
    outer loop
      vertex 55.4034 -19.9459 0.780288
      vertex 55.561 -18.8 1.2655
      vertex 53.3005 -18.8 2
    endloop
  endfacet
  facet normal 0.282301 -0.406737 0.868833
    outer loop
      vertex 51.6495 -19.9459 2
      vertex 55.4034 -19.9459 0.780288
      vertex 53.3005 -18.8 2
    endloop
  endfacet
  facet normal 0.302264 -0.207912 0.930274
    outer loop
      vertex 55.3228 -21.1728 0.53226
      vertex 55.4034 -19.9459 0.780288
      vertex 51.6495 -19.9459 2
    endloop
  endfacet
  facet normal 0.302264 -0.207912 0.930274
    outer loop
      vertex 50.8055 -21.1728 2
      vertex 55.3228 -21.1728 0.53226
      vertex 51.6495 -19.9459 2
    endloop
  endfacet
  facet normal 0 0 -1
    outer loop
      vertex 0 5 0
      vertex 0 35 0
      vertex 0.109262 3.96044 0
    endloop
  endfacet
  facet normal 0 0 -1
    outer loop
      vertex 0.109262 3.96044 0
      vertex 0 35 0
      vertex 0.109262 36.0396 0
    endloop
  endfacet
  facet normal 0 0 -1
    outer loop
      vertex 0.109262 3.96044 0
      vertex 0.109262 36.0396 0
      vertex 0.432273 37.0337 0
    endloop
  endfacet
  facet normal 0 0 -1
    outer loop
      vertex 0.109262 3.96044 0
      vertex 0.432273 37.0337 0
      vertex 0.954915 37.9389 0
    endloop
  endfacet
  facet normal 0 0 -1
    outer loop
      vertex 0.109262 3.96044 0
      vertex 0.954915 37.9389 0
      vertex 1.65435 38.7157 0
    endloop
  endfacet
  facet normal 0 0 -1
    outer loop
      vertex 0.109262 3.96044 0
      vertex 1.65435 38.7157 0
      vertex 2.5 39.3301 0
    endloop
  endfacet
  facet normal 0 0 -1
    outer loop
      vertex 0.109262 3.96044 0
      vertex 2.5 39.3301 0
      vertex 3.45492 39.7553 0
    endloop
  endfacet
  facet normal 0 0 -1
    outer loop
      vertex 0.109262 3.96044 0
      vertex 3.45492 39.7553 0
      vertex 4.47736 39.9726 0
    endloop
  endfacet
  facet normal 0 0 -1
    outer loop
      vertex 0.109262 3.96044 0
      vertex 4.47736 39.9726 0
      vertex 55.5226 39.9726 0
    endloop
  endfacet
  facet normal 0 0 -1
    outer loop
      vertex 0.109262 3.96044 0
      vertex 55.5226 39.9726 0
      vertex 56.5451 39.7553 0
    endloop
  endfacet
  facet normal 0 0 -1
    outer loop
      vertex 0.109262 3.96044 0
      vertex 56.5451 39.7553 0
      vertex 57.5 39.3301 0
    endloop
  endfacet
  facet normal 0 0 -1
    outer loop
      vertex 0.109262 3.96044 0
      vertex 57.5 39.3301 0
      vertex 58.3457 38.7157 0
    endloop
  endfacet
  facet normal 0 0 -1
    outer loop
      vertex 0.109262 3.96044 0
      vertex 58.3457 38.7157 0
      vertex 59.0451 37.9389 0
    endloop
  endfacet
  facet normal 0 0 -1
    outer loop
      vertex 0.109262 3.96044 0
      vertex 59.0451 37.9389 0
      vertex 59.5677 37.0337 0
    endloop
  endfacet
  facet normal 0 0 -1
    outer loop
      vertex 0.109262 3.96044 0
      vertex 59.5677 37.0337 0
      vertex 59.8907 36.0396 0
    endloop
  endfacet
  facet normal 0 0 -1
    outer loop
      vertex 0.109262 3.96044 0
      vertex 59.8907 36.0396 0
      vertex 60 35 0
    endloop
  endfacet
  facet normal 0 0 -1
    outer loop
      vertex 0.109262 3.96044 0
      vertex 60 35 0
      vertex 60 5 0
    endloop
  endfacet
  facet normal 0 0 -1
    outer loop
      vertex 0.109262 3.96044 0
      vertex 60 5 0
      vertex 59.8907 3.96044 0
    endloop
  endfacet
  facet normal 0 0 -1
    outer loop
      vertex 0.109262 3.96044 0
      vertex 59.8907 3.96044 0
      vertex 59.5677 2.96632 0
    endloop
  endfacet
  facet normal 0 0 -1
    outer loop
      vertex 0.109262 3.96044 0
      vertex 59.5677 2.96632 0
      vertex 59.0451 2.06107 0
    endloop
  endfacet
  facet normal 0 0 -1
    outer loop
      vertex 0.109262 3.96044 0
      vertex 59.0451 2.06107 0
      vertex 58.3457 1.28428 0
    endloop
  endfacet
  facet normal 0 0 -1
    outer loop
      vertex 0.109262 3.96044 0
      vertex 58.3457 1.28428 0
      vertex 57.5 0.669873 0
    endloop
  endfacet
  facet normal 0 0 -1
    outer loop
      vertex 0.109262 3.96044 0
      vertex 57.5 0.669873 0
      vertex 56.5451 0.244717 0
    endloop
  endfacet
  facet normal 0 0 -1
    outer loop
      vertex 0.109262 3.96044 0
      vertex 56.5451 0.244717 0
      vertex 55.5226 0.027391 0
    endloop
  endfacet
  facet normal 0 0 -1
    outer loop
      vertex 0.109262 3.96044 0
      vertex 55.5226 0.027391 0
      vertex 4.47736 0.027391 0
    endloop
  endfacet
  facet normal 0 0 -1
    outer loop
      vertex 0.109262 3.96044 0
      vertex 4.47736 0.027391 0
      vertex 3.45492 0.244717 0
    endloop
  endfacet
  facet normal 0 0 -1
    outer loop
      vertex 0.109262 3.96044 0
      vertex 3.45492 0.244717 0
      vertex 2.5 0.669873 0
    endloop
  endfacet
  facet normal 0 0 -1
    outer loop
      vertex 0.109262 3.96044 0
      vertex 2.5 0.669873 0
      vertex 1.65435 1.28428 0
    endloop
  endfacet
  facet normal 0 0 -1
    outer loop
      vertex 0.109262 3.96044 0
      vertex 1.65435 1.28428 0
      vertex 0.954915 2.06107 0
    endloop
  endfacet
  facet normal 0 0 -1
    outer loop
      vertex 0.109262 3.96044 0
      vertex 0.954915 2.06107 0
      vertex 0.432273 2.96632 0
    endloop
  endfacet
  facet normal -1 0 0
    outer loop
      vertex 0 5 0
      vertex 0 5 20
      vertex 0 35 0
    endloop
  endfacet
  facet normal -1 0 0
    outer loop
      vertex 0 35 0
      vertex 0 5 20
      vertex 0 35 20
    endloop
  endfacet
  facet normal -0.994522 -0.104529 0
    outer loop
      vertex 0 5 0
      vertex 0.109262 3.96044 0
      vertex 0 5 20
    endloop
  endfacet
  facet normal -0.994522 -0.104529 0
    outer loop
      vertex 0 5 20
      vertex 0.109262 3.96044 0
      vertex 0.109262 3.96044 20
    endloop
  endfacet
  facet normal -0.951056 -0.309017 0
    outer loop
      vertex 0.109262 3.96044 0
      vertex 0.432273 2.96632 0
      vertex 0.109262 3.96044 20
    endloop
  endfacet
  facet normal -0.951056 -0.309017 0
    outer loop
      vertex 0.109262 3.96044 20
      vertex 0.432273 2.96632 0
      vertex 0.432273 2.96632 20
    endloop
  endfacet
  facet normal -0.866026 -0.5 0
    outer loop
      vertex 0.432273 2.96632 0
      vertex 0.954915 2.06107 0
      vertex 0.432273 2.96632 20
    endloop
  endfacet
  facet normal -0.866026 -0.5 0
    outer loop
      vertex 0.432273 2.96632 20
      vertex 0.954915 2.06107 0
      vertex 0.954915 2.06107 20
    endloop
  endfacet
  facet normal -0.743145 -0.669131 0
    outer loop
      vertex 0.954915 2.06107 0
      vertex 1.65435 1.28428 0
      vertex 0.954915 2.06107 20
    endloop
  endfacet
  facet normal -0.743145 -0.669131 0
    outer loop
      vertex 0.954915 2.06107 20
      vertex 1.65435 1.28428 0
      vertex 1.65435 1.28428 20
    endloop
  endfacet
  facet normal -0.587785 -0.809017 0
    outer loop
      vertex 1.65435 1.28428 20
      vertex 1.65435 1.28428 0
      vertex 2.5 0.669873 0
    endloop
  endfacet
  facet normal -0.587785 -0.809017 0
    outer loop
      vertex 2.5 0.669873 20
      vertex 1.65435 1.28428 20
      vertex 2.5 0.669873 0
    endloop
  endfacet
  facet normal -0.406737 -0.913545 0
    outer loop
      vertex 2.5 0.669873 20
      vertex 2.5 0.669873 0
      vertex 3.45492 0.244717 0
    endloop
  endfacet
  facet normal -0.406737 -0.913545 0
    outer loop
      vertex 3.45492 0.244717 20
      vertex 2.5 0.669873 20
      vertex 3.45492 0.244717 0
    endloop
  endfacet
  facet normal -0.207911 -0.978148 0
    outer loop
      vertex 3.45492 0.244717 20
      vertex 3.45492 0.244717 0
      vertex 4.47736 0.027391 0
    endloop
  endfacet
  facet normal -0.207911 -0.978148 0
    outer loop
      vertex 4.47736 0.027391 20
      vertex 3.45492 0.244717 20
      vertex 4.47736 0.027391 0
    endloop
  endfacet
  facet normal 0 -1 0
    outer loop
      vertex 4.47736 0.027391 20
      vertex 4.47736 0.027391 0
      vertex 55.5226 0.027391 0
    endloop
  endfacet
  facet normal 0 -1 0
    outer loop
      vertex 55.5226 0.027391 20
      vertex 4.47736 0.027391 20
      vertex 55.5226 0.027391 0
    endloop
  endfacet
  facet normal 0.207911 -0.978148 0
    outer loop
      vertex 55.5226 0.027391 20
      vertex 55.5226 0.027391 0
      vertex 56.5451 0.244717 0
    endloop
  endfacet
  facet normal 0.207911 -0.978148 0
    outer loop
      vertex 56.5451 0.244717 20
      vertex 55.5226 0.027391 20
      vertex 56.5451 0.244717 0
    endloop
  endfacet
  facet normal 0.406737 -0.913545 0
    outer loop
      vertex 56.5451 0.244717 20
      vertex 56.5451 0.244717 0
      vertex 57.5 0.669873 0
    endloop
  endfacet
  facet normal 0.406737 -0.913545 0
    outer loop
      vertex 57.5 0.669873 20
      vertex 56.5451 0.244717 20
      vertex 57.5 0.669873 0
    endloop
  endfacet
  facet normal 0.587785 -0.809017 0
    outer loop
      vertex 57.5 0.669873 20
      vertex 57.5 0.669873 0
      vertex 58.3457 1.28428 0
    endloop
  endfacet
  facet normal 0.587785 -0.809017 0
    outer loop
      vertex 58.3457 1.28428 20
      vertex 57.5 0.669873 20
      vertex 58.3457 1.28428 0
    endloop
  endfacet
  facet normal 0.743145 -0.669131 0
    outer loop
      vertex 58.3457 1.28428 20
      vertex 58.3457 1.28428 0
      vertex 59.0451 2.06107 0
    endloop
  endfacet
  facet normal 0.743145 -0.669131 0
    outer loop
      vertex 59.0049 2.01643 18
      vertex 58.3457 1.28428 20
      vertex 59.0451 2.06107 0
    endloop
  endfacet
  facet normal 0.743145 -0.669131 0
    outer loop
      vertex 59.0451 2.06107 18
      vertex 59.0049 2.01643 18
      vertex 59.0451 2.06107 0
    endloop
  endfacet
  facet normal 0.743145 -0.669131 0
    outer loop
      vertex 59.0049 2.01643 18.0164
      vertex 58.3457 1.28428 20
      vertex 59.0049 2.01643 18
    endloop
  endfacet
  facet normal 0.743145 -0.669131 0
    outer loop
      vertex 59.0451 2.06107 20
      vertex 58.3457 1.28428 20
      vertex 59.0451 2.06107 18.0611
    endloop
  endfacet
  facet normal 0.743145 -0.669131 0
    outer loop
      vertex 59.0049 2.01643 18.0164
      vertex 59.0451 2.06107 18.0611
      vertex 58.3457 1.28428 20
    endloop
  endfacet
  facet normal 0.866026 -0.5 0
    outer loop
      vertex 59.0451 2.06107 18
      vertex 59.0451 2.06107 0
      vertex 59.5677 2.96632 0
    endloop
  endfacet
  facet normal 0.866026 -0.5 0
    outer loop
      vertex 59.5677 2.96632 18
      vertex 59.0451 2.06107 18
      vertex 59.5677 2.96632 0
    endloop
  endfacet
  facet normal 0.951056 -0.309017 0
    outer loop
      vertex 59.5677 2.96632 18
      vertex 59.5677 2.96632 0
      vertex 59.8907 3.96044 0
    endloop
  endfacet
  facet normal 0.951056 -0.309017 0
    outer loop
      vertex 59.8907 3.96044 18
      vertex 59.5677 2.96632 18
      vertex 59.8907 3.96044 0
    endloop
  endfacet
  facet normal 0.994522 -0.104529 0
    outer loop
      vertex 59.8907 3.96044 18
      vertex 59.8907 3.96044 0
      vertex 60 5 0
    endloop
  endfacet
  facet normal 0.994522 -0.104529 0
    outer loop
      vertex 60 5 18
      vertex 59.8907 3.96044 18
      vertex 60 5 0
    endloop
  endfacet
  facet normal 1 0 0
    outer loop
      vertex 60 5 18
      vertex 60 5 0
      vertex 60 35 0
    endloop
  endfacet
  facet normal 1 0 0
    outer loop
      vertex 60 35 18
      vertex 60 5 18
      vertex 60 35 0
    endloop
  endfacet
  facet normal 0.994522 0.104529 0
    outer loop
      vertex 60 35 0
      vertex 59.8907 36.0396 0
      vertex 59.8907 36.0396 18
    endloop
  endfacet
  facet normal 0.994522 0.104529 0
    outer loop
      vertex 60 35 18
      vertex 60 35 0
      vertex 59.8907 36.0396 18
    endloop
  endfacet
  facet normal 0.951056 0.309017 0
    outer loop
      vertex 59.8907 36.0396 0
      vertex 59.5677 37.0337 0
      vertex 59.5677 37.0337 18
    endloop
  endfacet
  facet normal 0.951056 0.309017 0
    outer loop
      vertex 59.8907 36.0396 18
      vertex 59.8907 36.0396 0
      vertex 59.5677 37.0337 18
    endloop
  endfacet
  facet normal 0.866026 0.5 0
    outer loop
      vertex 59.5677 37.0337 0
      vertex 59.0451 37.9389 0
      vertex 59.0451 37.9389 18
    endloop
  endfacet
  facet normal 0.866026 0.5 0
    outer loop
      vertex 59.5677 37.0337 18
      vertex 59.5677 37.0337 0
      vertex 59.0451 37.9389 18
    endloop
  endfacet
  facet normal 0.743145 0.669131 0
    outer loop
      vertex 59.0451 37.9389 0
      vertex 58.3457 38.7157 0
      vertex 58.3457 38.7157 20
    endloop
  endfacet
  facet normal 0.743145 0.669131 0
    outer loop
      vertex 59.0049 37.9836 18
      vertex 59.0451 37.9389 0
      vertex 58.3457 38.7157 20
    endloop
  endfacet
  facet normal 0.743145 0.669131 0
    outer loop
      vertex 59.0451 37.9389 20
      vertex 59.0451 37.9389 18.0611
      vertex 58.3457 38.7157 20
    endloop
  endfacet
  facet normal 0.743145 0.669131 0
    outer loop
      vertex 59.0451 37.9389 18.0611
      vertex 59.0049 37.9836 18.0164
      vertex 58.3457 38.7157 20
    endloop
  endfacet
  facet normal 0.743145 0.669131 0
    outer loop
      vertex 59.0049 37.9836 18.0164
      vertex 59.0049 37.9836 18
      vertex 58.3457 38.7157 20
    endloop
  endfacet
  facet normal 0.743145 0.669131 0
    outer loop
      vertex 59.0049 37.9836 18
      vertex 59.0451 37.9389 18
      vertex 59.0451 37.9389 0
    endloop
  endfacet
  facet normal 0.587785 0.809017 0
    outer loop
      vertex 57.5 39.3301 0
      vertex 57.5 39.3301 20
      vertex 58.3457 38.7157 0
    endloop
  endfacet
  facet normal 0.587785 0.809017 0
    outer loop
      vertex 58.3457 38.7157 0
      vertex 57.5 39.3301 20
      vertex 58.3457 38.7157 20
    endloop
  endfacet
  facet normal 0.406737 0.913545 0
    outer loop
      vertex 56.5451 39.7553 0
      vertex 56.5451 39.7553 20
      vertex 57.5 39.3301 0
    endloop
  endfacet
  facet normal 0.406737 0.913545 0
    outer loop
      vertex 57.5 39.3301 0
      vertex 56.5451 39.7553 20
      vertex 57.5 39.3301 20
    endloop
  endfacet
  facet normal 0.207911 0.978148 0
    outer loop
      vertex 55.5226 39.9726 0
      vertex 55.5226 39.9726 20
      vertex 56.5451 39.7553 0
    endloop
  endfacet
  facet normal 0.207911 0.978148 0
    outer loop
      vertex 56.5451 39.7553 0
      vertex 55.5226 39.9726 20
      vertex 56.5451 39.7553 20
    endloop
  endfacet
  facet normal 0 1 0
    outer loop
      vertex 4.47736 39.9726 0
      vertex 4.47736 39.9726 20
      vertex 55.5226 39.9726 0
    endloop
  endfacet
  facet normal 0 1 0
    outer loop
      vertex 55.5226 39.9726 0
      vertex 4.47736 39.9726 20
      vertex 55.5226 39.9726 20
    endloop
  endfacet
  facet normal -0.207911 0.978148 0
    outer loop
      vertex 3.45492 39.7553 0
      vertex 3.45492 39.7553 20
      vertex 4.47736 39.9726 0
    endloop
  endfacet
  facet normal -0.207911 0.978148 0
    outer loop
      vertex 4.47736 39.9726 0
      vertex 3.45492 39.7553 20
      vertex 4.47736 39.9726 20
    endloop
  endfacet
  facet normal -0.406737 0.913545 0
    outer loop
      vertex 2.5 39.3301 0
      vertex 2.5 39.3301 20
      vertex 3.45492 39.7553 0
    endloop
  endfacet
  facet normal -0.406737 0.913545 0
    outer loop
      vertex 3.45492 39.7553 0
      vertex 2.5 39.3301 20
      vertex 3.45492 39.7553 20
    endloop
  endfacet
  facet normal -0.587785 0.809017 0
    outer loop
      vertex 1.65435 38.7157 0
      vertex 1.65435 38.7157 20
      vertex 2.5 39.3301 0
    endloop
  endfacet
  facet normal -0.587785 0.809017 0
    outer loop
      vertex 2.5 39.3301 0
      vertex 1.65435 38.7157 20
      vertex 2.5 39.3301 20
    endloop
  endfacet
  facet normal -0.743145 0.669131 0
    outer loop
      vertex 0.954915 37.9389 0
      vertex 0.954915 37.9389 20
      vertex 1.65435 38.7157 0
    endloop
  endfacet
  facet normal -0.743145 0.669131 0
    outer loop
      vertex 1.65435 38.7157 0
      vertex 0.954915 37.9389 20
      vertex 1.65435 38.7157 20
    endloop
  endfacet
  facet normal -0.866026 0.5 0
    outer loop
      vertex 0.432273 37.0337 0
      vertex 0.432273 37.0337 20
      vertex 0.954915 37.9389 0
    endloop
  endfacet
  facet normal -0.866026 0.5 0
    outer loop
      vertex 0.954915 37.9389 0
      vertex 0.432273 37.0337 20
      vertex 0.954915 37.9389 20
    endloop
  endfacet
  facet normal -0.951056 0.309017 0
    outer loop
      vertex 0.109262 36.0396 0
      vertex 0.109262 36.0396 20
      vertex 0.432273 37.0337 0
    endloop
  endfacet
  facet normal -0.951056 0.309017 0
    outer loop
      vertex 0.432273 37.0337 0
      vertex 0.109262 36.0396 20
      vertex 0.432273 37.0337 20
    endloop
  endfacet
  facet normal -0.994522 0.104529 0
    outer loop
      vertex 0 35 0
      vertex 0 35 20
      vertex 0.109262 36.0396 0
    endloop
  endfacet
  facet normal -0.994522 0.104529 0
    outer loop
      vertex 0.109262 36.0396 0
      vertex 0 35 20
      vertex 0.109262 36.0396 20
    endloop
  endfacet
  facet normal 0 0 1
    outer loop
      vertex 0 35 20
      vertex 0 5 20
      vertex 0.109262 3.96044 20
    endloop
  endfacet
  facet normal 0 0 1
    outer loop
      vertex 0.954915 2.06107 20
      vertex 0 35 20
      vertex 0.432273 2.96632 20
    endloop
  endfacet
  facet normal 0 0 1
    outer loop
      vertex 0.432273 2.96632 20
      vertex 0 35 20
      vertex 0.109262 3.96044 20
    endloop
  endfacet
  facet normal 0 0 1
    outer loop
      vertex 1.65435 1.28428 20
      vertex 0 35 20
      vertex 0.954915 2.06107 20
    endloop
  endfacet
  facet normal 0 0 1
    outer loop
      vertex 2.5 0.669873 20
      vertex 0 35 20
      vertex 1.65435 1.28428 20
    endloop
  endfacet
  facet normal 0 0 1
    outer loop
      vertex 3.45492 0.244717 20
      vertex 0 35 20
      vertex 2.5 0.669873 20
    endloop
  endfacet
  facet normal 0 0 1
    outer loop
      vertex 4.47736 0.027391 20
      vertex 0 35 20
      vertex 3.45492 0.244717 20
    endloop
  endfacet
  facet normal 0 0 1
    outer loop
      vertex 4 4 20
      vertex 0 35 20
      vertex 4.47736 0.027391 20
    endloop
  endfacet
  facet normal 0 0 1
    outer loop
      vertex 4 4 20
      vertex 4 36 20
      vertex 0 35 20
    endloop
  endfacet
  facet normal 0 0 1
    outer loop
      vertex 55.5226 0.027391 20
      vertex 4 4 20
      vertex 4.47736 0.027391 20
    endloop
  endfacet
  facet normal 0 0 1
    outer loop
      vertex 4.47736 39.9726 20
      vertex 0 35 20
      vertex 4 36 20
    endloop
  endfacet
  facet normal 0 0 1
    outer loop
      vertex 59.8907 36.0396 20
      vertex 4 36 20
      vertex 59.8949 36 20
    endloop
  endfacet
  facet normal 0 0 1
    outer loop
      vertex 59.5677 37.0337 20
      vertex 4 36 20
      vertex 59.8907 36.0396 20
    endloop
  endfacet
  facet normal 0 0 1
    outer loop
      vertex 59.0451 37.9389 20
      vertex 4 36 20
      vertex 59.5677 37.0337 20
    endloop
  endfacet
  facet normal 0 0 1
    outer loop
      vertex 58.3457 38.7157 20
      vertex 4 36 20
      vertex 59.0451 37.9389 20
    endloop
  endfacet
  facet normal 0 0 1
    outer loop
      vertex 57.5 39.3301 20
      vertex 4 36 20
      vertex 58.3457 38.7157 20
    endloop
  endfacet
  facet normal 0 0 1
    outer loop
      vertex 56.5451 39.7553 20
      vertex 4 36 20
      vertex 57.5 39.3301 20
    endloop
  endfacet
  facet normal 0 0 1
    outer loop
      vertex 55.5226 39.9726 20
      vertex 4 36 20
      vertex 56.5451 39.7553 20
    endloop
  endfacet
  facet normal 0 0 1
    outer loop
      vertex 4.47736 39.9726 20
      vertex 4 36 20
      vertex 55.5226 39.9726 20
    endloop
  endfacet
  facet normal 0 0 1
    outer loop
      vertex 3.45492 39.7553 20
      vertex 0 35 20
      vertex 4.47736 39.9726 20
    endloop
  endfacet
  facet normal 0 0 1
    outer loop
      vertex 2.5 39.3301 20
      vertex 0 35 20
      vertex 3.45492 39.7553 20
    endloop
  endfacet
  facet normal 0 0 1
    outer loop
      vertex 1.65435 38.7157 20
      vertex 0 35 20
      vertex 2.5 39.3301 20
    endloop
  endfacet
  facet normal 0 0 1
    outer loop
      vertex 0.954915 37.9389 20
      vertex 0 35 20
      vertex 1.65435 38.7157 20
    endloop
  endfacet
  facet normal 0 0 1
    outer loop
      vertex 0.432273 37.0337 20
      vertex 0 35 20
      vertex 0.954915 37.9389 20
    endloop
  endfacet
  facet normal 0 0 1
    outer loop
      vertex 0.109262 36.0396 20
      vertex 0 35 20
      vertex 0.432273 37.0337 20
    endloop
  endfacet
  facet normal 0 0 1
    outer loop
      vertex 59.8949 4 20
      vertex 59.5677 2.96632 20
      vertex 59.8907 3.96044 20
    endloop
  endfacet
  facet normal 0 0 1
    outer loop
      vertex 59.8949 4 20
      vertex 59.0451 2.06107 20
      vertex 59.5677 2.96632 20
    endloop
  endfacet
  facet normal 0 0 1
    outer loop
      vertex 59.8949 4 20
      vertex 58.3457 1.28428 20
      vertex 59.0451 2.06107 20
    endloop
  endfacet
  facet normal 0 0 1
    outer loop
      vertex 59.8949 4 20
      vertex 57.5 0.669873 20
      vertex 58.3457 1.28428 20
    endloop
  endfacet
  facet normal 0 0 1
    outer loop
      vertex 59.8949 4 20
      vertex 56.5451 0.244717 20
      vertex 57.5 0.669873 20
    endloop
  endfacet
  facet normal 0 0 1
    outer loop
      vertex 59.8949 4 20
      vertex 55.5226 0.027391 20
      vertex 56.5451 0.244717 20
    endloop
  endfacet
  facet normal 0 0 1
    outer loop
      vertex 59.8949 4 20
      vertex 4 4 20
      vertex 55.5226 0.027391 20
    endloop
  endfacet
  facet normal 0.866026 -0.5 0
    outer loop
      vertex 59.0451 2.06107 20
      vertex 59.0451 2.06107 18.0611
      vertex 59.5677 2.96632 18.9663
    endloop
  endfacet
  facet normal 0.866026 -0.5 0
    outer loop
      vertex 59.5677 2.96632 20
      vertex 59.0451 2.06107 20
      vertex 59.5677 2.96632 18.9663
    endloop
  endfacet
  facet normal 8.65927e-017 0.707107 -0.707107
    outer loop
      vertex 2.88741 2.88741 18.8874
      vertex 4 4 20
      vertex 2.99261 2.77057 18.7706
    endloop
  endfacet
  facet normal 8.65927e-017 0.707107 -0.707107
    outer loop
      vertex 2.99261 2.77057 18.7706
      vertex 4 4 20
      vertex 59.8949 4 20
    endloop
  endfacet
  facet normal 8.65927e-017 0.707107 -0.707107
    outer loop
      vertex 2.99261 2.77057 18.7706
      vertex 59.8949 4 20
      vertex 59.8907 3.96044 19.9604
    endloop
  endfacet
  facet normal 8.65927e-017 0.707107 -0.707107
    outer loop
      vertex 2.99261 2.77057 18.7706
      vertex 59.8907 3.96044 19.9604
      vertex 59.5677 2.96632 18.9663
    endloop
  endfacet
  facet normal 8.65927e-017 0.707107 -0.707107
    outer loop
      vertex 2.99261 2.77057 18.7706
      vertex 59.5677 2.96632 18.9663
      vertex 59.0451 2.06107 18.0611
    endloop
  endfacet
  facet normal 8.65927e-017 0.707107 -0.707107
    outer loop
      vertex 2.99261 2.77057 18.7706
      vertex 59.0451 2.06107 18.0611
      vertex 59.0049 2.01643 18.0164
    endloop
  endfacet
  facet normal 8.65927e-017 0.707107 -0.707107
    outer loop
      vertex 2.99261 2.77057 18.7706
      vertex 59.0049 2.01643 18.0164
      vertex 4.68641 2.01643 18.0164
    endloop
  endfacet
  facet normal 8.65927e-017 0.707107 -0.707107
    outer loop
      vertex 2.99261 2.77057 18.7706
      vertex 4.68641 2.01643 18.0164
      vertex 4.07295 2.14683 18.1468
    endloop
  endfacet
  facet normal 8.65927e-017 0.707107 -0.707107
    outer loop
      vertex 2.99261 2.77057 18.7706
      vertex 4.07295 2.14683 18.1468
      vertex 3.5 2.40192 18.4019
    endloop
  endfacet
  facet normal 1.22461e-016 1 0
    outer loop
      vertex 59.0049 2.01643 18.0164
      vertex 59.0049 2.01643 18
      vertex 4.68641 2.01643 18.0164
    endloop
  endfacet
  facet normal 1.22461e-016 1 0
    outer loop
      vertex 4.68641 2.01643 18.0164
      vertex 59.0049 2.01643 18
      vertex 4.68641 2.01643 18
    endloop
  endfacet
  facet normal 0 0 1
    outer loop
      vertex 2 35 18
      vertex 2 5 18
      vertex 2.06556 4.37627 18
    endloop
  endfacet
  facet normal 0 0 1
    outer loop
      vertex 2.57295 3.23664 18
      vertex 2 35 18
      vertex 2.25936 3.77979 18
    endloop
  endfacet
  facet normal 0 0 1
    outer loop
      vertex 2.25936 3.77979 18
      vertex 2 35 18
      vertex 2.06556 4.37627 18
    endloop
  endfacet
  facet normal 0 0 1
    outer loop
      vertex 2.99261 2.77057 18
      vertex 2 35 18
      vertex 2.57295 3.23664 18
    endloop
  endfacet
  facet normal 0 0 1
    outer loop
      vertex 3.5 2.40192 18
      vertex 2 35 18
      vertex 2.99261 2.77057 18
    endloop
  endfacet
  facet normal 0 0 1
    outer loop
      vertex 4.07295 2.14683 18
      vertex 2 35 18
      vertex 3.5 2.40192 18
    endloop
  endfacet
  facet normal 0 0 1
    outer loop
      vertex 4 4 18
      vertex 2 35 18
      vertex 4.07295 2.14683 18
    endloop
  endfacet
  facet normal 0 0 1
    outer loop
      vertex 4 36 18
      vertex 59.5677 37.0337 18
      vertex 59.0451 37.9389 18
    endloop
  endfacet
  facet normal 0 0 1
    outer loop
      vertex 4 36 18
      vertex 59.8907 36.0396 18
      vertex 59.5677 37.0337 18
    endloop
  endfacet
  facet normal 0 0 1
    outer loop
      vertex 4 36 18
      vertex 57.8122 36 18
      vertex 59.8907 36.0396 18
    endloop
  endfacet
  facet normal 0 0 1
    outer loop
      vertex 57.9344 35.6237 18
      vertex 58 35 18
      vertex 60 35 18
    endloop
  endfacet
  facet normal 0 0 1
    outer loop
      vertex 4.07295 37.8532 18
      vertex 2 35 18
      vertex 4.68641 37.9836 18
    endloop
  endfacet
  facet normal 0 0 1
    outer loop
      vertex 3.5 37.5981 18
      vertex 2 35 18
      vertex 4.07295 37.8532 18
    endloop
  endfacet
  facet normal 0 0 1
    outer loop
      vertex 2.99261 37.2294 18
      vertex 2 35 18
      vertex 3.5 37.5981 18
    endloop
  endfacet
  facet normal 0 0 1
    outer loop
      vertex 2.57295 36.7634 18
      vertex 2 35 18
      vertex 2.99261 37.2294 18
    endloop
  endfacet
  facet normal 0 0 1
    outer loop
      vertex 2.25936 36.2202 18
      vertex 2 35 18
      vertex 2.57295 36.7634 18
    endloop
  endfacet
  facet normal 0 0 1
    outer loop
      vertex 2.06556 35.6237 18
      vertex 2 35 18
      vertex 2.25936 36.2202 18
    endloop
  endfacet
  facet normal 0 0 1
    outer loop
      vertex 4.68641 2.01643 18
      vertex 4 4 18
      vertex 4.07295 2.14683 18
    endloop
  endfacet
  facet normal 0 0 1
    outer loop
      vertex 4 36 18
      vertex 59.0451 37.9389 18
      vertex 59.0049 37.9836 18
    endloop
  endfacet
  facet normal 0 0 1
    outer loop
      vertex 4.68641 37.9836 18
      vertex 4 36 18
      vertex 59.0049 37.9836 18
    endloop
  endfacet
  facet normal 0 0 1
    outer loop
      vertex 4.68641 37.9836 18
      vertex 2 35 18
      vertex 4 36 18
    endloop
  endfacet
  facet normal 0 0 1
    outer loop
      vertex 59.8907 36.0396 18
      vertex 57.8122 36 18
      vertex 60 35 18
    endloop
  endfacet
  facet normal 0 0 1
    outer loop
      vertex 57.8122 36 18
      vertex 57.9344 35.6237 18
      vertex 60 35 18
    endloop
  endfacet
  facet normal 0 0 1
    outer loop
      vertex 60 35 18
      vertex 58 35 18
      vertex 60 5 18
    endloop
  endfacet
  facet normal 0 0 1
    outer loop
      vertex 60 5 18
      vertex 58 5 18
      vertex 59.8907 3.96044 18
    endloop
  endfacet
  facet normal 0 0 1
    outer loop
      vertex 59.8907 3.96044 18
      vertex 57.9344 4.37627 18
      vertex 59.5677 2.96632 18
    endloop
  endfacet
  facet normal 0 0 1
    outer loop
      vertex 57.9344 4.37627 18
      vertex 57.8122 4 18
      vertex 59.5677 2.96632 18
    endloop
  endfacet
  facet normal 0 0 1
    outer loop
      vertex 57.8122 4 18
      vertex 59.0451 2.06107 18
      vertex 59.5677 2.96632 18
    endloop
  endfacet
  facet normal 0 0 1
    outer loop
      vertex 57.8122 4 18
      vertex 59.0049 2.01643 18
      vertex 59.0451 2.06107 18
    endloop
  endfacet
  facet normal 0 0 1
    outer loop
      vertex 57.8122 4 18
      vertex 4.68641 2.01643 18
      vertex 59.0049 2.01643 18
    endloop
  endfacet
  facet normal 0 0 1
    outer loop
      vertex 57.8122 4 18
      vertex 4 4 18
      vertex 4.68641 2.01643 18
    endloop
  endfacet
  facet normal 0 0 1
    outer loop
      vertex 58 35 18
      vertex 58 5 18
      vertex 60 5 18
    endloop
  endfacet
  facet normal 0 0 1
    outer loop
      vertex 58 5 18
      vertex 57.9344 4.37627 18
      vertex 59.8907 3.96044 18
    endloop
  endfacet
  facet normal 0 0 1
    outer loop
      vertex 4 4 18
      vertex 4 36 18
      vertex 2 35 18
    endloop
  endfacet
  facet normal -1.22461e-016 -1 0
    outer loop
      vertex 59.0049 37.9836 18
      vertex 59.0049 37.9836 18.0164
      vertex 4.68641 37.9836 18.0164
    endloop
  endfacet
  facet normal -1.22461e-016 -1 0
    outer loop
      vertex 4.68641 37.9836 18
      vertex 59.0049 37.9836 18
      vertex 4.68641 37.9836 18.0164
    endloop
  endfacet
  facet normal -8.65927e-017 -0.707107 -0.707107
    outer loop
      vertex 4 36 20
      vertex 2.88741 37.1126 18.8874
      vertex 2.99261 37.2294 18.7706
    endloop
  endfacet
  facet normal -8.65927e-017 -0.707107 -0.707107
    outer loop
      vertex 4.07295 37.8532 18.1468
      vertex 4 36 20
      vertex 3.5 37.5981 18.4019
    endloop
  endfacet
  facet normal -8.65927e-017 -0.707107 -0.707107
    outer loop
      vertex 3.5 37.5981 18.4019
      vertex 4 36 20
      vertex 2.99261 37.2294 18.7706
    endloop
  endfacet
  facet normal -8.65927e-017 -0.707107 -0.707107
    outer loop
      vertex 4.68641 37.9836 18.0164
      vertex 4 36 20
      vertex 4.07295 37.8532 18.1468
    endloop
  endfacet
  facet normal -8.65927e-017 -0.707107 -0.707107
    outer loop
      vertex 59.0049 37.9836 18.0164
      vertex 4 36 20
      vertex 4.68641 37.9836 18.0164
    endloop
  endfacet
  facet normal -8.65927e-017 -0.707107 -0.707107
    outer loop
      vertex 59.0451 37.9389 18.0611
      vertex 4 36 20
      vertex 59.0049 37.9836 18.0164
    endloop
  endfacet
  facet normal -8.65927e-017 -0.707107 -0.707107
    outer loop
      vertex 59.5677 37.0337 18.9663
      vertex 4 36 20
      vertex 59.0451 37.9389 18.0611
    endloop
  endfacet
  facet normal -8.65927e-017 -0.707107 -0.707107
    outer loop
      vertex 59.8907 36.0396 19.9604
      vertex 4 36 20
      vertex 59.5677 37.0337 18.9663
    endloop
  endfacet
  facet normal -8.65927e-017 -0.707107 -0.707107
    outer loop
      vertex 59.8949 36 20
      vertex 4 36 20
      vertex 59.8907 36.0396 19.9604
    endloop
  endfacet
  facet normal 0.866026 0.5 0
    outer loop
      vertex 59.5677 37.0337 18.9663
      vertex 59.0451 37.9389 18.0611
      vertex 59.0451 37.9389 20
    endloop
  endfacet
  facet normal 0.866026 0.5 0
    outer loop
      vertex 59.5677 37.0337 20
      vertex 59.5677 37.0337 18.9663
      vertex 59.0451 37.9389 20
    endloop
  endfacet
  facet normal 0.951056 0.309017 0
    outer loop
      vertex 59.8907 36.0396 19.9604
      vertex 59.5677 37.0337 18.9663
      vertex 59.5677 37.0337 20
    endloop
  endfacet
  facet normal 0.951056 0.309017 0
    outer loop
      vertex 59.8907 36.0396 20
      vertex 59.8907 36.0396 19.9604
      vertex 59.5677 37.0337 20
    endloop
  endfacet
  facet normal 0.994522 0.104529 0
    outer loop
      vertex 59.8949 36 20
      vertex 59.8907 36.0396 19.9604
      vertex 59.8907 36.0396 20
    endloop
  endfacet
  facet normal 0.707107 -3.22107e-016 -0.707107
    outer loop
      vertex 2 5 18
      vertex 2 35 18
      vertex 2.06556 4.37627 18.0656
    endloop
  endfacet
  facet normal 0.707107 -3.22107e-016 -0.707107
    outer loop
      vertex 2.06556 4.37627 18.0656
      vertex 2 35 18
      vertex 2.06556 35.6237 18.0656
    endloop
  endfacet
  facet normal 0.707107 -3.22107e-016 -0.707107
    outer loop
      vertex 2.06556 4.37627 18.0656
      vertex 2.06556 35.6237 18.0656
      vertex 2.25936 36.2202 18.2594
    endloop
  endfacet
  facet normal 0.707107 -3.22107e-016 -0.707107
    outer loop
      vertex 2.06556 4.37627 18.0656
      vertex 2.25936 36.2202 18.2594
      vertex 2.57295 36.7634 18.5729
    endloop
  endfacet
  facet normal 0.707107 -3.22107e-016 -0.707107
    outer loop
      vertex 2.06556 4.37627 18.0656
      vertex 2.57295 36.7634 18.5729
      vertex 2.88741 37.1126 18.8874
    endloop
  endfacet
  facet normal 0.707107 -3.22107e-016 -0.707107
    outer loop
      vertex 2.06556 4.37627 18.0656
      vertex 2.88741 37.1126 18.8874
      vertex 4 36 20
    endloop
  endfacet
  facet normal 0.707107 -3.22107e-016 -0.707107
    outer loop
      vertex 2.06556 4.37627 18.0656
      vertex 4 36 20
      vertex 4 4 20
    endloop
  endfacet
  facet normal 0.707107 -3.22107e-016 -0.707107
    outer loop
      vertex 2.06556 4.37627 18.0656
      vertex 4 4 20
      vertex 2.88741 2.88741 18.8874
    endloop
  endfacet
  facet normal 0.707107 -3.22107e-016 -0.707107
    outer loop
      vertex 2.06556 4.37627 18.0656
      vertex 2.88741 2.88741 18.8874
      vertex 2.57295 3.23664 18.5729
    endloop
  endfacet
  facet normal 0.707107 -3.22107e-016 -0.707107
    outer loop
      vertex 2.06556 4.37627 18.0656
      vertex 2.57295 3.23664 18.5729
      vertex 2.25936 3.77979 18.2594
    endloop
  endfacet
  facet normal 0.994522 -0.104529 0
    outer loop
      vertex 59.8907 3.96044 20
      vertex 59.8907 3.96044 19.9604
      vertex 59.8949 4 20
    endloop
  endfacet
  facet normal 0.951056 -0.309017 0
    outer loop
      vertex 59.5677 2.96632 20
      vertex 59.5677 2.96632 18.9663
      vertex 59.8907 3.96044 19.9604
    endloop
  endfacet
  facet normal 0.951056 -0.309017 0
    outer loop
      vertex 59.8907 3.96044 20
      vertex 59.5677 2.96632 20
      vertex 59.8907 3.96044 19.9604
    endloop
  endfacet
  facet normal 0.743144 0.669131 0
    outer loop
      vertex 2.57295 3.23664 18.5729
      vertex 2.88741 2.88741 18.8874
      vertex 2.99261 2.77057 18.7706
    endloop
  endfacet
  facet normal 0.743144 0.669131 0
    outer loop
      vertex 2.57295 3.23664 18
      vertex 2.57295 3.23664 18.5729
      vertex 2.99261 2.77057 18
    endloop
  endfacet
  facet normal 0.743144 0.669131 0
    outer loop
      vertex 2.99261 2.77057 18
      vertex 2.57295 3.23664 18.5729
      vertex 2.99261 2.77057 18.7706
    endloop
  endfacet
  facet normal 0.587785 0.809017 0
    outer loop
      vertex 3.5 2.40192 18.4019
      vertex 3.5 2.40192 18
      vertex 2.99261 2.77057 18.7706
    endloop
  endfacet
  facet normal 0.587785 0.809017 0
    outer loop
      vertex 2.99261 2.77057 18.7706
      vertex 3.5 2.40192 18
      vertex 2.99261 2.77057 18
    endloop
  endfacet
  facet normal 0.406738 0.913545 0
    outer loop
      vertex 4.07295 2.14683 18.1468
      vertex 4.07295 2.14683 18
      vertex 3.5 2.40192 18.4019
    endloop
  endfacet
  facet normal 0.406738 0.913545 0
    outer loop
      vertex 3.5 2.40192 18.4019
      vertex 4.07295 2.14683 18
      vertex 3.5 2.40192 18
    endloop
  endfacet
  facet normal 0.207911 0.978148 0
    outer loop
      vertex 4.68641 2.01643 18.0164
      vertex 4.68641 2.01643 18
      vertex 4.07295 2.14683 18.1468
    endloop
  endfacet
  facet normal 0.207911 0.978148 0
    outer loop
      vertex 4.07295 2.14683 18.1468
      vertex 4.68641 2.01643 18
      vertex 4.07295 2.14683 18
    endloop
  endfacet
  facet normal 0.994522 -0.104528 0
    outer loop
      vertex 2.06556 35.6237 18
      vertex 2.06556 35.6237 18.0656
      vertex 2 35 18
    endloop
  endfacet
  facet normal 0.951056 -0.309018 0
    outer loop
      vertex 2.25936 36.2202 18
      vertex 2.25936 36.2202 18.2594
      vertex 2.06556 35.6237 18.0656
    endloop
  endfacet
  facet normal 0.951056 -0.309018 0
    outer loop
      vertex 2.06556 35.6237 18
      vertex 2.25936 36.2202 18
      vertex 2.06556 35.6237 18.0656
    endloop
  endfacet
  facet normal 0.866026 -0.499999 0
    outer loop
      vertex 2.57295 36.7634 18
      vertex 2.57295 36.7634 18.5729
      vertex 2.25936 36.2202 18.2594
    endloop
  endfacet
  facet normal 0.866026 -0.499999 0
    outer loop
      vertex 2.25936 36.2202 18
      vertex 2.57295 36.7634 18
      vertex 2.25936 36.2202 18.2594
    endloop
  endfacet
  facet normal 0.743144 -0.669131 0
    outer loop
      vertex 2.99261 37.2294 18
      vertex 2.99261 37.2294 18.7706
      vertex 2.88741 37.1126 18.8874
    endloop
  endfacet
  facet normal 0.743144 -0.669131 0
    outer loop
      vertex 2.57295 36.7634 18
      vertex 2.99261 37.2294 18
      vertex 2.57295 36.7634 18.5729
    endloop
  endfacet
  facet normal 0.743144 -0.669131 0
    outer loop
      vertex 2.57295 36.7634 18.5729
      vertex 2.99261 37.2294 18
      vertex 2.88741 37.1126 18.8874
    endloop
  endfacet
  facet normal 0.587785 -0.809017 0
    outer loop
      vertex 3.5 37.5981 18
      vertex 3.5 37.5981 18.4019
      vertex 2.99261 37.2294 18.7706
    endloop
  endfacet
  facet normal 0.587785 -0.809017 0
    outer loop
      vertex 2.99261 37.2294 18
      vertex 3.5 37.5981 18
      vertex 2.99261 37.2294 18.7706
    endloop
  endfacet
  facet normal 0.406738 -0.913545 0
    outer loop
      vertex 4.07295 37.8532 18
      vertex 4.07295 37.8532 18.1468
      vertex 3.5 37.5981 18.4019
    endloop
  endfacet
  facet normal 0.406738 -0.913545 0
    outer loop
      vertex 3.5 37.5981 18
      vertex 4.07295 37.8532 18
      vertex 3.5 37.5981 18.4019
    endloop
  endfacet
  facet normal 0.207911 -0.978148 0
    outer loop
      vertex 4.68641 37.9836 18
      vertex 4.68641 37.9836 18.0164
      vertex 4.07295 37.8532 18.1468
    endloop
  endfacet
  facet normal 0.207911 -0.978148 0
    outer loop
      vertex 4.07295 37.8532 18
      vertex 4.68641 37.9836 18
      vertex 4.07295 37.8532 18.1468
    endloop
  endfacet
  facet normal 0.866026 0.499999 0
    outer loop
      vertex 2.25936 3.77979 18.2594
      vertex 2.57295 3.23664 18.5729
      vertex 2.57295 3.23664 18
    endloop
  endfacet
  facet normal 0.866026 0.499999 0
    outer loop
      vertex 2.25936 3.77979 18
      vertex 2.25936 3.77979 18.2594
      vertex 2.57295 3.23664 18
    endloop
  endfacet
  facet normal 0.951056 0.309018 0
    outer loop
      vertex 2.06556 4.37627 18.0656
      vertex 2.25936 3.77979 18.2594
      vertex 2.25936 3.77979 18
    endloop
  endfacet
  facet normal 0.951056 0.309018 0
    outer loop
      vertex 2.06556 4.37627 18
      vertex 2.06556 4.37627 18.0656
      vertex 2.25936 3.77979 18
    endloop
  endfacet
  facet normal 0.994522 0.104528 0
    outer loop
      vertex 2 5 18
      vertex 2.06556 4.37627 18.0656
      vertex 2.06556 4.37627 18
    endloop
  endfacet
  facet normal 0.707107 -3.22107e-016 -0.707107
    outer loop
      vertex 2 5 16
      vertex 2 35 16
      vertex 2.06556 4.37627 16.0656
    endloop
  endfacet
  facet normal 0.707107 -3.22107e-016 -0.707107
    outer loop
      vertex 2.06556 4.37627 16.0656
      vertex 2 35 16
      vertex 2.06556 35.6237 16.0656
    endloop
  endfacet
  facet normal 0.707107 -3.22107e-016 -0.707107
    outer loop
      vertex 2.06556 4.37627 16.0656
      vertex 2.06556 35.6237 16.0656
      vertex 2.25936 36.2202 16.2594
    endloop
  endfacet
  facet normal 0.707107 -3.22107e-016 -0.707107
    outer loop
      vertex 2.06556 4.37627 16.0656
      vertex 2.25936 36.2202 16.2594
      vertex 2.57295 36.7634 16.5729
    endloop
  endfacet
  facet normal 0.707107 -3.22107e-016 -0.707107
    outer loop
      vertex 2.06556 4.37627 16.0656
      vertex 2.57295 36.7634 16.5729
      vertex 2.88741 37.1126 16.8874
    endloop
  endfacet
  facet normal 0.707107 -3.22107e-016 -0.707107
    outer loop
      vertex 2.06556 4.37627 16.0656
      vertex 2.88741 37.1126 16.8874
      vertex 4 36 18
    endloop
  endfacet
  facet normal 0.707107 -3.22107e-016 -0.707107
    outer loop
      vertex 2.06556 4.37627 16.0656
      vertex 4 36 18
      vertex 4 4 18
    endloop
  endfacet
  facet normal 0.707107 -3.22107e-016 -0.707107
    outer loop
      vertex 2.06556 4.37627 16.0656
      vertex 4 4 18
      vertex 2.88741 2.88741 16.8874
    endloop
  endfacet
  facet normal 0.707107 -3.22107e-016 -0.707107
    outer loop
      vertex 2.06556 4.37627 16.0656
      vertex 2.88741 2.88741 16.8874
      vertex 2.57295 3.23664 16.5729
    endloop
  endfacet
  facet normal 0.707107 -3.22107e-016 -0.707107
    outer loop
      vertex 2.06556 4.37627 16.0656
      vertex 2.57295 3.23664 16.5729
      vertex 2.25936 3.77979 16.2594
    endloop
  endfacet
  facet normal 8.65927e-017 0.707107 -0.707107
    outer loop
      vertex 2.88741 2.88741 16.8874
      vertex 4 4 18
      vertex 2.99261 2.77057 16.7706
    endloop
  endfacet
  facet normal 8.65927e-017 0.707107 -0.707107
    outer loop
      vertex 2.99261 2.77057 16.7706
      vertex 4 4 18
      vertex 57.8122 4 18
    endloop
  endfacet
  facet normal 8.65927e-017 0.707107 -0.707107
    outer loop
      vertex 2.99261 2.77057 16.7706
      vertex 57.8122 4 18
      vertex 57.7406 3.77979 17.7798
    endloop
  endfacet
  facet normal 8.65927e-017 0.707107 -0.707107
    outer loop
      vertex 2.99261 2.77057 16.7706
      vertex 57.7406 3.77979 17.7798
      vertex 57.4271 3.23664 17.2366
    endloop
  endfacet
  facet normal 8.65927e-017 0.707107 -0.707107
    outer loop
      vertex 2.99261 2.77057 16.7706
      vertex 57.4271 3.23664 17.2366
      vertex 57.0074 2.77057 16.7706
    endloop
  endfacet
  facet normal 8.65927e-017 0.707107 -0.707107
    outer loop
      vertex 2.99261 2.77057 16.7706
      vertex 57.0074 2.77057 16.7706
      vertex 56.5 2.40192 16.4019
    endloop
  endfacet
  facet normal 8.65927e-017 0.707107 -0.707107
    outer loop
      vertex 2.99261 2.77057 16.7706
      vertex 56.5 2.40192 16.4019
      vertex 55.9271 2.14683 16.1468
    endloop
  endfacet
  facet normal 8.65927e-017 0.707107 -0.707107
    outer loop
      vertex 2.99261 2.77057 16.7706
      vertex 55.9271 2.14683 16.1468
      vertex 55.3136 2.01643 16.0164
    endloop
  endfacet
  facet normal 8.65927e-017 0.707107 -0.707107
    outer loop
      vertex 2.99261 2.77057 16.7706
      vertex 55.3136 2.01643 16.0164
      vertex 4.68641 2.01643 16.0164
    endloop
  endfacet
  facet normal 8.65927e-017 0.707107 -0.707107
    outer loop
      vertex 2.99261 2.77057 16.7706
      vertex 4.68641 2.01643 16.0164
      vertex 4.07295 2.14683 16.1468
    endloop
  endfacet
  facet normal 8.65927e-017 0.707107 -0.707107
    outer loop
      vertex 2.99261 2.77057 16.7706
      vertex 4.07295 2.14683 16.1468
      vertex 3.5 2.40192 16.4019
    endloop
  endfacet
  facet normal -0.951056 0.309018 0
    outer loop
      vertex 57.8122 4 18
      vertex 57.9344 4.37627 18
      vertex 57.7406 3.77979 17.7798
    endloop
  endfacet
  facet normal -0.951056 0.309018 0
    outer loop
      vertex 57.7406 3.77979 17.7798
      vertex 57.9344 4.37627 18
      vertex 57.9344 4.37627 2
    endloop
  endfacet
  facet normal -0.951056 0.309018 0
    outer loop
      vertex 57.7406 3.77979 17.7798
      vertex 57.9344 4.37627 2
      vertex 57.7406 3.77979 2
    endloop
  endfacet
  facet normal -0.994522 0.104528 0
    outer loop
      vertex 58 5 18
      vertex 58 5 2
      vertex 57.9344 4.37627 18
    endloop
  endfacet
  facet normal -0.994522 0.104528 0
    outer loop
      vertex 57.9344 4.37627 18
      vertex 58 5 2
      vertex 57.9344 4.37627 2
    endloop
  endfacet
  facet normal -1 0 0
    outer loop
      vertex 58 35 18
      vertex 58 35 2
      vertex 58 5 18
    endloop
  endfacet
  facet normal -1 0 0
    outer loop
      vertex 58 5 18
      vertex 58 35 2
      vertex 58 5 2
    endloop
  endfacet
  facet normal -0.994522 -0.104528 0
    outer loop
      vertex 58 35 18
      vertex 57.9344 35.6237 18
      vertex 58 35 2
    endloop
  endfacet
  facet normal -0.994522 -0.104528 0
    outer loop
      vertex 58 35 2
      vertex 57.9344 35.6237 18
      vertex 57.9344 35.6237 2
    endloop
  endfacet
  facet normal -0.951056 -0.309018 0
    outer loop
      vertex 57.9344 35.6237 18
      vertex 57.8122 36 18
      vertex 57.9344 35.6237 2
    endloop
  endfacet
  facet normal -0.951056 -0.309018 0
    outer loop
      vertex 57.9344 35.6237 2
      vertex 57.8122 36 18
      vertex 57.7406 36.2202 17.7798
    endloop
  endfacet
  facet normal -0.951056 -0.309018 0
    outer loop
      vertex 57.9344 35.6237 2
      vertex 57.7406 36.2202 17.7798
      vertex 57.7406 36.2202 2
    endloop
  endfacet
  facet normal -8.65927e-017 -0.707107 -0.707107
    outer loop
      vertex 4 36 18
      vertex 2.88741 37.1126 16.8874
      vertex 2.99261 37.2294 16.7706
    endloop
  endfacet
  facet normal -8.65927e-017 -0.707107 -0.707107
    outer loop
      vertex 4.07295 37.8532 16.1468
      vertex 4 36 18
      vertex 3.5 37.5981 16.4019
    endloop
  endfacet
  facet normal -8.65927e-017 -0.707107 -0.707107
    outer loop
      vertex 3.5 37.5981 16.4019
      vertex 4 36 18
      vertex 2.99261 37.2294 16.7706
    endloop
  endfacet
  facet normal -8.65927e-017 -0.707107 -0.707107
    outer loop
      vertex 4.68641 37.9836 16.0164
      vertex 4 36 18
      vertex 4.07295 37.8532 16.1468
    endloop
  endfacet
  facet normal -8.65927e-017 -0.707107 -0.707107
    outer loop
      vertex 55.3136 37.9836 16.0164
      vertex 4 36 18
      vertex 4.68641 37.9836 16.0164
    endloop
  endfacet
  facet normal -8.65927e-017 -0.707107 -0.707107
    outer loop
      vertex 55.9271 37.8532 16.1468
      vertex 4 36 18
      vertex 55.3136 37.9836 16.0164
    endloop
  endfacet
  facet normal -8.65927e-017 -0.707107 -0.707107
    outer loop
      vertex 56.5 37.5981 16.4019
      vertex 4 36 18
      vertex 55.9271 37.8532 16.1468
    endloop
  endfacet
  facet normal -8.65927e-017 -0.707107 -0.707107
    outer loop
      vertex 57.0074 37.2294 16.7706
      vertex 4 36 18
      vertex 56.5 37.5981 16.4019
    endloop
  endfacet
  facet normal -8.65927e-017 -0.707107 -0.707107
    outer loop
      vertex 57.4271 36.7634 17.2366
      vertex 4 36 18
      vertex 57.0074 37.2294 16.7706
    endloop
  endfacet
  facet normal -8.65927e-017 -0.707107 -0.707107
    outer loop
      vertex 57.7406 36.2202 17.7798
      vertex 4 36 18
      vertex 57.4271 36.7634 17.2366
    endloop
  endfacet
  facet normal -8.65927e-017 -0.707107 -0.707107
    outer loop
      vertex 57.8122 36 18
      vertex 4 36 18
      vertex 57.7406 36.2202 17.7798
    endloop
  endfacet
  facet normal 0.951056 0.309018 0
    outer loop
      vertex 2.06556 4.37627 16.0656
      vertex 2.25936 3.77979 16.2594
      vertex 2.25936 3.77979 16
    endloop
  endfacet
  facet normal 0.951056 0.309018 0
    outer loop
      vertex 2.06556 4.37627 16
      vertex 2.06556 4.37627 16.0656
      vertex 2.25936 3.77979 16
    endloop
  endfacet
  facet normal 0.994522 0.104528 0
    outer loop
      vertex 2 5 16
      vertex 2.06556 4.37627 16.0656
      vertex 2.06556 4.37627 16
    endloop
  endfacet
  facet normal 0.994522 0.104528 0
    outer loop
      vertex 2.06556 4.37627 2
      vertex 2 5 16
      vertex 2.06556 4.37627 16
    endloop
  endfacet
  facet normal 0.994522 0.104528 0
    outer loop
      vertex 2.06556 4.37627 2
      vertex 2 5 2
      vertex 2 5 16
    endloop
  endfacet
  facet normal 0.866026 0.499999 0
    outer loop
      vertex 2.25936 3.77979 16.2594
      vertex 2.57295 3.23664 16.5729
      vertex 2.57295 3.23664 16
    endloop
  endfacet
  facet normal 0.866026 0.499999 0
    outer loop
      vertex 2.25936 3.77979 16
      vertex 2.25936 3.77979 16.2594
      vertex 2.57295 3.23664 16
    endloop
  endfacet
  facet normal 0.743144 0.669131 0
    outer loop
      vertex 2.57295 3.23664 16.5729
      vertex 2.88741 2.88741 16.8874
      vertex 2.99261 2.77057 16.7706
    endloop
  endfacet
  facet normal 0.743144 0.669131 0
    outer loop
      vertex 2.57295 3.23664 16
      vertex 2.57295 3.23664 16.5729
      vertex 2.99261 2.77057 16
    endloop
  endfacet
  facet normal 0.743144 0.669131 0
    outer loop
      vertex 2.99261 2.77057 16
      vertex 2.57295 3.23664 16.5729
      vertex 2.99261 2.77057 16.7706
    endloop
  endfacet
  facet normal 0.743144 -0.669131 0
    outer loop
      vertex 2.99261 37.2294 2
      vertex 2.99261 37.2294 16.7706
      vertex 2.88741 37.1126 16.8874
    endloop
  endfacet
  facet normal 0.743144 -0.669131 0
    outer loop
      vertex 2.57295 36.7634 2
      vertex 2.99261 37.2294 2
      vertex 2.57295 36.7634 16.5729
    endloop
  endfacet
  facet normal 0.743144 -0.669131 0
    outer loop
      vertex 2.57295 36.7634 16.5729
      vertex 2.99261 37.2294 2
      vertex 2.88741 37.1126 16.8874
    endloop
  endfacet
  facet normal 0.866026 -0.499999 0
    outer loop
      vertex 2.57295 36.7634 2
      vertex 2.57295 36.7634 16.5729
      vertex 2.25936 36.2202 16.2594
    endloop
  endfacet
  facet normal 0.866026 -0.499999 0
    outer loop
      vertex 2.25936 36.2202 2
      vertex 2.57295 36.7634 2
      vertex 2.25936 36.2202 16.2594
    endloop
  endfacet
  facet normal 0.951056 -0.309018 0
    outer loop
      vertex 2.25936 36.2202 2
      vertex 2.25936 36.2202 16.2594
      vertex 2.06556 35.6237 16.0656
    endloop
  endfacet
  facet normal 0.951056 -0.309018 0
    outer loop
      vertex 2.06556 35.6237 2
      vertex 2.25936 36.2202 2
      vertex 2.06556 35.6237 16.0656
    endloop
  endfacet
  facet normal 0.994522 -0.104528 0
    outer loop
      vertex 2.06556 35.6237 2
      vertex 2.06556 35.6237 16.0656
      vertex 2 35 16
    endloop
  endfacet
  facet normal 0.994522 -0.104528 0
    outer loop
      vertex 2 35 2
      vertex 2.06556 35.6237 2
      vertex 2 35 16
    endloop
  endfacet
  facet normal 1 0 0
    outer loop
      vertex 2 35 2
      vertex 2 35 16
      vertex 2 5 16
    endloop
  endfacet
  facet normal 1 0 0
    outer loop
      vertex 2 5 2
      vertex 2 35 2
      vertex 2 5 16
    endloop
  endfacet
  facet normal 0.587785 0.809017 0
    outer loop
      vertex 3.5 2.40192 16.4019
      vertex 3.5 2.40192 16
      vertex 2.99261 2.77057 16.7706
    endloop
  endfacet
  facet normal 0.587785 0.809017 0
    outer loop
      vertex 2.99261 2.77057 16.7706
      vertex 3.5 2.40192 16
      vertex 2.99261 2.77057 16
    endloop
  endfacet
  facet normal 0.406738 0.913545 0
    outer loop
      vertex 4.07295 2.14683 16.1468
      vertex 4.07295 2.14683 16
      vertex 3.5 2.40192 16.4019
    endloop
  endfacet
  facet normal 0.406738 0.913545 0
    outer loop
      vertex 3.5 2.40192 16.4019
      vertex 4.07295 2.14683 16
      vertex 3.5 2.40192 16
    endloop
  endfacet
  facet normal 0.207911 0.978148 0
    outer loop
      vertex 4.68641 2.01643 16.0164
      vertex 4.68641 2.01643 16
      vertex 4.07295 2.14683 16.1468
    endloop
  endfacet
  facet normal 0.207911 0.978148 0
    outer loop
      vertex 4.07295 2.14683 16.1468
      vertex 4.68641 2.01643 16
      vertex 4.07295 2.14683 16
    endloop
  endfacet
  facet normal 1.22461e-016 1 0
    outer loop
      vertex 55.3136 2.01643 16.0164
      vertex 55.3136 2.01643 16
      vertex 4.68641 2.01643 16.0164
    endloop
  endfacet
  facet normal 1.22461e-016 1 0
    outer loop
      vertex 4.68641 2.01643 16.0164
      vertex 55.3136 2.01643 16
      vertex 4.68641 2.01643 16
    endloop
  endfacet
  facet normal -0.207911 0.978148 0
    outer loop
      vertex 55.3136 2.01643 16
      vertex 55.3136 2.01643 16.0164
      vertex 55.9271 2.14683 16.1468
    endloop
  endfacet
  facet normal -0.207911 0.978148 0
    outer loop
      vertex 55.3136 2.01643 16
      vertex 55.9271 2.14683 16.1468
      vertex 55.9271 2.14683 2
    endloop
  endfacet
  facet normal -0.207911 0.978148 0
    outer loop
      vertex 55.9271 2.14683 2
      vertex 55.3136 2.01643 2
      vertex 55.3136 2.01643 16
    endloop
  endfacet
  facet normal -0.406738 0.913545 0
    outer loop
      vertex 56.5 2.40192 16.4019
      vertex 56.5 2.40192 2
      vertex 55.9271 2.14683 16.1468
    endloop
  endfacet
  facet normal -0.406738 0.913545 0
    outer loop
      vertex 55.9271 2.14683 16.1468
      vertex 56.5 2.40192 2
      vertex 55.9271 2.14683 2
    endloop
  endfacet
  facet normal -0.587785 0.809017 0
    outer loop
      vertex 57.0074 2.77057 16.7706
      vertex 57.0074 2.77057 2
      vertex 56.5 2.40192 16.4019
    endloop
  endfacet
  facet normal -0.587785 0.809017 0
    outer loop
      vertex 56.5 2.40192 16.4019
      vertex 57.0074 2.77057 2
      vertex 56.5 2.40192 2
    endloop
  endfacet
  facet normal -0.743144 0.669131 0
    outer loop
      vertex 57.4271 3.23664 17.2366
      vertex 57.4271 3.23664 2
      vertex 57.0074 2.77057 16.7706
    endloop
  endfacet
  facet normal -0.743144 0.669131 0
    outer loop
      vertex 57.0074 2.77057 16.7706
      vertex 57.4271 3.23664 2
      vertex 57.0074 2.77057 2
    endloop
  endfacet
  facet normal -0.866026 0.499999 0
    outer loop
      vertex 57.7406 3.77979 17.7798
      vertex 57.7406 3.77979 2
      vertex 57.4271 3.23664 17.2366
    endloop
  endfacet
  facet normal -0.866026 0.499999 0
    outer loop
      vertex 57.4271 3.23664 17.2366
      vertex 57.7406 3.77979 2
      vertex 57.4271 3.23664 2
    endloop
  endfacet
  facet normal 0 0 1
    outer loop
      vertex 2.06556 4.37627 2
      vertex 2.25936 3.77979 2
      vertex 2.57295 3.23664 2
    endloop
  endfacet
  facet normal 0 0 1
    outer loop
      vertex 3.5 2.40192 2
      vertex 2.06556 4.37627 2
      vertex 2.99261 2.77057 2
    endloop
  endfacet
  facet normal 0 0 1
    outer loop
      vertex 2.99261 2.77057 2
      vertex 2.06556 4.37627 2
      vertex 2.57295 3.23664 2
    endloop
  endfacet
  facet normal 0 0 1
    outer loop
      vertex 4.07295 2.14683 2
      vertex 2.06556 4.37627 2
      vertex 3.5 2.40192 2
    endloop
  endfacet
  facet normal 0 0 1
    outer loop
      vertex 4.68641 2.01643 2
      vertex 2.06556 4.37627 2
      vertex 4.07295 2.14683 2
    endloop
  endfacet
  facet normal 0 0 1
    outer loop
      vertex 55.3136 2.01643 2
      vertex 2.06556 4.37627 2
      vertex 4.68641 2.01643 2
    endloop
  endfacet
  facet normal 0 0 1
    outer loop
      vertex 55.9271 2.14683 2
      vertex 2.06556 4.37627 2
      vertex 55.3136 2.01643 2
    endloop
  endfacet
  facet normal 0 0 1
    outer loop
      vertex 56.5 2.40192 2
      vertex 2.06556 4.37627 2
      vertex 55.9271 2.14683 2
    endloop
  endfacet
  facet normal 0 0 1
    outer loop
      vertex 57.0074 2.77057 2
      vertex 2.06556 4.37627 2
      vertex 56.5 2.40192 2
    endloop
  endfacet
  facet normal 0 0 1
    outer loop
      vertex 57.4271 3.23664 2
      vertex 2.06556 4.37627 2
      vertex 57.0074 2.77057 2
    endloop
  endfacet
  facet normal 0 0 1
    outer loop
      vertex 57.7406 3.77979 2
      vertex 2.06556 4.37627 2
      vertex 57.4271 3.23664 2
    endloop
  endfacet
  facet normal 0 0 1
    outer loop
      vertex 57.9344 4.37627 2
      vertex 2.06556 4.37627 2
      vertex 57.7406 3.77979 2
    endloop
  endfacet
  facet normal 0 0 1
    outer loop
      vertex 58 5 2
      vertex 2.06556 4.37627 2
      vertex 57.9344 4.37627 2
    endloop
  endfacet
  facet normal 0 0 1
    outer loop
      vertex 58 35 2
      vertex 2.06556 4.37627 2
      vertex 58 5 2
    endloop
  endfacet
  facet normal 0 0 1
    outer loop
      vertex 57.9344 35.6237 2
      vertex 2.06556 4.37627 2
      vertex 58 35 2
    endloop
  endfacet
  facet normal 0 0 1
    outer loop
      vertex 57.7406 36.2202 2
      vertex 2.06556 4.37627 2
      vertex 57.9344 35.6237 2
    endloop
  endfacet
  facet normal 0 0 1
    outer loop
      vertex 57.4271 36.7634 2
      vertex 2.06556 4.37627 2
      vertex 57.7406 36.2202 2
    endloop
  endfacet
  facet normal 0 0 1
    outer loop
      vertex 57.0074 37.2294 2
      vertex 2.06556 4.37627 2
      vertex 57.4271 36.7634 2
    endloop
  endfacet
  facet normal 0 0 1
    outer loop
      vertex 56.5 37.5981 2
      vertex 2.06556 4.37627 2
      vertex 57.0074 37.2294 2
    endloop
  endfacet
  facet normal 0 0 1
    outer loop
      vertex 55.9271 37.8532 2
      vertex 2.06556 4.37627 2
      vertex 56.5 37.5981 2
    endloop
  endfacet
  facet normal 0 0 1
    outer loop
      vertex 55.3136 37.9836 2
      vertex 2.06556 4.37627 2
      vertex 55.9271 37.8532 2
    endloop
  endfacet
  facet normal 0 0 1
    outer loop
      vertex 4.68641 37.9836 2
      vertex 2.06556 4.37627 2
      vertex 55.3136 37.9836 2
    endloop
  endfacet
  facet normal 0 0 1
    outer loop
      vertex 4.07295 37.8532 2
      vertex 2.06556 4.37627 2
      vertex 4.68641 37.9836 2
    endloop
  endfacet
  facet normal 0 0 1
    outer loop
      vertex 3.5 37.5981 2
      vertex 2.06556 4.37627 2
      vertex 4.07295 37.8532 2
    endloop
  endfacet
  facet normal 0 0 1
    outer loop
      vertex 2.99261 37.2294 2
      vertex 2.06556 4.37627 2
      vertex 3.5 37.5981 2
    endloop
  endfacet
  facet normal 0 0 1
    outer loop
      vertex 2.57295 36.7634 2
      vertex 2.06556 4.37627 2
      vertex 2.99261 37.2294 2
    endloop
  endfacet
  facet normal 0 0 1
    outer loop
      vertex 2.25936 36.2202 2
      vertex 2.06556 4.37627 2
      vertex 2.57295 36.7634 2
    endloop
  endfacet
  facet normal 0 0 1
    outer loop
      vertex 2.06556 35.6237 2
      vertex 2.06556 4.37627 2
      vertex 2.25936 36.2202 2
    endloop
  endfacet
  facet normal 0 0 1
    outer loop
      vertex 2 35 2
      vertex 2.06556 4.37627 2
      vertex 2.06556 35.6237 2
    endloop
  endfacet
  facet normal 0 0 1
    outer loop
      vertex 2 5 2
      vertex 2.06556 4.37627 2
      vertex 2 35 2
    endloop
  endfacet
  facet normal -0.866026 -0.499999 0
    outer loop
      vertex 57.7406 36.2202 17.7798
      vertex 57.4271 36.7634 17.2366
      vertex 57.7406 36.2202 2
    endloop
  endfacet
  facet normal -0.866026 -0.499999 0
    outer loop
      vertex 57.7406 36.2202 2
      vertex 57.4271 36.7634 17.2366
      vertex 57.4271 36.7634 2
    endloop
  endfacet
  facet normal -0.743144 -0.669131 0
    outer loop
      vertex 57.4271 36.7634 17.2366
      vertex 57.0074 37.2294 16.7706
      vertex 57.4271 36.7634 2
    endloop
  endfacet
  facet normal -0.743144 -0.669131 0
    outer loop
      vertex 57.4271 36.7634 2
      vertex 57.0074 37.2294 16.7706
      vertex 57.0074 37.2294 2
    endloop
  endfacet
  facet normal -0.587785 -0.809017 0
    outer loop
      vertex 57.0074 37.2294 2
      vertex 57.0074 37.2294 16.7706
      vertex 56.5 37.5981 16.4019
    endloop
  endfacet
  facet normal -0.587785 -0.809017 0
    outer loop
      vertex 56.5 37.5981 2
      vertex 57.0074 37.2294 2
      vertex 56.5 37.5981 16.4019
    endloop
  endfacet
  facet normal -0.406738 -0.913545 0
    outer loop
      vertex 56.5 37.5981 2
      vertex 56.5 37.5981 16.4019
      vertex 55.9271 37.8532 16.1468
    endloop
  endfacet
  facet normal -0.406738 -0.913545 0
    outer loop
      vertex 55.9271 37.8532 2
      vertex 56.5 37.5981 2
      vertex 55.9271 37.8532 16.1468
    endloop
  endfacet
  facet normal -0.207911 -0.978148 0
    outer loop
      vertex 55.9271 37.8532 2
      vertex 55.9271 37.8532 16.1468
      vertex 55.3136 37.9836 16.0164
    endloop
  endfacet
  facet normal -0.207911 -0.978148 0
    outer loop
      vertex 55.3136 37.9836 2
      vertex 55.9271 37.8532 2
      vertex 55.3136 37.9836 16.0164
    endloop
  endfacet
  facet normal 0 -1 0
    outer loop
      vertex 55.3136 37.9836 2
      vertex 55.3136 37.9836 16.0164
      vertex 4.68641 37.9836 16.0164
    endloop
  endfacet
  facet normal 0 -1 0
    outer loop
      vertex 4.68641 37.9836 2
      vertex 55.3136 37.9836 2
      vertex 4.68641 37.9836 16.0164
    endloop
  endfacet
  facet normal 0.207911 -0.978148 0
    outer loop
      vertex 4.68641 37.9836 2
      vertex 4.68641 37.9836 16.0164
      vertex 4.07295 37.8532 16.1468
    endloop
  endfacet
  facet normal 0.207911 -0.978148 0
    outer loop
      vertex 4.07295 37.8532 2
      vertex 4.68641 37.9836 2
      vertex 4.07295 37.8532 16.1468
    endloop
  endfacet
  facet normal 0.406738 -0.913545 0
    outer loop
      vertex 4.07295 37.8532 2
      vertex 4.07295 37.8532 16.1468
      vertex 3.5 37.5981 16.4019
    endloop
  endfacet
  facet normal 0.406738 -0.913545 0
    outer loop
      vertex 3.5 37.5981 2
      vertex 4.07295 37.8532 2
      vertex 3.5 37.5981 16.4019
    endloop
  endfacet
  facet normal 0.587785 -0.809017 0
    outer loop
      vertex 3.5 37.5981 2
      vertex 3.5 37.5981 16.4019
      vertex 2.99261 37.2294 16.7706
    endloop
  endfacet
  facet normal 0.587785 -0.809017 0
    outer loop
      vertex 2.99261 37.2294 2
      vertex 3.5 37.5981 2
      vertex 2.99261 37.2294 16.7706
    endloop
  endfacet
  facet normal 0.951056 0.309018 0
    outer loop
      vertex 2.06556 4.37627 16
      vertex 2.25936 3.77979 16
      vertex 2.25936 3.77979 2
    endloop
  endfacet
  facet normal 0.951056 0.309018 0
    outer loop
      vertex 2.06556 4.37627 2
      vertex 2.06556 4.37627 16
      vertex 2.25936 3.77979 2
    endloop
  endfacet
  facet normal 0 1 0
    outer loop
      vertex 55.3136 2.01643 16
      vertex 55.3136 2.01643 2
      vertex 4.68641 2.01643 16
    endloop
  endfacet
  facet normal 0 1 0
    outer loop
      vertex 4.68641 2.01643 16
      vertex 55.3136 2.01643 2
      vertex 4.68641 2.01643 2
    endloop
  endfacet
  facet normal 0.207911 0.978148 0
    outer loop
      vertex 4.68641 2.01643 16
      vertex 4.68641 2.01643 2
      vertex 4.07295 2.14683 16
    endloop
  endfacet
  facet normal 0.207911 0.978148 0
    outer loop
      vertex 4.07295 2.14683 16
      vertex 4.68641 2.01643 2
      vertex 4.07295 2.14683 2
    endloop
  endfacet
  facet normal 0.406738 0.913545 0
    outer loop
      vertex 4.07295 2.14683 16
      vertex 4.07295 2.14683 2
      vertex 3.5 2.40192 16
    endloop
  endfacet
  facet normal 0.406738 0.913545 0
    outer loop
      vertex 3.5 2.40192 16
      vertex 4.07295 2.14683 2
      vertex 3.5 2.40192 2
    endloop
  endfacet
  facet normal 0.587785 0.809017 0
    outer loop
      vertex 3.5 2.40192 16
      vertex 3.5 2.40192 2
      vertex 2.99261 2.77057 16
    endloop
  endfacet
  facet normal 0.587785 0.809017 0
    outer loop
      vertex 2.99261 2.77057 16
      vertex 3.5 2.40192 2
      vertex 2.99261 2.77057 2
    endloop
  endfacet
  facet normal 0.743144 0.669131 0
    outer loop
      vertex 2.57295 3.23664 16
      vertex 2.99261 2.77057 16
      vertex 2.99261 2.77057 2
    endloop
  endfacet
  facet normal 0.743144 0.669131 0
    outer loop
      vertex 2.57295 3.23664 2
      vertex 2.57295 3.23664 16
      vertex 2.99261 2.77057 2
    endloop
  endfacet
  facet normal 0.866026 0.499999 0
    outer loop
      vertex 2.25936 3.77979 16
      vertex 2.57295 3.23664 16
      vertex 2.57295 3.23664 2
    endloop
  endfacet
  facet normal 0.866026 0.499999 0
    outer loop
      vertex 2.25936 3.77979 2
      vertex 2.25936 3.77979 16
      vertex 2.57295 3.23664 2
    endloop
  endfacet
endsolid OpenSCAD_Model
